SplineFontDB: 2.0
FontName: THNiramitAS-Bold
FullName: THNiramitAS-Bold
FamilyName: TH Niramit AS
Weight: Bold
Copyright: Copyright (c) 2006 by Department of Intellectual Property (DIP), Ministry of Commerce and Software Industry Promotion Agency (Public Organization) (SIPA). All rights reserved.
Version: 1.1
ItalicAngle: 0
UnderlinePosition: -35
UnderlineWidth: 30
Ascent: 800
Descent: 200
Order2: 1
NeedsXUIDChange: 1
XUID: [1021 375 425136265 10673306]
FSType: 0
OS2Version: 3
OS2_WeightWidthSlopeOnly: 0
OS2_UseTypoMetrics: 1
CreationTime: 1157457558
ModificationTime: 1196156741
PfmFamily: 17
TTFWeight: 700
TTFWidth: 5
LineGap: 60
VLineGap: 0
Panose: 2 0 5 6 0 0 0 2 0 4
OS2TypoAscent: 0
OS2TypoAOffset: 1
OS2TypoDescent: 0
OS2TypoDOffset: 1
OS2TypoLinegap: 0
OS2WinAscent: 15
OS2WinAOffset: 1
OS2WinDescent: 1
OS2WinDOffset: 1
HheadAscent: -105
HheadAOffset: 1
HheadDescent: 299
HheadDOffset: 1
OS2SubXSize: 700
OS2SubYSize: 650
OS2SubXOff: 0
OS2SubYOff: 140
OS2SupXSize: 700
OS2SupYSize: 650
OS2SupXOff: 0
OS2SupYOff: 477
OS2StrikeYSize: 30
OS2StrikeYPos: 250
OS2FamilyClass: 773
OS2Vendor: 'IPTH'
Lookup: 4 0 0 "'frac' Diagonal Fractions in Latin lookup 0"  {"'frac' Diagonal Fractions in Latin lookup 0 subtable"  } ['frac' ('latn' <'dflt' > ) ]
Lookup: 6 0 0 "'liga' Standard Ligatures in Latin lookup 1"  {"'liga' Standard Ligatures in Latin lookup 1 subtable"  } ['liga' ('latn' <'dflt' > ) ]
Lookup: 6 0 0 "'liga' Standard Ligatures in Latin lookup 2"  {"'liga' Standard Ligatures in Latin lookup 2 subtable"  } ['liga' ('latn' <'dflt' > ) ]
Lookup: 6 0 0 "'liga' Standard Ligatures in Latin lookup 3"  {"'liga' Standard Ligatures in Latin lookup 3 subtable"  } ['liga' ('latn' <'dflt' > ) ]
Lookup: 6 0 0 "'liga' Standard Ligatures in Latin lookup 4"  {"'liga' Standard Ligatures in Latin lookup 4 subtable"  } ['liga' ('latn' <'dflt' > ) ]

StartChar: .notdef
Encoding: 65536 -1 0
Width: 747
VWidth: 1494
Flags: W
HStem: 0 52<145 601> 987 52<145 601>
VStem: 94 51<52 987> 601 51<52 987>
Fore
601 52 m 1,0,-1
 601 987 l 1,1,-1
 145 987 l 1,2,-1
 145 52 l 1,3,-1
 601 52 l 1,0,-1
652 0 m 1,4,-1
 94 0 l 1,5,-1
 94 1039 l 1,6,-1
 652 1039 l 1,7,-1
 652 0 l 1,4,-1
EndSplineSet
EndChar
StartChar: numbersign
Encoding: 35 35 4
Width: 602
VWidth: 1494
Flags: W
HStem: -7 21G<102 178.243 314 390.243> 215 73<42 136 223 348 435 523> 448 74<76 173 260 386 472 558> 695 20G<213.684 291 428 498.859>
Fore
558 448 m 1,0,-1
 460 448 l 1,1,-1
 435 288 l 1,2,-1
 537 288 l 1,3,-1
 523 215 l 1,4,-1
 423 215 l 1,5,-1
 387 -7 l 1,6,-1
 314 -6 l 1,7,-1
 348 215 l 1,8,-1
 211 215 l 1,9,-1
 175 -7 l 1,10,-1
 102 -6 l 1,11,-1
 136 215 l 1,12,-1
 31 215 l 1,13,-1
 42 288 l 1,14,-1
 148 288 l 1,15,-1
 173 448 l 1,16,-1
 66 448 l 1,17,-1
 76 522 l 1,18,-1
 185 522 l 1,19,-1
 217 715 l 1,20,-1
 291 713 l 1,21,-1
 260 522 l 1,22,-1
 398 522 l 1,23,-1
 428 712 l 1,24,-1
 502 713 l 1,25,-1
 472 522 l 1,26,-1
 571 522 l 1,27,-1
 558 448 l 1,0,-1
248 448 m 1,28,-1
 223 288 l 1,29,-1
 360 288 l 1,30,-1
 386 448 l 1,31,-1
 248 448 l 1,28,-1
EndSplineSet
EndChar
StartChar: dollar
Encoding: 36 36 5
Width: 578
VWidth: 1494
Flags: W
HStem: -31 103<194.215 263 332 368.891> 534 21G<441 466.308> 604 102<207.194 263 332 395.034>
VStem: 58.5 104.5<480.465 561.315> 263 69<-102 -31 75 269 417 599 706 765> 439 105<130.298 203.654>
Fore
544 176 m 0,0,1
 544 130 544 130 527 93.5 c 128,-1,2
 510 57 510 57 480.5 30 c 128,-1,3
 451 3 451 3 413 -12.5 c 128,-1,4
 375 -28 375 -28 332 -31 c 1,5,-1
 332 -102 l 1,6,-1
 263 -102 l 1,7,-1
 263 -31 l 1,8,9
 199 -25 199 -25 139 6 c 128,-1,10
 79 37 79 37 31 97 c 1,11,-1
 117 173 l 1,12,13
 138 141 138 141 172 110 c 128,-1,14
 206 79 206 79 263 72 c 1,15,-1
 263 297 l 1,16,17
 223 314 223 314 197.5 325 c 128,-1,18
 172 336 172 336 164 339 c 0,19,20
 138 353 138 353 114 378.5 c 128,-1,21
 90 404 90 404 75 437.5 c 128,-1,22
 60 471 60 471 58.5 510.5 c 128,-1,23
 57 550 57 550 78 590 c 0,24,25
 103 641 103 641 150 670.5 c 128,-1,26
 197 700 197 700 263 706 c 1,27,-1
 263 765 l 1,28,-1
 332 765 l 1,29,-1
 332 704 l 1,30,31
 377 698 377 698 421.5 679.5 c 128,-1,32
 466 661 466 661 510 625 c 1,33,-1
 454 534 l 1,34,35
 428 562 428 562 397 577 c 128,-1,36
 366 592 366 592 332 599 c 1,37,-1
 332 390 l 1,38,39
 369 372 369 372 406.5 356.5 c 128,-1,40
 444 341 444 341 474.5 318.5 c 128,-1,41
 505 296 505 296 524.5 263 c 128,-1,42
 544 230 544 230 544 176 c 0,0,1
263 604 m 1,43,44
 224 599 224 599 195 572.5 c 128,-1,45
 166 546 166 546 163 513 c 0,46,47
 161 489 161 489 169.5 474 c 128,-1,48
 178 459 178 459 192 449 c 128,-1,49
 206 439 206 439 225 432.5 c 128,-1,50
 244 426 244 426 263 417 c 1,51,-1
 263 604 l 1,43,44
439 170 m 0,52,53
 439 187 439 187 429.5 202 c 128,-1,54
 420 217 420 217 404.5 229 c 128,-1,55
 389 241 389 241 370 251.5 c 128,-1,56
 351 262 351 262 332 269 c 1,57,-1
 332 75 l 1,58,59
 350 78 350 78 369.5 85.5 c 128,-1,60
 389 93 389 93 404.5 104 c 128,-1,61
 420 115 420 115 429.5 131.5 c 128,-1,62
 439 148 439 148 439 170 c 0,52,53
EndSplineSet
EndChar
StartChar: percent
Encoding: 37 37 6
Width: 847
VWidth: 1494
Flags: W
HStem: -1 80<601.484 673.309> 303 81<598.36 680.227> 326 81<164.801 237.245> 631 81<162.596 243.792>
VStem: 57 76<480.912 551.245> 277 76<481.492 555.552> 493 77<153.485 223.834> 713 76<152.29 229.088>
Fore
353 519 m 0,0,1
 353 483 353 483 343 448.5 c 128,-1,2
 333 414 333 414 314.5 386.5 c 128,-1,3
 296 359 296 359 268.5 342.5 c 128,-1,4
 241 326 241 326 205 326 c 0,5,6
 167 326 167 326 139.5 343 c 128,-1,7
 112 360 112 360 93.5 388 c 128,-1,8
 75 416 75 416 66 450 c 128,-1,9
 57 484 57 484 57 519 c 0,10,11
 57 550 57 550 66 584.5 c 128,-1,12
 75 619 75 619 93 647.5 c 128,-1,13
 111 676 111 676 138.5 694 c 128,-1,14
 166 712 166 712 205 712 c 0,15,16
 242 712 242 712 269.5 694.5 c 128,-1,17
 297 677 297 677 316 649.5 c 128,-1,18
 335 622 335 622 344 587.5 c 128,-1,19
 353 553 353 553 353 519 c 0,0,1
277 519 m 0,20,21
 277 534 277 534 273 553.5 c 128,-1,22
 269 573 269 573 261 590 c 128,-1,23
 253 607 253 607 239.5 619 c 128,-1,24
 226 631 226 631 205 631 c 0,25,26
 179 631 179 631 165 616 c 128,-1,27
 151 601 151 601 143.5 582.5 c 128,-1,28
 136 564 136 564 134.5 545 c 128,-1,29
 133 526 133 526 133 519 c 0,30,31
 133 504 133 504 136 484.5 c 128,-1,32
 139 465 139 465 147 448 c 128,-1,33
 155 431 155 431 169.5 419 c 128,-1,34
 184 407 184 407 205 407 c 0,35,36
 224 407 224 407 238.5 418 c 128,-1,37
 253 429 253 429 261 445.5 c 128,-1,38
 269 462 269 462 273 482 c 128,-1,39
 277 502 277 502 277 519 c 0,20,21
187 -33 m 1,40,-1
 574 756 l 1,41,-1
 664 756 l 1,42,-1
 277 -33 l 1,43,-1
 187 -33 l 1,40,-1
789 191 m 0,44,45
 789 155 789 155 779.5 121 c 128,-1,46
 770 87 770 87 751 59 c 128,-1,47
 732 31 732 31 704.5 15 c 128,-1,48
 677 -1 677 -1 641 -1 c 0,49,50
 604 -1 604 -1 576.5 16 c 128,-1,51
 549 33 549 33 530 60.5 c 128,-1,52
 511 88 511 88 502 122.5 c 128,-1,53
 493 157 493 157 493 191 c 0,54,55
 493 223 493 223 502 257 c 128,-1,56
 511 291 511 291 529 319.5 c 128,-1,57
 547 348 547 348 574.5 366 c 128,-1,58
 602 384 602 384 641 384 c 0,59,60
 679 384 679 384 706.5 367 c 128,-1,61
 734 350 734 350 752.5 322 c 128,-1,62
 771 294 771 294 780 260 c 128,-1,63
 789 226 789 226 789 191 c 0,44,45
713 191 m 0,64,65
 713 206 713 206 709.5 225.5 c 128,-1,66
 706 245 706 245 697.5 262.5 c 128,-1,67
 689 280 689 280 675.5 291.5 c 128,-1,68
 662 303 662 303 641 303 c 0,69,70
 616 303 616 303 601.5 288.5 c 128,-1,71
 587 274 587 274 580 255 c 128,-1,72
 573 236 573 236 571.5 217.5 c 128,-1,73
 570 199 570 199 570 191 c 0,74,75
 570 176 570 176 572.5 157 c 128,-1,76
 575 138 575 138 583.5 120.5 c 128,-1,77
 592 103 592 103 606 91 c 128,-1,78
 620 79 620 79 641 79 c 0,79,80
 661 79 661 79 675 90.5 c 128,-1,81
 689 102 689 102 697.5 118.5 c 128,-1,82
 706 135 706 135 709.5 155 c 128,-1,83
 713 175 713 175 713 191 c 0,64,65
EndSplineSet
EndChar
StartChar: ampersand
Encoding: 38 38 7
Width: 701
VWidth: 1494
Flags: W
HStem: -13 106<215.952 360.205> 637 88<253.308 323.516>
VStem: 52 109<146.644 251.791> 123 110<524.501 627.12> 335 100<535.138 626.089> 502 97<334.418 386>
Fore
535 1 m 1,0,-1
 477 73 l 1,1,2
 399 -13 399 -13 296 -13 c 0,3,4
 247 -13 247 -13 202 2.5 c 128,-1,5
 157 18 157 18 124 47 c 128,-1,6
 91 76 91 76 71.5 116.5 c 128,-1,7
 52 157 52 157 52 208 c 0,8,9
 52 247 52 247 65 278 c 128,-1,10
 78 309 78 309 98 334.5 c 128,-1,11
 118 360 118 360 142.5 381 c 128,-1,12
 167 402 167 402 191 420 c 1,13,14
 166 453 166 453 144.5 492.5 c 128,-1,15
 123 532 123 532 123 580 c 0,16,17
 123 647 123 647 167.5 686 c 128,-1,18
 212 725 212 725 278 725 c 0,19,20
 345 725 345 725 390 687.5 c 128,-1,21
 435 650 435 650 435 583 c 0,22,23
 435 522 435 522 403.5 479 c 128,-1,24
 372 436 372 436 338 407 c 1,25,-1
 474 247 l 1,26,27
 486 269 486 269 493.5 304 c 128,-1,28
 501 339 501 339 502 386 c 1,29,-1
 599 386 l 1,30,31
 596 317 596 317 581.5 268.5 c 128,-1,32
 567 220 567 220 541 166 c 1,33,-1
 677 1 l 1,34,-1
 535 1 l 1,0,-1
335 589 m 0,35,36
 335 610 335 610 320.5 623.5 c 128,-1,37
 306 637 306 637 286 637 c 0,38,39
 268 637 268 637 250.5 626.5 c 128,-1,40
 233 616 233 616 233 589 c 0,41,42
 233 549 233 549 277 492 c 1,43,44
 299 514 299 514 317 536.5 c 128,-1,45
 335 559 335 559 335 589 c 0,35,36
256 341 m 1,46,47
 193 288 193 288 177 260 c 128,-1,48
 161 232 161 232 161 221 c 0,49,50
 161 164 161 164 198.5 128.5 c 128,-1,51
 236 93 236 93 291 93 c 0,52,53
 326 93 326 93 354.5 107 c 128,-1,54
 383 121 383 121 413 154 c 1,55,-1
 256 341 l 1,46,47
EndSplineSet
EndChar
StartChar: quotesingle
Encoding: 39 39 8
Width: 273
VWidth: 1494
Flags: W
HStem: 459 242<106 172>
VStem: 91 94<557.133 701 587 701 587 587>
Fore
172 459 m 1,0,-1
 106 459 l 1,1,-1
 91 587 l 1,2,-1
 91 701 l 1,3,-1
 185 701 l 1,4,-1
 185 587 l 1,5,-1
 172 459 l 1,0,-1
EndSplineSet
EndChar
StartChar: parenleft
Encoding: 40 40 9
Width: 364
VWidth: 1494
Flags: W
HStem: 698 20G<180.5 291>
VStem: 73 87<144.36 457.566>
Fore
220 -111 m 1,0,1
 73 94 73 94 73 300 c 0,2,3
 73 402 73 402 107 500 c 128,-1,4
 141 598 141 598 220 718 c 1,5,-1
 291 718 l 1,6,7
 160 508 160 508 160 297 c 0,8,9
 160 190 160 190 193 89 c 128,-1,10
 226 -12 226 -12 294 -111 c 1,11,-1
 220 -111 l 1,0,1
EndSplineSet
EndChar
StartChar: parenright
Encoding: 41 41 10
Width: 366
VWidth: 1494
Flags: W
HStem: 698 20G<81 191>
VStem: 212 87<144.36 457.566>
Fore
299 300 m 0,0,1
 299 94 299 94 152 -111 c 1,2,-1
 78 -111 l 1,3,4
 146 -12 146 -12 179 89 c 128,-1,5
 212 190 212 190 212 297 c 0,6,7
 212 508 212 508 81 718 c 1,8,-1
 152 718 l 1,9,10
 230 598 230 598 264.5 500 c 128,-1,11
 299 402 299 402 299 300 c 0,0,1
EndSplineSet
EndChar
StartChar: asterisk
Encoding: 42 42 11
Width: 548
VWidth: 1494
Flags: W
HStem: 468 105<95.2539 139.045 400.477 440.724>
VStem: 70 398<505 543.12 505 532 505 505>
Fore
468 532 m 1,0,1
 475 508 475 508 458 486.5 c 128,-1,2
 441 465 441 465 414 468 c 1,3,-1
 329 490 l 1,4,-1
 387 422 l 2,5,6
 407 399 407 399 394 373.5 c 128,-1,7
 381 348 381 348 356 341 c 0,8,9
 339 335 339 335 318 343 c 128,-1,10
 297 351 297 351 293 371 c 2,11,-1
 274 457 l 1,12,13
 262 431 262 431 252 400 c 128,-1,14
 242 369 242 369 238 362 c 0,15,16
 229 342 229 342 207 338.5 c 128,-1,17
 185 335 185 335 167 345 c 0,18,19
 151 354 151 354 145 376 c 128,-1,20
 139 398 139 398 148 414 c 0,21,22
 149 417 149 417 156.5 425 c 128,-1,23
 164 433 164 433 174.5 443.5 c 128,-1,24
 185 454 185 454 195.5 465.5 c 128,-1,25
 206 477 206 477 215 489 c 1,26,-1
 130 468 l 2,27,28
 111 460 111 460 93 473 c 128,-1,29
 75 486 75 486 70 505 c 0,30,31
 63 532 63 532 80 553.5 c 128,-1,32
 97 575 97 575 124 573 c 0,33,34
 136 570 136 570 151.5 567 c 128,-1,35
 167 564 167 564 181 561 c 0,36,37
 197 556 197 556 212 552 c 1,38,-1
 151 620 l 2,39,40
 133 641 133 641 145 667.5 c 128,-1,41
 157 694 157 694 182 701 c 0,42,43
 202 707 202 707 220 697.5 c 128,-1,44
 238 688 238 688 245 671 c 1,45,-1
 271 578 l 1,46,47
 277 592 277 592 281.5 607.5 c 128,-1,48
 286 623 286 623 289.5 638 c 128,-1,49
 293 653 293 653 295 664.5 c 128,-1,50
 297 676 297 676 300 679 c 2,51,52
 309 694 309 694 330 700.5 c 128,-1,53
 351 707 351 707 371 695 c 0,54,55
 389 686 389 686 395 665 c 128,-1,56
 401 644 401 644 392 626 c 0,57,58
 387 619 387 619 366 596.5 c 128,-1,59
 345 574 345 574 329 552 c 1,60,-1
 408 574 l 2,61,62
 429 580 429 580 447 566.5 c 128,-1,63
 465 553 465 553 468 532 c 1,0,1
EndSplineSet
EndChar
StartChar: plus
Encoding: 43 43 12
Width: 597
VWidth: 1494
Flags: W
HStem: 209 102<69 248 350 529>
VStem: 248 102<30 209 311 490>
Fore
248 209 m 1,0,-1
 69 209 l 1,1,-1
 69 311 l 1,2,-1
 248 311 l 1,3,-1
 248 490 l 1,4,-1
 350 490 l 1,5,-1
 350 311 l 1,6,-1
 529 311 l 1,7,-1
 529 209 l 1,8,-1
 350 209 l 1,9,-1
 350 30 l 1,10,-1
 248 30 l 1,11,-1
 248 209 l 1,0,-1
EndSplineSet
EndChar
StartChar: comma
Encoding: 44 44 13
Width: 364
VWidth: 1494
Flags: W
HStem: -158 307<133 175 175 175>
VStem: 96 163<16.7207 122.502>
Fore
259 63 m 0,0,1
 259 -4 259 -4 224.5 -57.5 c 128,-1,2
 190 -111 190 -111 133 -158 c 1,3,-1
 76 -121 l 1,4,5
 87 -115 87 -115 102 -101 c 128,-1,6
 117 -87 117 -87 131 -70.5 c 128,-1,7
 145 -54 145 -54 157 -36.5 c 128,-1,8
 169 -19 169 -19 173 -7 c 1,9,10
 141 -7 141 -7 118.5 16 c 128,-1,11
 96 39 96 39 96 70 c 256,12,13
 96 102 96 102 119 125.5 c 128,-1,14
 142 149 142 149 175 149 c 0,15,16
 209 149 209 149 234 125.5 c 128,-1,17
 259 102 259 102 259 63 c 0,0,1
EndSplineSet
EndChar
StartChar: hyphen
Encoding: 45 45 14
Width: 597
VWidth: 1494
Flags: W
HStem: 209 102<69 529 69 529 69 69>
Fore
69 209 m 1,0,-1
 69 311 l 1,1,-1
 529 311 l 1,2,-1
 529 209 l 1,3,-1
 69 209 l 1,0,-1
EndSplineSet
EndChar
StartChar: period
Encoding: 46 46 15
Width: 307
VWidth: 1494
Flags: W
HStem: 0 146<102.659 205.341>
VStem: 81 146<20.6279 123.826>
Fore
227 72 m 256,0,1
 227 40 227 40 206 20 c 128,-1,2
 185 0 185 0 154 0 c 256,3,4
 123 0 123 0 102 20 c 128,-1,5
 81 40 81 40 81 72 c 256,6,7
 81 103 81 103 102 124.5 c 128,-1,8
 123 146 123 146 154 146 c 256,9,10
 185 146 185 146 206 124.5 c 128,-1,11
 227 103 227 103 227 72 c 256,0,1
EndSplineSet
EndChar
StartChar: slash
Encoding: 47 47 16
Width: 291
VWidth: 1494
Flags: W
VStem: -19 331<-94 768 -94 -94>
Fore
-19 -94 m 1,0,-1
 223 768 l 1,1,-1
 312 768 l 1,2,-1
 70 -94 l 1,3,-1
 -19 -94 l 1,0,-1
EndSplineSet
EndChar
StartChar: zero
Encoding: 48 48 17
Width: 597
VWidth: 1494
Flags: W
HStem: -10 92<216.342 378.274> 637 91<240.114 379.736>
VStem: 40 89<253.535 475.994> 466 87<287.461 434.149>
Fore
553 359 m 256,0,1
 553 286 553 286 540.5 218.5 c 128,-1,2
 528 151 528 151 497 100 c 128,-1,3
 466 49 466 49 417.5 19.5 c 128,-1,4
 369 -10 369 -10 297 -10 c 256,5,6
 226 -10 226 -10 176.5 19.5 c 128,-1,7
 127 49 127 49 97 100 c 128,-1,8
 67 151 67 151 53.5 218.5 c 128,-1,9
 40 286 40 286 40 359 c 0,10,11
 40 481 40 481 69.5 553.5 c 128,-1,12
 99 626 99 626 140 665 c 128,-1,13
 181 704 181 704 224.5 716 c 128,-1,14
 268 728 268 728 297 728 c 0,15,16
 369 728 369 728 417.5 698 c 128,-1,17
 466 668 466 668 497 617.5 c 128,-1,18
 528 567 528 567 540.5 499.5 c 128,-1,19
 553 432 553 432 553 359 c 256,0,1
466 359 m 0,20,21
 466 414 466 414 459.5 464 c 128,-1,22
 453 514 453 514 434.5 552 c 128,-1,23
 416 590 416 590 383 613.5 c 128,-1,24
 350 637 350 637 299 637 c 256,25,26
 248 637 248 637 215 613.5 c 128,-1,27
 182 590 182 590 163 552 c 128,-1,28
 144 514 144 514 136.5 463.5 c 128,-1,29
 129 413 129 413 129 359 c 0,30,31
 129 303 129 303 136.5 253 c 128,-1,32
 144 203 144 203 163 165 c 128,-1,33
 182 127 182 127 215 104.5 c 128,-1,34
 248 82 248 82 299 82 c 0,35,36
 351 82 351 82 384 107.5 c 128,-1,37
 417 133 417 133 435 173.5 c 128,-1,38
 453 214 453 214 459.5 262.5 c 128,-1,39
 466 311 466 311 466 359 c 0,20,21
EndSplineSet
EndChar
StartChar: one
Encoding: 49 49 18
Width: 440
VWidth: 1494
Flags: W
HStem: 0 21G<226 315>
VStem: 226 89<0 561>
Fore
344 670 m 1,0,1
 345 658 345 658 335.5 646.5 c 128,-1,2
 326 635 326 635 315 631 c 1,3,-1
 315 0 l 1,4,-1
 226 0 l 1,5,-1
 226 561 l 1,6,7
 214 552 214 552 198 537.5 c 128,-1,8
 182 523 182 523 166 511 c 0,9,10
 148 496 148 496 129 481 c 1,11,-1
 63 541 l 1,12,-1
 262 709 l 1,13,-1
 262 710 l 1,14,15
 286 725 286 725 306.5 718.5 c 128,-1,16
 327 712 327 712 344 673 c 1,17,-1
 344 670 l 1,0,1
EndSplineSet
EndChar
StartChar: two
Encoding: 50 50 19
Width: 581
VWidth: 1494
Flags: W
HStem: 0 91<188 432>
VStem: 405 90<432.093 582.52>
Fore
487 0 m 1,0,-1
 87 0 l 2,1,2
 31 -6 31 -6 42 49 c 0,3,4
 45 70 45 70 50 81.5 c 128,-1,5
 55 93 55 93 75 91 c 1,6,7
 87 111 87 111 105.5 131.5 c 128,-1,8
 124 152 124 152 144 171.5 c 128,-1,9
 164 191 164 191 183 207.5 c 128,-1,10
 202 224 202 224 214 235 c 0,11,12
 251 266 251 266 286 299.5 c 128,-1,13
 321 333 321 333 348 368.5 c 128,-1,14
 375 404 375 404 390 439 c 128,-1,15
 405 474 405 474 405 507 c 0,16,17
 404 558 404 558 380.5 587 c 128,-1,18
 357 616 357 616 325 627 c 128,-1,19
 293 638 293 638 257 631.5 c 128,-1,20
 221 625 221 625 195 604 c 128,-1,21
 169 583 169 583 157.5 548.5 c 128,-1,22
 146 514 146 514 163 469 c 1,23,-1
 79 448 l 1,24,25
 67 511 67 511 73 559.5 c 128,-1,26
 79 608 79 608 111 646 c 0,27,28
 154 697 154 697 220 713 c 128,-1,29
 286 729 286 729 347 711.5 c 128,-1,30
 408 694 408 694 451.5 642 c 128,-1,31
 495 590 495 590 495 505 c 0,32,33
 495 456 495 456 474.5 409.5 c 128,-1,34
 454 363 454 363 422 320.5 c 128,-1,35
 390 278 390 278 351 240.5 c 128,-1,36
 312 203 312 203 275 172 c 0,37,38
 250 151 250 151 226.5 129.5 c 128,-1,39
 203 108 203 108 188 91 c 1,40,-1
 432 91 l 1,41,42
 436 100 436 100 448 119.5 c 128,-1,43
 460 139 460 139 463 146 c 1,44,45
 465.5 145.5 l 2,46,47
 468 145 468 145 474.5 141.5 c 128,-1,48
 481 138 481 138 496 129.5 c 128,-1,49
 511 121 511 121 538 108 c 1,50,-1
 487 0 l 1,0,-1
EndSplineSet
EndChar
StartChar: three
Encoding: 51 51 20
Width: 594
VWidth: 1494
Flags: W
HStem: -13 21G<292 349> 534 21G<109.5 135.5> 625 90<166 354 467.807 496.562>
VStem: 453.5 95.5<189.207 330.558>
Fore
549 247 m 0,0,1
 549 199 549 199 534 152.5 c 128,-1,2
 519 106 519 106 490.5 69.5 c 128,-1,3
 462 33 462 33 419.5 10 c 128,-1,4
 377 -13 377 -13 321 -13 c 0,5,6
 263 -13 263 -13 218 -1.5 c 128,-1,7
 173 10 173 10 139 37 c 128,-1,8
 105 64 105 64 78.5 106.5 c 128,-1,9
 52 149 52 149 33 209 c 1,10,-1
 117 235 l 1,11,12
 139 149 139 149 187 105 c 128,-1,13
 235 61 235 61 315 66 c 0,14,15
 368 69 368 69 400 99.5 c 128,-1,16
 432 130 432 130 445.5 172 c 128,-1,17
 459 214 459 214 453.5 259.5 c 128,-1,18
 448 305 448 305 426.5 339.5 c 128,-1,19
 405 374 405 374 365.5 388 c 128,-1,20
 326 402 326 402 271 383 c 1,21,22
 268 380 268 380 259.5 371 c 128,-1,23
 251 362 251 362 244 353 c 0,24,25
 230 339 230 339 215 342 c 128,-1,26
 200 345 200 345 188 356.5 c 128,-1,27
 176 368 176 368 172.5 383.5 c 128,-1,28
 169 399 169 399 178 413 c 0,29,30
 217 462 217 462 253 504 c 0,31,32
 283 540 283 540 312 575 c 128,-1,33
 341 610 341 610 354 625 c 1,34,-1
 166 625 l 1,35,36
 164 619 164 619 159.5 606 c 128,-1,37
 155 593 155 593 150.5 579 c 128,-1,38
 146 565 146 565 141 552.5 c 128,-1,39
 136 540 136 540 135 534 c 1,40,41
 84 558 84 558 71 564.5 c 128,-1,42
 58 571 58 571 58 573 c 2,43,-1
 100 715 l 1,44,-1
 475 715 l 1,45,46
 496 718 496 718 505 703 c 128,-1,47
 514 688 514 688 507 667 c 1,48,49
 502 641 502 641 497 633 c 128,-1,50
 492 625 492 625 471 625 c 1,51,52
 468 622 468 622 451.5 602.5 c 128,-1,53
 435 583 435 583 415 557.5 c 128,-1,54
 395 532 395 532 374 507.5 c 128,-1,55
 353 483 353 483 342 471 c 1,56,57
 384 472 384 472 421.5 458 c 128,-1,58
 459 444 459 444 487.5 415 c 128,-1,59
 516 386 516 386 532.5 344 c 128,-1,60
 549 302 549 302 549 247 c 0,0,1
EndSplineSet
EndChar
StartChar: four
Encoding: 52 52 21
Width: 560
VWidth: 1494
Flags: W
HStem: 0 21G<350 439> 141 91<149 350 439 531>
VStem: 350 89<0 141 232 520>
Fore
439 141 m 1,0,-1
 439 0 l 1,1,-1
 350 0 l 1,2,-1
 350 141 l 1,3,-1
 58 141 l 2,4,5
 37 142 37 142 24.5 166 c 128,-1,6
 12 190 12 190 24 211 c 2,7,-1
 380 707 l 2,8,9
 390 722 390 722 405 720 c 256,10,11
 420 719 420 719 431 705.5 c 128,-1,12
 442 692 442 692 445 680 c 256,13,14
 448 668 448 668 447.5 661.5 c 128,-1,15
 447 655 447 655 439 643 c 1,16,-1
 439 232 l 1,17,-1
 531 232 l 1,18,-1
 531 141 l 1,19,-1
 439 141 l 1,0,-1
350 520 m 1,20,21
 335 501 335 501 306 458.5 c 128,-1,22
 277 416 277 416 245.5 370 c 128,-1,23
 214 324 214 324 187 284.5 c 128,-1,24
 160 245 160 245 149 232 c 1,25,-1
 350 232 l 1,26,-1
 350 520 l 1,20,21
EndSplineSet
EndChar
StartChar: five
Encoding: 53 53 22
Width: 594
VWidth: 1494
Flags: W
HStem: -13.5 86<262.545 324.75> 625 90<199 525>
VStem: 468 84.5<208.158 302.23>
Fore
544 181 m 0,0,1
 529 114 529 114 479 62 c 128,-1,2
 429 10 429 10 363 -6 c 0,3,4
 336 -12 336 -12 304 -13.5 c 128,-1,5
 272 -15 272 -15 234.5 -5.5 c 128,-1,6
 197 4 197 4 155.5 27.5 c 128,-1,7
 114 51 114 51 70 94 c 1,8,-1
 130 160 l 1,9,10
 163 130 163 130 190 111.5 c 128,-1,11
 217 93 217 93 241 83 c 128,-1,12
 265 73 265 73 288 72.5 c 128,-1,13
 311 72 311 72 338 79 c 0,14,15
 393 93 393 93 427.5 140.5 c 128,-1,16
 462 188 462 188 468 242.5 c 128,-1,17
 474 297 474 297 448 346.5 c 128,-1,18
 422 396 422 396 356 414 c 0,19,20
 288 433 288 433 227.5 404 c 128,-1,21
 167 375 167 375 144 294 c 1,22,23
 108 308 108 308 91.5 314.5 c 128,-1,24
 75 321 75 321 64 326 c 1,25,-1
 69 338 l 2,26,27
 72 351 72 351 78 389.5 c 128,-1,28
 84 428 84 428 90 473.5 c 128,-1,29
 96 519 96 519 101 565 c 128,-1,30
 106 611 106 611 111 641 c 1,31,32
 105 649 105 649 103.5 661 c 128,-1,33
 102 673 102 673 105 683 c 0,34,35
 111 704 111 704 120.5 709.5 c 128,-1,36
 130 715 130 715 146 715 c 2,37,-1
 525 715 l 1,38,-1
 525 625 l 1,39,-1
 199 625 l 1,40,41
 196 598 196 598 190.5 554 c 128,-1,42
 185 510 185 510 179 469 c 1,43,44
 275 528 275 528 383 501 c 0,45,46
 439 486 439 486 476 452.5 c 128,-1,47
 513 419 513 419 531.5 374 c 128,-1,48
 550 329 550 329 552.5 279 c 128,-1,49
 555 229 555 229 544 181 c 0,0,1
EndSplineSet
EndChar
StartChar: six
Encoding: 54 54 23
Width: 587
VWidth: 1494
Flags: W
VStem: 462 78.5<189.766 270 270 320 544 579.334>
Fore
465 522 m 1,0,1
 454 578 454 578 419 608 c 128,-1,2
 384 638 384 638 342 643 c 0,3,4
 283 650 283 650 244 627.5 c 128,-1,5
 205 605 205 605 180 567 c 128,-1,6
 155 529 155 529 143.5 481 c 128,-1,7
 132 433 132 433 127 390 c 1,8,9
 163 444 163 444 223 470 c 128,-1,10
 283 496 283 496 345 489 c 0,11,12
 420 480 420 480 470 432 c 128,-1,13
 520 384 520 384 540.5 320 c 128,-1,14
 561 256 561 256 549 185.5 c 128,-1,15
 537 115 537 115 489 63 c 256,16,17
 441 10 441 10 379.5 -6 c 128,-1,18
 318 -22 318 -22 258.5 -8 c 128,-1,19
 199 6 199 6 148 47 c 128,-1,20
 97 88 97 88 70 152 c 0,21,22
 49 203 49 203 42.5 270.5 c 128,-1,23
 36 338 36 338 44 406 c 128,-1,24
 52 474 52 474 74.5 536 c 128,-1,25
 97 598 97 598 135 640 c 0,26,27
 179 692 179 692 242 713.5 c 128,-1,28
 305 735 305 735 381 719 c 0,29,30
 442 707 442 707 485.5 660.5 c 128,-1,31
 529 614 529 614 541 544 c 1,32,-1
 465 522 l 1,0,1
428 123 m 0,33,34
 450 148 450 148 459 188.5 c 128,-1,35
 468 229 468 229 462 270 c 128,-1,36
 456 311 456 311 434.5 344.5 c 128,-1,37
 413 378 413 378 374 392 c 0,38,39
 327 407 327 407 282.5 397 c 128,-1,40
 238 387 238 387 205 357 c 128,-1,41
 172 327 172 327 157 281 c 128,-1,42
 142 235 142 235 158 178 c 0,43,44
 169 136 169 136 201 109 c 128,-1,45
 233 82 233 82 273.5 73 c 128,-1,46
 314 64 314 64 355 76 c 128,-1,47
 396 88 396 88 428 123 c 0,33,34
EndSplineSet
EndChar
StartChar: seven
Encoding: 55 55 24
Width: 581
VWidth: 1494
Flags: W
HStem: 0 21G<196 290> 532 21G<66.5 127.621> 625 90<144 435>
VStem: 196 88<7.46239 160.818>
Fore
549 682 m 0,0,1
 549 671 549 671 543.5 649.5 c 128,-1,2
 538 628 538 628 522 623 c 1,3,4
 520 608 520 608 519.5 597.5 c 128,-1,5
 519 587 519 587 515 577 c 128,-1,6
 511 567 511 567 503.5 554 c 128,-1,7
 496 541 496 541 483 522 c 0,8,9
 398 411 398 411 347 276 c 128,-1,10
 296 141 296 141 284 0 c 1,11,-1
 196 0 l 1,12,13
 205 81 205 81 225 161.5 c 128,-1,14
 245 242 245 242 272.5 317 c 128,-1,15
 300 392 300 392 335.5 457.5 c 128,-1,16
 371 523 371 523 411 575 c 0,17,18
 428 596 428 596 430.5 602 c 128,-1,19
 433 608 433 608 435 625 c 1,20,-1
 144 625 l 1,21,22
 145 617 145 617 145.5 606.5 c 128,-1,23
 146 596 146 596 149 586 c 2,24,25
 151 574 151 574 154 561 c 1,26,-1
 69 532 l 1,27,28
 64 555 64 555 60.5 577 c 128,-1,29
 57 599 57 599 54 618.5 c 128,-1,30
 51 638 51 638 48.5 651.5 c 128,-1,31
 46 665 46 665 46 668 c 0,32,33
 46 689 46 689 59 702 c 128,-1,34
 72 715 72 715 91 715 c 2,35,-1
 517 715 l 1,36,37
 549 710 549 710 549 682 c 0,0,1
EndSplineSet
EndChar
StartChar: eight
Encoding: 56 56 25
Width: 591
VWidth: 1494
Flags: W
HStem: -19 82<222.012 380.612> 372 91<269.847 328.075> 640 92<251.171 360.944>
VStem: 39 94<150.239 289> 99 95<513.881 590.291> 395 94<495.405 597.645> 454 93<137.012 288.631>
Fore
547 223 m 0,0,1
 547 160 547 160 527 114.5 c 128,-1,2
 507 69 507 69 471.5 39 c 128,-1,3
 436 9 436 9 390.5 -5 c 128,-1,4
 345 -19 345 -19 294 -19 c 256,5,6
 244 -19 244 -19 197.5 -3.5 c 128,-1,7
 151 12 151 12 116 42.5 c 128,-1,8
 81 73 81 73 60 118.5 c 128,-1,9
 39 164 39 164 39 223 c 0,10,11
 39 286 39 286 71 339 c 128,-1,12
 103 392 103 392 160 423 c 1,13,14
 133 447 133 447 116 480.5 c 128,-1,15
 99 514 99 514 99 553 c 256,16,17
 99 592 99 592 114 625 c 128,-1,18
 129 658 129 658 155 682 c 128,-1,19
 181 706 181 706 217 719 c 128,-1,20
 253 732 253 732 294 732 c 0,21,22
 345 732 345 732 382 716 c 128,-1,23
 419 700 419 700 442.5 674.5 c 128,-1,24
 466 649 466 649 477.5 616.5 c 128,-1,25
 489 584 489 584 489 553 c 0,26,27
 489 514 489 514 472.5 481 c 128,-1,28
 456 448 456 448 429 425 c 1,29,30
 486 396 486 396 516.5 338.5 c 128,-1,31
 547 281 547 281 547 223 c 0,0,1
395 553 m 0,32,33
 395 593 395 593 363.5 616.5 c 128,-1,34
 332 640 332 640 294 640 c 0,35,36
 278 640 278 640 260 633 c 128,-1,37
 242 626 242 626 227 615 c 128,-1,38
 212 604 212 604 203 588.5 c 128,-1,39
 194 573 194 573 194 553 c 0,40,41
 194 532 194 532 203 515.5 c 128,-1,42
 212 499 212 499 227 488 c 128,-1,43
 242 477 242 477 259.5 470 c 128,-1,44
 277 463 277 463 294 463 c 0,45,46
 338 463 338 463 366.5 488.5 c 128,-1,47
 395 514 395 514 395 553 c 0,32,33
454 223 m 0,48,49
 454 254 454 254 441.5 281 c 128,-1,50
 429 308 429 308 407.5 328 c 128,-1,51
 386 348 386 348 356.5 360 c 128,-1,52
 327 372 327 372 294 372 c 0,53,54
 260 372 260 372 231 360 c 128,-1,55
 202 348 202 348 180 328 c 128,-1,56
 158 308 158 308 145.5 281 c 128,-1,57
 133 254 133 254 133 223 c 0,58,59
 133 188 133 188 145.5 159 c 128,-1,60
 158 130 158 130 180 109 c 128,-1,61
 202 88 202 88 231 75.5 c 128,-1,62
 260 63 260 63 294 63 c 0,63,64
 365 63 365 63 409.5 107 c 128,-1,65
 454 151 454 151 454 223 c 0,48,49
EndSplineSet
EndChar
StartChar: nine
Encoding: 57 57 26
Width: 550
VWidth: 1494
Flags: W
HStem: 641 88<225.289 311.869>
VStem: 39 90.5<435.296 572.781> 40 78<78.8041 145>
Fore
480 608 m 0,0,1
 505 559 505 559 512.5 486.5 c 128,-1,2
 520 414 520 414 515.5 340 c 128,-1,3
 511 266 511 266 495.5 201 c 128,-1,4
 480 136 480 136 459 100 c 0,5,6
 384 -24 384 -24 227 -9 c 0,7,8
 160 -1 160 -1 110 37.5 c 128,-1,9
 60 76 60 76 40 145 c 1,10,-1
 118 190 l 1,11,12
 129 142 129 142 161.5 110 c 128,-1,13
 194 78 194 78 238 73 c 0,14,15
 287 69 287 69 320.5 86 c 128,-1,16
 354 103 354 103 376.5 134.5 c 128,-1,17
 399 166 399 166 411 206.5 c 128,-1,18
 423 247 423 247 426 287 c 1,19,20
 366 230 366 230 299 222.5 c 128,-1,21
 232 215 232 215 174.5 244.5 c 128,-1,22
 117 274 117 274 78 335 c 128,-1,23
 39 396 39 396 39 480 c 0,24,25
 39 532 39 532 56 579 c 128,-1,26
 73 626 73 626 106 660.5 c 128,-1,27
 139 695 139 695 184 713.5 c 128,-1,28
 229 732 229 732 284 729 c 0,29,30
 420 725 420 725 480 608 c 0,0,1
407 544 m 0,31,32
 402 558 402 558 393 574 c 128,-1,33
 384 590 384 590 369 605 c 128,-1,34
 354 620 354 620 332.5 630.5 c 128,-1,35
 311 641 311 641 280 641 c 0,36,37
 212 643 212 643 175 604 c 128,-1,38
 138 565 138 565 129.5 512 c 128,-1,39
 121 459 121 459 142.5 405 c 128,-1,40
 164 351 164 351 217 326 c 0,41,42
 268 302 268 302 311 315.5 c 128,-1,43
 354 329 354 329 381 363.5 c 128,-1,44
 408 398 408 398 416.5 447 c 128,-1,45
 425 496 425 496 407 544 c 0,31,32
EndSplineSet
EndChar
StartChar: colon
Encoding: 58 58 27
Width: 328
VWidth: 1494
Flags: W
HStem: -3 147<112.659 216.341> 353 146<112.659 216.341>
VStem: 91 147<17.6279 121.31 373.628 476.826>
Fore
238 69 m 256,0,1
 238 37 238 37 217 17 c 128,-1,2
 196 -3 196 -3 164 -3 c 256,3,4
 133 -3 133 -3 112 17 c 128,-1,5
 91 37 91 37 91 69 c 256,6,7
 91 100 91 100 112 122 c 128,-1,8
 133 144 133 144 164 144 c 256,9,10
 196 144 196 144 217 122 c 128,-1,11
 238 100 238 100 238 69 c 256,0,1
238 425 m 256,12,13
 238 393 238 393 217 373 c 128,-1,14
 196 353 196 353 164 353 c 256,15,16
 133 353 133 353 112 373 c 128,-1,17
 91 393 91 393 91 425 c 256,18,19
 91 456 91 456 112 477.5 c 128,-1,20
 133 499 133 499 164 499 c 256,21,22
 196 499 196 499 217 477.5 c 128,-1,23
 238 456 238 456 238 425 c 256,12,13
EndSplineSet
EndChar
StartChar: semicolon
Encoding: 59 59 28
Width: 348
VWidth: 1494
Flags: W
HStem: 353 146<112.659 216.341>
VStem: 91 147<373.628 476.826> 93 163<16.7207 122.502>
Fore
256 63 m 0,0,1
 256 -4 256 -4 221.5 -57.5 c 128,-1,2
 187 -111 187 -111 130 -158 c 1,3,-1
 73 -121 l 1,4,5
 84 -115 84 -115 99 -101 c 128,-1,6
 114 -87 114 -87 128 -70.5 c 128,-1,7
 142 -54 142 -54 154 -36.5 c 128,-1,8
 166 -19 166 -19 170 -7 c 1,9,10
 138 -7 138 -7 115.5 16 c 128,-1,11
 93 39 93 39 93 70 c 256,12,13
 93 102 93 102 116 125.5 c 128,-1,14
 139 149 139 149 172 149 c 0,15,16
 206 149 206 149 231 125.5 c 128,-1,17
 256 102 256 102 256 63 c 0,0,1
238 425 m 256,18,19
 238 393 238 393 217 373 c 128,-1,20
 196 353 196 353 164 353 c 256,21,22
 133 353 133 353 112 373 c 128,-1,23
 91 393 91 393 91 425 c 256,24,25
 91 456 91 456 112 477.5 c 128,-1,26
 133 499 133 499 164 499 c 256,27,28
 196 499 196 499 217 477.5 c 128,-1,29
 238 456 238 456 238 425 c 256,18,19
EndSplineSet
EndChar
StartChar: less
Encoding: 60 60 29
Width: 582
VWidth: 1494
Flags: W
HStem: 21 478<532 532 532 532>
VStem: 49 483<311 499 311 311>
Fore
49 311 m 1,0,-1
 532 499 l 1,1,-1
 532 398 l 1,2,-1
 179 259 l 1,3,-1
 532 123 l 1,4,-1
 532 21 l 1,5,-1
 49 209 l 1,6,-1
 49 311 l 1,0,-1
EndSplineSet
EndChar
StartChar: equal
Encoding: 61 61 30
Width: 677
VWidth: 1494
Flags: W
HStem: 109 102<90 574> 311 102<90 574 90 574 90 90>
Fore
90 311 m 1,0,-1
 90 413 l 1,1,-1
 574 413 l 1,2,-1
 574 311 l 1,3,-1
 90 311 l 1,0,-1
90 109 m 1,4,-1
 90 211 l 1,5,-1
 574 211 l 1,6,-1
 574 109 l 1,7,-1
 90 109 l 1,4,-1
EndSplineSet
EndChar
StartChar: greater
Encoding: 62 62 31
Width: 575
VWidth: 1494
Flags: W
HStem: 21 478<48 48 48 48>
VStem: 48 483<21 209 21 21>
Fore
531 209 m 1,0,-1
 48 21 l 1,1,-1
 48 123 l 1,2,-1
 401 259 l 1,3,-1
 48 398 l 1,4,-1
 48 499 l 1,5,-1
 531 311 l 1,6,-1
 531 209 l 1,0,-1
EndSplineSet
EndChar
StartChar: question
Encoding: 63 63 32
Width: 542
VWidth: 1494
Flags: W
HStem: -1 134<206.081 301.919>
VStem: 187 134<17.0499 112.888> 202 104<161 302.552>
Fore
432 655 m 0,0,1
 460 616 460 616 466 578.5 c 128,-1,2
 472 541 472 541 462.5 506.5 c 128,-1,3
 453 472 453 472 433 441 c 128,-1,4
 413 410 413 410 390 384 c 0,5,6
 357 345 357 345 331.5 308.5 c 128,-1,7
 306 272 306 272 306 224 c 2,8,-1
 306 161 l 1,9,-1
 202 161 l 1,10,-1
 202 224 l 2,11,12
 202 288 202 288 234 335.5 c 128,-1,13
 266 383 266 383 302 423 c 0,14,15
 347 474 347 474 363.5 512 c 128,-1,16
 380 550 380 550 356 593 c 0,17,18
 329 643 329 643 250 637 c 0,19,20
 218 634 218 634 183.5 608.5 c 128,-1,21
 149 583 149 583 138 549 c 1,22,-1
 69 593 l 1,23,24
 87 644 87 644 127 678 c 128,-1,25
 167 712 167 712 226 719 c 0,26,27
 284 728 284 728 341.5 713 c 128,-1,28
 399 698 399 698 432 655 c 0,0,1
321 64 m 256,29,30
 321 34 321 34 302.5 16.5 c 128,-1,31
 284 -1 284 -1 254 -1 c 256,32,33
 224 -1 224 -1 205.5 16.5 c 128,-1,34
 187 34 187 34 187 64 c 256,35,36
 187 94 187 94 205.5 113.5 c 128,-1,37
 224 133 224 133 254 133 c 256,38,39
 284 133 284 133 302.5 113.5 c 128,-1,40
 321 94 321 94 321 64 c 256,29,30
EndSplineSet
EndChar
StartChar: at
Encoding: 64 64 33
Width: 1031
VWidth: 1494
Flags: W
HStem: -10 61.5<662.378 725.281> 457 84<464.661 565.847>
VStem: 78 89<166.924 390.308> 281.5 85<122.111 151 165.5 181.053 181.053 191.454 191.454 246.573>
Fore
952 332 m 0,0,1
 952 291 952 291 942.5 248 c 128,-1,2
 933 205 933 205 914 164 c 128,-1,3
 895 123 895 123 869 87 c 128,-1,4
 843 51 843 51 810 25 c 0,5,6
 786 4 786 4 752.5 -4.5 c 128,-1,7
 719 -13 719 -13 685.5 -10 c 128,-1,8
 652 -7 652 -7 622 9 c 128,-1,9
 592 25 592 25 577 57 c 1,10,11
 577 58 577 58 576 59 c 128,-1,12
 575 60 575 60 575 61 c 1,13,-1
 574 58 l 1,14,15
 535 15 535 15 477.5 3 c 128,-1,16
 420 -9 420 -9 368 19 c 0,17,18
 329 43 329 43 308.5 77.5 c 128,-1,19
 288 112 288 112 281.5 151 c 128,-1,20
 275 190 275 190 279 232 c 128,-1,21
 283 274 283 274 291 314 c 0,22,23
 302 356 302 356 322 396 c 128,-1,24
 342 436 342 436 371.5 468.5 c 128,-1,25
 401 501 401 501 439 521 c 128,-1,26
 477 541 477 541 523 541 c 0,27,28
 553 541 553 541 583 528.5 c 128,-1,29
 613 516 613 516 632 492 c 1,30,-1
 641 535 l 1,31,-1
 731 535 l 1,32,33
 701 390 701 390 681.5 293.5 c 128,-1,34
 662 197 662 197 653 161 c 0,35,36
 646 133 646 133 648 107 c 128,-1,37
 650 81 650 81 662 66 c 128,-1,38
 674 51 674 51 697 51.5 c 128,-1,39
 720 52 720 52 755 78 c 0,40,41
 792 106 792 106 824.5 164.5 c 128,-1,42
 857 223 857 223 866.5 291.5 c 128,-1,43
 876 360 876 360 858 432 c 128,-1,44
 840 504 840 504 779 562 c 0,45,46
 728 610 728 610 667.5 629.5 c 128,-1,47
 607 649 607 649 551 650.5 c 128,-1,48
 495 652 495 652 448 641.5 c 128,-1,49
 401 631 401 631 377 617 c 0,50,51
 360 608 360 608 325 583 c 128,-1,52
 290 558 290 558 255 513 c 128,-1,53
 220 468 220 468 193.5 403.5 c 128,-1,54
 167 339 167 339 167 254 c 0,55,56
 167 187 167 187 188 128.5 c 128,-1,57
 209 70 209 70 245 23 c 128,-1,58
 281 -24 281 -24 331 -57.5 c 128,-1,59
 381 -91 381 -91 439 -106 c 0,60,61
 517 -127 517 -127 595.5 -116 c 128,-1,62
 674 -105 674 -105 773 -57 c 1,63,-1
 776 -142 l 1,64,65
 703 -179 703 -179 626 -192.5 c 128,-1,66
 549 -206 549 -206 473.5 -196.5 c 128,-1,67
 398 -187 398 -187 330 -155 c 128,-1,68
 262 -123 262 -123 206 -67 c 0,69,70
 184 -45 184 -45 161 -10.5 c 128,-1,71
 138 24 138 24 120 66.5 c 128,-1,72
 102 109 102 109 90 157.5 c 128,-1,73
 78 206 78 206 78 257 c 0,74,75
 78 324 78 324 96.5 391.5 c 128,-1,76
 115 459 115 459 150 518 c 128,-1,77
 185 577 185 577 235.5 623.5 c 128,-1,78
 286 670 286 670 348 697 c 0,79,80
 408 720 408 720 473 728.5 c 128,-1,81
 538 737 538 737 602.5 728 c 128,-1,82
 667 719 667 719 726.5 693 c 128,-1,83
 786 667 786 667 834 625 c 0,84,85
 894 568 894 568 923 493.5 c 128,-1,86
 952 419 952 419 952 332 c 0,0,1
602 371 m 0,87,88
 602 407 602 407 580.5 432 c 128,-1,89
 559 457 559 457 523 457 c 0,90,91
 489 457 489 457 461 432 c 128,-1,92
 433 407 433 407 414.5 374.5 c 128,-1,93
 396 342 396 342 385 310 c 128,-1,94
 374 278 374 278 371 265 c 0,95,96
 363 242 363 242 362.5 216 c 128,-1,97
 362 190 362 190 366.5 165.5 c 128,-1,98
 371 141 371 141 381.5 121.5 c 128,-1,99
 392 102 392 102 408 93 c 0,100,101
 436 76 436 76 462.5 82 c 128,-1,102
 489 88 489 88 510 105.5 c 128,-1,103
 531 123 531 123 546 147.5 c 128,-1,104
 561 172 561 172 568 193 c 0,105,106
 583 236 583 236 592.5 281 c 128,-1,107
 602 326 602 326 602 371 c 0,87,88
EndSplineSet
EndChar
StartChar: A
Encoding: 65 65 34
Width: 663
VWidth: 1494
Flags: W
HStem: -18 21G<9 118.488 547.118 655> 185 93<223 439>
Fore
655 0 m 1,0,-1
 555 -18 l 1,1,-1
 475 185 l 1,2,-1
 187 185 l 1,3,-1
 111 -18 l 1,4,-1
 9 0 l 1,5,-1
 281 680 l 2,6,7
 284 689 284 689 295 706 c 128,-1,8
 306 723 306 723 323 732 c 0,9,10
 330 737 330 737 341.5 735.5 c 128,-1,11
 353 734 353 734 364 729.5 c 128,-1,12
 375 725 375 725 385 719 c 128,-1,13
 395 713 395 713 398 709 c 0,14,15
 410 695 410 695 402.5 681.5 c 128,-1,16
 395 668 395 668 392 662 c 1,17,-1
 655 0 l 1,0,-1
330 564 m 1,18,-1
 223 278 l 1,19,-1
 439 278 l 1,20,-1
 330 564 l 1,18,-1
EndSplineSet
EndChar
StartChar: B
Encoding: 66 66 35
Width: 632
VWidth: 1494
Flags: W
HStem: 0 100<200 442.105> 318 99<202 393.886> 608 104<202 408.695>
VStem: 102 100<100 318 417 603.915> 435 100<454.969 588.328> 474 100<131.58 278.826>
Fore
435 520 m 0,0,1
 435 575 435 575 409.5 591.5 c 128,-1,2
 384 608 384 608 326 608 c 2,3,-1
 202 608 l 1,4,-1
 202 417 l 1,5,-1
 315 417 l 2,6,7
 366 417 366 417 400.5 443 c 128,-1,8
 435 469 435 469 435 520 c 0,0,1
474 214 m 0,9,10
 474 272 474 272 432 295 c 128,-1,11
 390 318 390 318 329 318 c 2,12,-1
 200 318 l 1,13,-1
 200 100 l 1,14,-1
 350 100 l 2,15,16
 417 100 417 100 445.5 124 c 128,-1,17
 474 148 474 148 474 214 c 0,9,10
102 589 m 2,18,19
 102 602 102 602 93 612.5 c 128,-1,20
 84 623 84 623 75 632 c 128,-1,21
 66 641 66 641 60 650 c 128,-1,22
 54 659 54 659 58 670 c 0,23,24
 61 677 61 677 68 687.5 c 128,-1,25
 75 698 75 698 84 707 c 128,-1,26
 93 716 93 716 103.5 721 c 128,-1,27
 114 726 114 726 124 722 c 0,28,29
 129 719 129 719 134 717 c 128,-1,30
 139 715 139 715 145 712 c 1,31,-1
 338 712 l 2,32,33
 380 712 380 712 415.5 698.5 c 128,-1,34
 451 685 451 685 478 660 c 128,-1,35
 505 635 505 635 520 601 c 128,-1,36
 535 567 535 567 535 525 c 0,37,38
 535 472 535 472 515.5 436.5 c 128,-1,39
 496 401 496 401 466 380 c 1,40,41
 511 359 511 359 542.5 317 c 128,-1,42
 574 275 574 275 574 215 c 0,43,44
 574 114 574 114 521.5 57 c 128,-1,45
 469 0 469 0 375 0 c 2,46,-1
 102 0 l 1,47,-1
 102 589 l 2,18,19
EndSplineSet
EndChar
StartChar: C
Encoding: 67 67 36
Width: 642
VWidth: 1494
Flags: W
HStem: -8.5 99.5<297.313 334 334 424.985> 616 103.5<332.782 412>
VStem: 55 105<227.148 484.528>
Fore
605 78 m 1,0,1
 570 39 570 39 522.5 19 c 128,-1,2
 475 -1 475 -1 426.5 -7 c 128,-1,3
 378 -13 378 -13 334 -8.5 c 128,-1,4
 290 -4 290 -4 259 7 c 0,5,6
 230 18 230 18 195 40.5 c 128,-1,7
 160 63 160 63 128.5 103.5 c 128,-1,8
 97 144 97 144 76 206 c 128,-1,9
 55 268 55 268 55 356 c 256,10,11
 55 444 55 444 76 505.5 c 128,-1,12
 97 567 97 567 128.5 607 c 128,-1,13
 160 647 160 647 195 669.5 c 128,-1,14
 230 692 230 692 259 703 c 0,15,16
 296 716 296 716 338.5 719.5 c 128,-1,17
 381 723 381 723 424.5 716.5 c 128,-1,18
 468 710 468 710 509 692 c 128,-1,19
 550 674 550 674 581 644 c 1,20,-1
 577 632 l 2,21,22
 573 623 573 623 564 604.5 c 128,-1,23
 555 586 555 586 538 552 c 1,24,25
 496 589 496 589 453 602.5 c 128,-1,26
 410 616 410 616 375 616 c 0,27,28
 335 616 335 616 296 604 c 0,29,30
 232 581 232 581 196 515.5 c 128,-1,31
 160 450 160 450 160 356 c 256,32,33
 160 262 160 262 196 196 c 128,-1,34
 232 130 232 130 296 106 c 0,35,36
 338 93 338 93 381 91 c 0,37,38
 419 90 419 90 460.5 102 c 128,-1,39
 502 114 502 114 540 152 c 1,40,-1
 605 78 l 1,0,1
EndSplineSet
EndChar
StartChar: D
Encoding: 68 68 37
Width: 677
VWidth: 1494
Flags: W
HStem: 0 102<194 422.268> 610 100<194 398.85>
VStem: 94 100<102 603.915> 528 104<223.886 481.016>
Fore
528 356 m 0,0,1
 528 610 528 610 278 610 c 2,2,-1
 194 610 l 1,3,-1
 194 102 l 1,4,-1
 312 102 l 2,5,6
 429 102 429 102 478.5 170 c 128,-1,7
 528 238 528 238 528 356 c 0,0,1
300 710 m 2,8,9
 466 710 466 710 549 616 c 128,-1,10
 632 522 632 522 632 356 c 0,11,12
 632 184 632 184 547 92 c 128,-1,13
 462 0 462 0 300 0 c 2,14,-1
 94 0 l 1,15,-1
 94 589 l 2,16,17
 94 602 94 602 85 612.5 c 128,-1,18
 76 623 76 623 67 632 c 128,-1,19
 58 641 58 641 52 650 c 128,-1,20
 46 659 46 659 51 670 c 0,21,22
 54 677 54 677 60.5 687.5 c 128,-1,23
 67 698 67 698 76 707 c 128,-1,24
 85 716 85 716 95.5 721 c 128,-1,25
 106 726 106 726 117 722 c 0,26,27
 121 719 121 719 126.5 716 c 128,-1,28
 132 713 132 713 138 710 c 1,29,-1
 300 710 l 2,8,9
EndSplineSet
EndChar
StartChar: E
Encoding: 69 69 38
Width: 563
VWidth: 1494
Flags: W
HStem: 0 100<182 478> 318 102<182 448> 610 102<182 480>
VStem: 81 101<100 318 420 603.915>
Fore
81 589 m 2,0,1
 81 602 81 602 72 612.5 c 128,-1,2
 63 623 63 623 54 632 c 128,-1,3
 45 641 45 641 39 650 c 128,-1,4
 33 659 33 659 37 670 c 0,5,6
 40 677 40 677 47 687.5 c 128,-1,7
 54 698 54 698 63 707 c 128,-1,8
 72 716 72 716 82.5 721 c 128,-1,9
 93 726 93 726 103 722 c 0,10,11
 108 719 108 719 113 717 c 128,-1,12
 118 715 118 715 124 712 c 1,13,-1
 480 712 l 1,14,-1
 480 610 l 1,15,-1
 182 610 l 1,16,-1
 182 420 l 1,17,-1
 448 420 l 1,18,-1
 448 318 l 1,19,-1
 182 318 l 1,20,-1
 182 100 l 1,21,-1
 478 100 l 1,22,-1
 478 0 l 1,23,-1
 81 0 l 1,24,-1
 81 589 l 2,0,1
EndSplineSet
EndChar
StartChar: F
Encoding: 70 70 39
Width: 532
VWidth: 1494
Flags: W
HStem: 0 21G<85 187> 320 100<188 454> 611 99<188 483>
VStem: 85 102<0 320 420 601.915>
Fore
85 587 m 2,0,1
 85 600 85 600 76 610.5 c 128,-1,2
 67 621 67 621 58 630 c 128,-1,3
 49 639 49 639 43 648 c 128,-1,4
 37 657 37 657 42 668 c 0,5,6
 45 675 45 675 51.5 685.5 c 128,-1,7
 58 696 58 696 67 705 c 128,-1,8
 76 714 76 714 86.5 719 c 0,9,10
 100.466 725.65 100.466 725.65 108 720 c 0,11,12
 112 717 112 717 117.5 715 c 128,-1,13
 123 713 123 713 129 710 c 1,14,-1
 483 710 l 1,15,-1
 483 611 l 1,16,-1
 188 611 l 1,17,-1
 188 420 l 1,18,-1
 454 420 l 1,19,-1
 454 320 l 1,20,-1
 187 320 l 1,21,-1
 187 0 l 1,22,-1
 85 0 l 1,23,-1
 85 587 l 2,0,1
EndSplineSet
EndChar
StartChar: G
Encoding: 71 71 40
Width: 686
VWidth: 1494
Flags: W
HStem: -12 102<277.13 441.394> 284 103<342 495> 625 101<268.071 366.042 362.635 369.45 369.45 380.5 394.5 424.282>
VStem: 67 103<257.01 451.46> 495 95<115 283.847>
Fore
532 387 m 1,0,1
 550 404 550 404 565 405 c 0,2,3
 575 407 575 407 585 401 c 128,-1,4
 595 395 595 395 603 386 c 128,-1,5
 611 377 611 377 617 367 c 128,-1,6
 623 357 623 357 626 351 c 0,7,8
 631 339 631 339 625.5 331.5 c 128,-1,9
 620 324 620 324 612 316 c 128,-1,10
 604 308 604 308 597 299.5 c 128,-1,11
 590 291 590 291 590 278 c 2,12,-1
 590 40 l 1,13,14
 528 13 528 13 470.5 0.5 c 128,-1,15
 413 -12 413 -12 345 -12 c 0,16,17
 272 -12 272 -12 219 18.5 c 128,-1,18
 166 49 166 49 132.5 100 c 128,-1,19
 99 151 99 151 83 217.5 c 128,-1,20
 67 284 67 284 67 357 c 0,21,22
 67 425 67 425 84.5 490.5 c 128,-1,23
 102 556 102 556 137 608.5 c 128,-1,24
 172 661 172 661 223.5 693.5 c 128,-1,25
 275 726 275 726 345 726 c 0,26,27
 360 726 360 726 394.5 723 c 128,-1,28
 429 720 429 720 467 704 c 128,-1,29
 505 688 505 688 540 652 c 128,-1,30
 575 616 575 616 592 552 c 1,31,-1
 496 517 l 1,32,33
 487 556 487 556 467.5 577.5 c 128,-1,34
 448 599 448 599 425 609.5 c 128,-1,35
 402 620 402 620 380.5 622.5 c 128,-1,36
 359 625 359 625 345 625 c 0,37,38
 297 625 297 625 263.5 600 c 128,-1,39
 230 575 230 575 209 537 c 128,-1,40
 188 499 188 499 179 451.5 c 128,-1,41
 170 404 170 404 170 357 c 0,42,43
 170 299 170 299 180.5 249.5 c 128,-1,44
 191 200 191 200 215 165 c 128,-1,45
 239 130 239 130 278 110 c 128,-1,46
 317 90 317 90 374 90 c 0,47,48
 404 90 404 90 433.5 97.5 c 128,-1,49
 463 105 463 105 495 115 c 1,50,-1
 495 284 l 1,51,-1
 342 284 l 1,52,-1
 342 387 l 1,53,-1
 532 387 l 1,0,1
EndSplineSet
EndChar
StartChar: H
Encoding: 72 72 41
Width: 677
VWidth: 1494
Flags: W
HStem: 0 21G<88 188 490 589> 318 102<188 490> 693 20G<88 188 490 589>
VStem: 88 100<0 318 420 713> 490 99<0 318 420 713>
Fore
490 0 m 1,0,-1
 490 318 l 1,1,-1
 188 318 l 1,2,-1
 188 0 l 1,3,-1
 88 0 l 1,4,-1
 88 713 l 1,5,-1
 188 713 l 1,6,-1
 188 420 l 1,7,-1
 490 420 l 1,8,-1
 490 713 l 1,9,-1
 589 713 l 1,10,-1
 589 0 l 1,11,-1
 490 0 l 1,0,-1
EndSplineSet
EndChar
StartChar: I
Encoding: 73 73 42
Width: 273
VWidth: 1494
Flags: W
HStem: 0 713<88 187 88 187 88 88>
VStem: 88 99<0 713>
Fore
88 0 m 1,0,-1
 88 713 l 1,1,-1
 187 713 l 1,2,-1
 187 0 l 1,3,-1
 88 0 l 1,0,-1
EndSplineSet
EndChar
StartChar: J
Encoding: 74 74 43
Width: 449
VWidth: 1494
Flags: W
HStem: 693 20G<248 348>
VStem: 248 100<112.437 176 176 713>
Fore
348 185 m 1,0,1
 342 111 342 111 313 65 c 128,-1,2
 284 19 284 19 239 1.5 c 128,-1,3
 194 -16 194 -16 138 -8.5 c 128,-1,4
 82 -1 82 -1 24 28 c 1,5,-1
 58 124 l 1,6,7
 79 102 79 102 111.5 90.5 c 128,-1,8
 144 79 144 79 174.5 84.5 c 128,-1,9
 205 90 205 90 226.5 111.5 c 128,-1,10
 248 133 248 133 248 176 c 2,11,-1
 248 713 l 1,12,-1
 348 713 l 1,13,-1
 348 185 l 1,0,1
EndSplineSet
EndChar
StartChar: K
Encoding: 75 75 44
Width: 635
VWidth: 1494
Flags: W
HStem: -9 21G<91 193 496.601 629> 693 20<91 193 484.064 577.103>
VStem: 91 102<0 324 417 713>
Fore
516 -9 m 1,0,-1
 193 324 l 1,1,-1
 193 0 l 1,2,-1
 91 0 l 1,3,-1
 91 713 l 1,4,-1
 193 713 l 1,5,-1
 193 417 l 1,6,-1
 504 729 l 1,7,-1
 610 700 l 1,8,-1
 275 371 l 1,9,-1
 629 0 l 1,10,-1
 516 -9 l 1,0,-1
EndSplineSet
EndChar
StartChar: L
Encoding: 76 76 45
Width: 548
VWidth: 1494
Flags: W
HStem: 0 91<200 520> 693 20G<99 200>
VStem: 55 465<31 50.7183 31 91 31 31> 99 101<97.0846 713>
Fore
158 0 m 1,0,1
 151 -7 151 -7 138.5 -12.5 c 128,-1,2
 126 -18 126 -18 121 -21 c 0,3,4
 111 -25 111 -25 100.5 -20 c 128,-1,5
 90 -15 90 -15 81 -6 c 128,-1,6
 72 3 72 3 65 13.5 c 128,-1,7
 58 24 58 24 55 31 c 0,8,9
 51 42 51 42 57 51 c 128,-1,10
 63 60 63 60 72 69 c 128,-1,11
 81 78 81 78 90 88.5 c 128,-1,12
 99 99 99 99 99 112 c 2,13,-1
 99 713 l 1,14,-1
 200 713 l 1,15,-1
 200 91 l 1,16,-1
 520 91 l 1,17,-1
 520 0 l 1,18,-1
 158 0 l 1,0,1
EndSplineSet
EndChar
StartChar: M
Encoding: 77 77 46
Width: 985
VWidth: 1494
Flags: W
HStem: -15 21G<33 136.03 849.932 952>
Fore
543 34 m 1,0,1
 547 18 547 18 547 19 c 1,2,3
 547 18 547 18 546 18 c 1,4,5
 547 4 547 4 535 -5.5 c 128,-1,6
 523 -15 523 -15 506.5 -19.5 c 128,-1,7
 490 -24 490 -24 475 -20 c 128,-1,8
 460 -16 460 -16 459 -3 c 1,9,-1
 239 516 l 1,10,-1
 132 -15 l 1,11,-1
 33 1 l 1,12,-1
 172 647 l 1,13,14
 160 664 160 664 153 675 c 128,-1,15
 146 686 146 686 154 700 c 1,16,17
 158 704 158 704 168 711 c 128,-1,18
 178 718 178 718 190 723 c 128,-1,19
 202 728 202 728 212.5 730 c 128,-1,20
 223 732 223 732 230 729 c 0,21,22
 247 722 247 722 260.5 704 c 128,-1,23
 274 686 274 686 277 676 c 2,24,-1
 493 160 l 1,25,-1
 709 676 l 2,26,27
 712 686 712 686 725 704 c 128,-1,28
 738 722 738 722 755 729 c 0,29,30
 761 732 761 732 772 730 c 128,-1,31
 783 728 783 728 795 723 c 128,-1,32
 807 718 807 718 817 711 c 128,-1,33
 827 704 827 704 831 700 c 1,34,35
 839 686 839 686 832 675 c 128,-1,36
 825 664 825 664 813 647 c 1,37,-1
 952 1 l 1,38,-1
 854 -15 l 1,39,-1
 746 516 l 1,40,-1
 543 34 l 1,0,1
EndSplineSet
EndChar
StartChar: N
Encoding: 78 78 47
Width: 708
VWidth: 1494
Flags: W
HStem: 0 21G<97 197 515.195 611> 690 20G<511 611>
VStem: 97 100<0 481> 511 100<209 710>
Fore
191 673 m 0,0,1
 229 620 229 620 283.5 541.5 c 128,-1,2
 338 463 338 463 389 389 c 0,3,4
 448 302 448 302 511 209 c 1,5,-1
 511 710 l 1,6,-1
 611 710 l 1,7,-1
 611 0 l 1,8,-1
 529 0 l 1,9,-1
 197 481 l 1,10,-1
 197 0 l 1,11,-1
 97 0 l 1,12,-1
 97 596 l 2,13,14
 97 610 97 610 89.5 620.5 c 128,-1,15
 82 631 82 631 74 641.5 c 128,-1,16
 66 652 66 652 61.5 661.5 c 128,-1,17
 57 671 57 671 61 680 c 0,18,19
 70 697 70 697 91 711.5 c 128,-1,20
 112 726 112 726 133 723 c 0,21,22
 149 720 149 720 164 707 c 128,-1,23
 179 694 179 694 191 673 c 0,0,1
EndSplineSet
EndChar
StartChar: O
Encoding: 79 79 48
Width: 695
VWidth: 1494
Flags: W
HStem: -13 98<264.914 429.126> 628 98<263.96 429.763>
VStem: 58 100<264.166 450.456> 535 102<260.176 450.706>
Fore
637 357 m 0,0,1
 637 272 637 272 616.5 203.5 c 128,-1,2
 596 135 596 135 559 86 c 128,-1,3
 522 37 522 37 469 12 c 128,-1,4
 416 -13 416 -13 348 -13 c 0,5,6
 272 -13 272 -13 217.5 17.5 c 128,-1,7
 163 48 163 48 127 99.5 c 128,-1,8
 91 151 91 151 74.5 218.5 c 128,-1,9
 58 286 58 286 58 357 c 0,10,11
 58 425 58 425 74 490.5 c 128,-1,12
 90 556 90 556 124 608.5 c 128,-1,13
 158 661 158 661 213.5 693.5 c 128,-1,14
 269 726 269 726 348 726 c 0,15,16
 423 726 423 726 477.5 695 c 128,-1,17
 532 664 532 664 567 612.5 c 128,-1,18
 602 561 602 561 619.5 494.5 c 128,-1,19
 637 428 637 428 637 357 c 0,0,1
535 357 m 0,20,21
 535 399 535 399 525.5 447 c 128,-1,22
 516 495 516 495 494 535 c 128,-1,23
 472 575 472 575 436.5 601.5 c 128,-1,24
 401 628 401 628 348 628 c 256,25,26
 296 628 296 628 260 604 c 128,-1,27
 224 580 224 580 201.5 541 c 128,-1,28
 179 502 179 502 168.5 454.5 c 128,-1,29
 158 407 158 407 158 357 c 0,30,31
 158 314 158 314 168 266 c 128,-1,32
 178 218 178 218 199.5 178 c 128,-1,33
 221 138 221 138 257.5 111.5 c 128,-1,34
 294 85 294 85 348 85 c 0,35,36
 399 85 399 85 435 110.5 c 128,-1,37
 471 136 471 136 493.5 175.5 c 128,-1,38
 516 215 516 215 525.5 263 c 128,-1,39
 535 311 535 311 535 357 c 0,20,21
EndSplineSet
EndChar
StartChar: P
Encoding: 80 80 49
Width: 581
VWidth: 1494
Flags: W
HStem: 0 21G<87 187> 256 100<187 378.289> 608 104<182.16 305.559>
VStem: 87 100<0 256 356 603.915> 445 102<412.144 555.135>
Fore
445 489 m 0,0,1
 445 552 445 552 393 580 c 128,-1,2
 341 608 341 608 247 608 c 0,3,4
 229 608 229 608 208 608 c 128,-1,5
 187 608 187 608 182 605 c 1,6,-1
 182 356 l 1,7,-1
 247 356 l 2,8,9
 347 356 347 356 396 386.5 c 128,-1,10
 445 417 445 417 445 489 c 0,0,1
87 589 m 2,11,12
 87 602 87 602 78 612.5 c 128,-1,13
 69 623 69 623 60 632 c 128,-1,14
 51 641 51 641 45 650 c 128,-1,15
 39 659 39 659 43 670 c 0,16,17
 46 677 46 677 53 687.5 c 128,-1,18
 60 698 60 698 69 707 c 128,-1,19
 78 716 78 716 88.5 721 c 128,-1,20
 99 726 99 726 109 722 c 0,21,22
 114 719 114 719 119 717 c 128,-1,23
 124 715 124 715 130 712 c 1,24,-1
 244 712 l 2,25,26
 303 712 303 712 358 700 c 128,-1,27
 413 688 413 688 454.5 661.5 c 128,-1,28
 496 635 496 635 521.5 592.5 c 128,-1,29
 547 550 547 550 547 489 c 0,30,31
 547 441 547 441 531.5 398.5 c 128,-1,32
 516 356 516 356 480.5 324.5 c 128,-1,33
 445 293 445 293 389 274.5 c 128,-1,34
 333 256 333 256 253 256 c 2,35,-1
 187 256 l 1,36,-1
 187 0 l 1,37,-1
 87 0 l 1,38,-1
 87 589 l 2,11,12
EndSplineSet
EndChar
StartChar: Q
Encoding: 81 81 50
Width: 714
VWidth: 1494
Flags: W
HStem: -12 105<274.213 439.02> 620 105<273.766 440.848>
VStem: 67 106<258.464 452.932> 538 108<219.427 456.441>
Fore
622 -31 m 1,0,-1
 528 46 l 1,1,2
 457 -12 457 -12 357 -12 c 0,3,4
 281 -12 281 -12 226.5 17 c 128,-1,5
 172 46 172 46 136 96 c 128,-1,6
 100 146 100 146 83.5 213.5 c 128,-1,7
 67 281 67 281 67 357 c 256,8,9
 67 433 67 433 84.5 500 c 128,-1,10
 102 567 102 567 137 617 c 128,-1,11
 172 667 172 667 226.5 696 c 128,-1,12
 281 725 281 725 357 725 c 0,13,14
 432 725 432 725 486.5 696 c 128,-1,15
 541 667 541 667 576 617 c 128,-1,16
 611 567 611 567 628.5 499.5 c 128,-1,17
 646 432 646 432 646 357 c 0,18,19
 646 217 646 217 590 120 c 1,20,-1
 685 43 l 1,21,-1
 622 -31 l 1,0,-1
538 357 m 0,22,23
 538 407 538 407 528.5 454.5 c 128,-1,24
 519 502 519 502 498 538.5 c 128,-1,25
 477 575 477 575 442 597.5 c 128,-1,26
 407 620 407 620 357 620 c 0,27,28
 306 620 306 620 271 597 c 128,-1,29
 236 574 236 574 214.5 536.5 c 128,-1,30
 193 499 193 499 183 452 c 128,-1,31
 173 405 173 405 173 357 c 0,32,33
 173 306 173 306 183 258.5 c 128,-1,34
 193 211 193 211 215.5 174.5 c 128,-1,35
 238 138 238 138 273 115.5 c 128,-1,36
 308 93 308 93 357 93 c 0,37,38
 405 93 405 93 444 118 c 1,39,-1
 375 176 l 1,40,-1
 436 250 l 1,41,-1
 505 191 l 1,42,43
 538 262 538 262 538 357 c 0,22,23
EndSplineSet
EndChar
StartChar: R
Encoding: 82 82 51
Width: 623
VWidth: 1494
Flags: W
HStem: -13 21G<87 187 454.989 573> 256 100<187 293> 608 104<182.16 305.559>
VStem: 87 100<0 256 356 603.915> 445 102<411.909 555.135>
Fore
445 489 m 0,0,1
 445 552 445 552 393 580 c 128,-1,2
 341 608 341 608 247 608 c 0,3,4
 229 608 229 608 208 608 c 128,-1,5
 187 608 187 608 182 605 c 1,6,-1
 182 356 l 1,7,-1
 247 356 l 2,8,9
 347 356 347 356 396 386.5 c 128,-1,10
 445 417 445 417 445 489 c 0,0,1
87 589 m 2,11,12
 87 602 87 602 78 612.5 c 128,-1,13
 69 623 69 623 60 632 c 128,-1,14
 51 641 51 641 45 650 c 128,-1,15
 39 659 39 659 43 670 c 0,16,17
 46 677 46 677 53 687.5 c 128,-1,18
 60 698 60 698 69 707 c 128,-1,19
 78 716 78 716 88.5 721 c 128,-1,20
 99 726 99 726 109 722 c 0,21,22
 114 719 114 719 119 717 c 128,-1,23
 124 715 124 715 130 712 c 1,24,-1
 244 712 l 2,25,26
 303 712 303 712 358 700 c 128,-1,27
 413 688 413 688 454.5 661.5 c 128,-1,28
 496 635 496 635 521.5 592.5 c 128,-1,29
 547 550 547 550 547 489 c 0,30,31
 547 441 547 441 533.5 404.5 c 128,-1,32
 520 368 520 368 497.5 342.5 c 128,-1,33
 475 317 475 317 447 300.5 c 128,-1,34
 419 284 419 284 390 275 c 1,35,-1
 573 1 l 1,36,-1
 468 -13 l 1,37,-1
 293 256 l 1,38,-1
 187 256 l 1,39,-1
 187 0 l 1,40,-1
 87 0 l 1,41,-1
 87 589 l 2,11,12
EndSplineSet
EndChar
StartChar: S
Encoding: 83 83 52
Width: 626
VWidth: 1494
Flags: W
HStem: 622 103<248.02 380.819>
VStem: 462 105<121.565 166 166 203.849>
Fore
567 176 m 0,0,1
 564 133 564 133 546 95.5 c 128,-1,2
 528 58 528 58 493.5 31 c 128,-1,3
 459 4 459 4 409 -10.5 c 128,-1,4
 359 -25 359 -25 293 -22 c 0,5,6
 250 -21 250 -21 214.5 -12 c 128,-1,7
 179 -3 179 -3 151.5 10.5 c 128,-1,8
 124 24 124 24 101.5 41 c 128,-1,9
 79 58 79 58 61 76 c 1,10,-1
 135 160 l 1,11,12
 161 135 161 135 197 108 c 128,-1,13
 233 81 233 81 290 76 c 0,14,15
 315 73 315 73 344.5 77.5 c 128,-1,16
 374 82 374 82 398.5 92.5 c 128,-1,17
 423 103 423 103 441 121 c 128,-1,18
 459 139 459 139 462 166 c 0,19,20
 465 188 465 188 458 205.5 c 128,-1,21
 451 223 451 223 431 240 c 128,-1,22
 411 257 411 257 375 273.5 c 128,-1,23
 339 290 339 290 283 311 c 0,24,25
 184 345 184 345 134 394.5 c 128,-1,26
 84 444 84 444 76 507 c 0,27,28
 72 547 72 547 84.5 586.5 c 128,-1,29
 97 626 97 626 125.5 657 c 128,-1,30
 154 688 154 688 199 706.5 c 128,-1,31
 244 725 244 725 305 725 c 0,32,33
 330 725 330 725 361 720.5 c 128,-1,34
 392 716 392 716 422.5 705.5 c 128,-1,35
 453 695 453 695 480.5 677 c 128,-1,36
 508 659 508 659 529 634 c 1,37,-1
 478 550 l 1,38,39
 457 574 457 574 412.5 598 c 128,-1,40
 368 622 368 622 308 622 c 0,41,42
 274 622 274 622 250.5 613 c 128,-1,43
 227 604 227 604 212 591 c 128,-1,44
 197 578 197 578 191 565 c 128,-1,45
 185 552 185 552 184 543 c 0,46,47
 176 499 176 499 207 467.5 c 128,-1,48
 238 436 238 436 324 407 c 0,49,50
 371 390 371 390 416.5 370 c 128,-1,51
 462 350 462 350 496.5 323 c 128,-1,52
 531 296 531 296 550.5 260 c 128,-1,53
 570 224 570 224 567 176 c 0,0,1
EndSplineSet
EndChar
StartChar: T
Encoding: 84 84 53
Width: 581
VWidth: 1494
Flags: W
HStem: 0 21G<233 333> 614 99<51.6715 233 333 518.812>
VStem: 233 100<0 614>
Fore
61 614 m 2,0,1
 57 614 57 614 51.5 615 c 128,-1,2
 46 616 46 616 40 620.5 c 128,-1,3
 34 625 34 625 29 634.5 c 128,-1,4
 24 644 24 644 21 662 c 0,5,6
 16 694 16 694 32 704.5 c 128,-1,7
 48 715 48 715 69 713 c 2,8,-1
 504 713 l 2,9,10
 525 715 525 715 539 704.5 c 128,-1,11
 553 694 553 694 549 662 c 0,12,13
 546 643 546 643 541.5 633 c 128,-1,14
 537 623 537 623 531 619.5 c 128,-1,15
 525 616 525 616 519 615 c 128,-1,16
 513 614 513 614 507 614 c 2,17,-1
 333 614 l 1,18,-1
 333 0 l 1,19,-1
 233 0 l 1,20,-1
 233 614 l 1,21,-1
 61 614 l 2,0,1
EndSplineSet
EndChar
StartChar: U
Encoding: 85 85 54
Width: 736
VWidth: 1494
Flags: W
HStem: -12 91<268.484 473.599> 693 20G<97 196 543 641>
VStem: 97 99<143.025 713> 543 98<141.719 226 226 713>
Fore
641 236 m 1,0,1
 641 176 641 176 620 130 c 128,-1,2
 599 84 599 84 563.5 52.5 c 128,-1,3
 528 21 528 21 478.5 4.5 c 128,-1,4
 429 -12 429 -12 372 -12 c 0,5,6
 312 -12 312 -12 261.5 3 c 128,-1,7
 211 18 211 18 174.5 48.5 c 128,-1,8
 138 79 138 79 117.5 126 c 128,-1,9
 97 173 97 173 97 236 c 2,10,-1
 97 713 l 1,11,-1
 196 713 l 1,12,-1
 196 226 l 2,13,14
 196 149 196 149 246 114 c 128,-1,15
 296 79 296 79 372 79 c 256,16,17
 448 79 448 79 495.5 114 c 128,-1,18
 543 149 543 149 543 226 c 2,19,-1
 543 713 l 1,20,-1
 641 713 l 1,21,-1
 641 236 l 1,0,1
EndSplineSet
EndChar
StartChar: V
Encoding: 86 86 55
Width: 695
VWidth: 1494
Flags: W
HStem: 706 20G<24 131.793 562.414 670>
Fore
24 709 m 1,0,-1
 124 726 l 1,1,-1
 350 146 l 1,2,-1
 570 726 l 1,3,-1
 670 709 l 1,4,-1
 398 24 l 2,5,6
 395 13 395 13 381.5 -4 c 128,-1,7
 368 -21 368 -21 351 -28 c 0,8,9
 344 -31 344 -31 333.5 -29 c 128,-1,10
 323 -27 323 -27 311 -21.5 c 128,-1,11
 299 -16 299 -16 289.5 -9.5 c 128,-1,12
 280 -3 280 -3 275 1 c 1,13,14
 268 13 268 13 274 23.5 c 128,-1,15
 280 34 280 34 290 49 c 1,16,-1
 24 709 l 1,0,-1
EndSplineSet
EndChar
StartChar: W
Encoding: 87 87 56
Width: 985
VWidth: 1494
Flags: W
HStem: 700 20G<33 136.038 849.924 952>
Fore
746 190 m 1,0,-1
 854 720 l 1,1,-1
 952 704 l 1,2,-1
 813 58 l 1,3,4
 825 42 825 42 832 30.5 c 128,-1,5
 839 19 839 19 831 6 c 1,6,7
 827 1 827 1 817 -5.5 c 128,-1,8
 807 -12 807 -12 795 -17 c 128,-1,9
 783 -22 783 -22 772 -24.5 c 128,-1,10
 761 -27 761 -27 755 -24 c 0,11,12
 738 -16 738 -16 725 1.5 c 128,-1,13
 712 19 712 19 709 30 c 2,14,-1
 493 546 l 1,15,-1
 277 30 l 2,16,17
 274 19 274 19 260.5 1.5 c 128,-1,18
 247 -16 247 -16 230 -24 c 0,19,20
 223 -27 223 -27 212.5 -24.5 c 128,-1,21
 202 -22 202 -22 190 -17 c 128,-1,22
 178 -12 178 -12 168 -5.5 c 128,-1,23
 158 1 158 1 154 6 c 1,24,25
 146 19 146 19 153 30.5 c 128,-1,26
 160 42 160 42 172 58 c 1,27,-1
 33 704 l 1,28,-1
 132 720 l 1,29,-1
 239 190 l 1,30,-1
 459 709 l 1,31,32
 460 722 460 722 475 725.5 c 128,-1,33
 490 729 490 729 506.5 724.5 c 128,-1,34
 523 720 523 720 535 710.5 c 128,-1,35
 547 701 547 701 546 688 c 1,36,37
 547 688 547 688 547 686 c 256,38,39
 547 685 547 685 543 671 c 1,40,-1
 746 190 l 1,0,-1
EndSplineSet
EndChar
StartChar: X
Encoding: 88 88 57
Width: 659
VWidth: 1494
Flags: W
HStem: -9 21G<40.5714 145.333 517.865 621.476> 699 20G<60 173.714 492.09 604>
Fore
531 -9 m 1,0,-1
 332 294 l 1,1,-1
 132 -6 l 1,2,-1
 36 15 l 1,3,-1
 283 378 l 1,4,-1
 60 700 l 1,5,-1
 161 719 l 1,6,-1
 332 450 l 1,7,-1
 505 718 l 1,8,-1
 604 700 l 1,9,-1
 378 368 l 1,10,-1
 626 12 l 1,11,-1
 531 -9 l 1,0,-1
EndSplineSet
EndChar
StartChar: Y
Encoding: 89 89 58
Width: 597
VWidth: 1494
Flags: W
HStem: 0 21G<248 345> 708 20G<21 125.447 469.291 574>
VStem: 248 97<0 335>
Fore
574 709 m 1,0,-1
 564.5 692.5 l 2,1,2
 555 676 555 676 538.5 649.5 c 128,-1,3
 522 623 522 623 501 589.5 c 128,-1,4
 480 556 480 556 459 522 c 0,5,6
 410 439 410 439 345 335 c 1,7,-1
 345 0 l 1,8,-1
 248 0 l 1,9,-1
 248 335 l 1,10,11
 184 439 184 439 135 522 c 0,12,13
 114 558 114 558 93 591.5 c 128,-1,14
 72 625 72 625 56 651 c 128,-1,15
 40 677 40 677 31 693 c 128,-1,16
 22 709 22 709 21 710 c 1,17,-1
 114 728 l 1,18,-1
 296 410 l 1,19,-1
 481 726 l 1,20,-1
 574 709 l 1,0,-1
EndSplineSet
EndChar
StartChar: Z
Encoding: 90 90 59
Width: 606
VWidth: 1494
Flags: W
HStem: 0 97<199 568> 613 97<40 405>
Fore
40 613 m 1,0,-1
 40 710 l 1,1,-1
 481 710 l 1,2,3
 487 713 487 713 497.5 718 c 128,-1,4
 508 723 508 723 513 726 c 1,5,6
 534 734 534 734 549 718.5 c 128,-1,7
 564 703 564 703 577 673 c 0,8,9
 581 662 581 662 575.5 652.5 c 128,-1,10
 570 643 570 643 559.5 633 c 128,-1,11
 549 623 549 623 537 613.5 c 128,-1,12
 525 604 525 604 517 592 c 2,13,-1
 199 97 l 1,14,-1
 568 97 l 1,15,-1
 568 0 l 1,16,-1
 123 0 l 1,17,18
 117 -3 117 -3 106.5 -8 c 128,-1,19
 96 -13 96 -13 91 -16 c 1,20,21
 70 -24 70 -24 55 -8.5 c 128,-1,22
 40 7 40 7 27 37 c 0,23,24
 22 48 22 48 28 57.5 c 128,-1,25
 34 67 34 67 44.5 77 c 128,-1,26
 55 87 55 87 67 96.5 c 128,-1,27
 79 106 79 106 87 118 c 2,28,-1
 405 613 l 1,29,-1
 40 613 l 1,0,-1
EndSplineSet
EndChar
StartChar: bracketleft
Encoding: 91 91 60
Width: 366
VWidth: 1494
Flags: W
HStem: -138 95<164 280> -138 881<73 164 73 280 73 73> 647 96<164 280>
VStem: 73 91<-43 647>
Fore
73 -138 m 1,0,-1
 73 743 l 1,1,-1
 280 743 l 1,2,-1
 280 647 l 1,3,-1
 164 647 l 1,4,-1
 164 -43 l 1,5,-1
 280 -43 l 1,6,-1
 280 -138 l 1,7,-1
 73 -138 l 1,0,-1
EndSplineSet
EndChar
StartChar: backslash
Encoding: 92 92 61
Width: 336
VWidth: 1494
Flags: W
VStem: -21 380<-25 743 743 743>
Fore
269 -25 m 1,0,-1
 -21 743 l 1,1,-1
 69 743 l 1,2,-1
 359 -25 l 1,3,-1
 269 -25 l 1,0,-1
EndSplineSet
EndChar
StartChar: bracketright
Encoding: 93 93 62
Width: 367
VWidth: 1494
Flags: W
HStem: -138 95<87 202> 647 96<87 202>
VStem: 202 91<-43 647>
Fore
87 -138 m 1,0,-1
 87 -43 l 1,1,-1
 202 -43 l 1,2,-1
 202 647 l 1,3,-1
 87 647 l 1,4,-1
 87 743 l 1,5,-1
 293 743 l 1,6,-1
 293 -138 l 1,7,-1
 87 -138 l 1,0,-1
EndSplineSet
EndChar
StartChar: asciicircum
Encoding: 94 94 63
Width: 599
VWidth: 1494
Flags: W
HStem: 318 380<238 410 238 238>
VStem: 81 435<318 318 318 318>
Fore
410 318 m 1,0,-1
 297 589 l 1,1,-1
 187 318 l 1,2,-1
 81 318 l 1,3,-1
 238 698 l 1,4,-1
 359 698 l 1,5,-1
 516 318 l 1,6,-1
 410 318 l 1,0,-1
EndSplineSet
EndChar
StartChar: underscore
Encoding: 95 95 64
Width: 556
VWidth: 1494
Flags: W
HStem: -149 74<0 556>
Fore
0 -149 m 1,0,-1
 0 -75 l 1,1,-1
 556 -75 l 1,2,-1
 556 -149 l 1,3,-1
 0 -149 l 1,0,-1
EndSplineSet
EndChar
StartChar: grave
Encoding: 96 96 65
Width: 322
VWidth: 1494
Flags: W
HStem: 577 157<34 271 34 34>
Fore
271 577 m 1,0,-1
 184 577 l 1,1,-1
 34 734 l 1,2,-1
 173 732 l 1,3,-1
 271 577 l 1,0,-1
EndSplineSet
EndChar
StartChar: a
Encoding: 97 97 66
Width: 605
VWidth: 1494
Flags: W
HStem: -9 88<214.209 336.011> 438 90<215.709 350.545>
VStem: 52 92<193.023 326.723> 431 94<13.438 43 177.875 338.156 466 522>
Fore
429 286 m 2,0,1
 426 312 426 312 415.5 339 c 128,-1,2
 405 366 405 366 388 388 c 128,-1,3
 371 410 371 410 344.5 424 c 128,-1,4
 318 438 318 438 284 438 c 0,5,6
 245 438 245 438 218 420 c 128,-1,7
 191 402 191 402 174.5 375 c 128,-1,8
 158 348 158 348 151 317 c 128,-1,9
 144 286 144 286 144 259 c 0,10,11
 144 236 144 236 150.5 204.5 c 128,-1,12
 157 173 157 173 172.5 145.5 c 128,-1,13
 188 118 188 118 215 98.5 c 128,-1,14
 242 79 242 79 284 79 c 0,15,16
 317 79 317 79 343 92.5 c 128,-1,17
 369 106 369 106 387 127.5 c 128,-1,18
 405 149 405 149 415.5 177 c 128,-1,19
 426 205 426 205 429 233 c 2,20,-1
 429 286 l 2,0,1
435 43 m 1,21,22
 405 15 405 15 367 3 c 128,-1,23
 329 -9 329 -9 284 -9 c 0,24,25
 224 -9 224 -9 181 15 c 128,-1,26
 138 39 138 39 109.5 77 c 128,-1,27
 81 115 81 115 66.5 163 c 128,-1,28
 52 211 52 211 52 259 c 0,29,30
 52 308 52 308 66.5 356 c 128,-1,31
 81 404 81 404 109.5 442 c 128,-1,32
 138 480 138 480 181 504 c 128,-1,33
 224 528 224 528 284 528 c 0,34,35
 327 528 327 528 364.5 510.5 c 128,-1,36
 402 493 402 493 431 466 c 1,37,-1
 431 522 l 1,38,-1
 525 522 l 1,39,-1
 525 123 l 2,40,41
 525 78 525 78 530 56 c 128,-1,42
 535 34 535 34 547 9 c 1,43,-1
 460 -21 l 1,44,45
 450 -1 450 -1 444 13 c 128,-1,46
 438 27 438 27 435 43 c 1,21,22
EndSplineSet
Substitution2: "Single Substitution lookup 22 subtable" uni0E38
Substitution2: "Single Substitution lookup 22 subtable" uni0E38
EndChar
StartChar: b
Encoding: 98 98 67
Width: 602
VWidth: 1494
Flags: W
HStem: -6 90<259.005 396.033> 441 88<260.388 396.033>
VStem: 63 495<18 263 -245 18> 85 93<175.844 334.641 468 731> 466 92<195.422 329.609>
Fore
176 52 m 1,0,1
 173 36 173 36 166.5 21.5 c 128,-1,2
 160 7 160 7 149 -12 c 1,3,-1
 63 18 l 1,4,5
 75 43 75 43 80 65 c 128,-1,6
 85 87 85 87 85 132 c 2,7,-1
 85 731 l 1,8,-1
 178 731 l 1,9,-1
 178 468 l 1,10,11
 208 495 208 495 245.5 512 c 128,-1,12
 283 529 283 529 326 529 c 0,13,14
 386 529 386 529 429 506 c 128,-1,15
 472 483 472 483 500.5 445 c 128,-1,16
 529 407 529 407 543.5 359 c 128,-1,17
 558 311 558 311 558 263 c 0,18,19
 558 214 558 214 543.5 166 c 128,-1,20
 529 118 529 118 500.5 80 c 128,-1,21
 472 42 472 42 429 18 c 128,-1,22
 386 -6 386 -6 326 -6 c 0,23,24
 239 -6 239 -6 176 52 c 1,0,1
466 263 m 0,25,26
 466 286 466 286 460 316.5 c 128,-1,27
 454 347 454 347 438.5 374.5 c 128,-1,28
 423 402 423 402 395.5 421.5 c 128,-1,29
 368 441 368 441 326 441 c 0,30,31
 291 441 291 441 265 426 c 128,-1,32
 239 411 239 411 222 387 c 128,-1,33
 205 363 205 363 194.5 335.5 c 128,-1,34
 184 308 184 308 181 281 c 2,35,-1
 181 230 l 2,36,37
 184 202 184 202 195 175 c 128,-1,38
 206 148 206 148 224 128 c 128,-1,39
 242 108 242 108 267.5 96 c 128,-1,40
 293 84 293 84 326 84 c 0,41,42
 368 84 368 84 395.5 103.5 c 128,-1,43
 423 123 423 123 438.5 150.5 c 128,-1,44
 454 178 454 178 460 208.5 c 128,-1,45
 466 239 466 239 466 263 c 0,25,26
EndSplineSet
Substitution2: "Single Substitution lookup 22 subtable" uni0E39
Substitution2: "Single Substitution lookup 22 subtable" uni0E39
EndChar
StartChar: c
Encoding: 99 99 68
Width: 487
VWidth: 1494
Flags: W
VStem: 42 91<157.08 365.106>
Fore
441 49 m 2,0,1
 389 1 389 1 319.5 -9 c 128,-1,2
 250 -19 250 -19 188.5 7 c 128,-1,3
 127 33 127 33 84.5 96.5 c 128,-1,4
 42 160 42 160 42 262 c 0,5,6
 42 362 42 362 83 426 c 128,-1,7
 124 490 124 490 184.5 516.5 c 128,-1,8
 245 543 245 543 314 531 c 128,-1,9
 383 519 383 519 439 468 c 1,10,-1
 398 378 l 1,11,12
 360 426 360 426 314 438 c 128,-1,13
 268 450 268 450 233 438 c 0,14,15
 185 420 185 420 159 373.5 c 128,-1,16
 133 327 133 327 133 262 c 0,17,18
 133 194 133 194 159 148.5 c 128,-1,19
 185 103 185 103 233 87 c 0,20,21
 248 81 248 81 268 78.5 c 128,-1,22
 288 76 288 76 310.5 80.5 c 128,-1,23
 333 85 333 85 355.5 97 c 128,-1,24
 378 109 378 109 396 132 c 1,25,-1
 456 63 l 1,26,-1
 441 49 l 2,0,1
EndSplineSet
Substitution2: "Single Substitution lookup 22 subtable" uni0E3A
Substitution2: "Single Substitution lookup 22 subtable" uni0E3A
EndChar
StartChar: d
Encoding: 100 100 69
Width: 602
VWidth: 1494
Flags: W
HStem: -6 90<211.851 336.186> 441 88<211.851 347.515>
VStem: 51 91<195.422 329.609> 431 92<175.844 334.641 468 731>
Fore
523 132 m 2,0,1
 523 87 523 87 528.5 65 c 128,-1,2
 534 43 534 43 546 18 c 1,3,-1
 459 -12 l 1,4,5
 448 7 448 7 441.5 20.5 c 128,-1,6
 435 34 435 34 432 51 c 1,7,8
 371 -6 371 -6 283 -6 c 0,9,10
 223 -6 223 -6 179.5 18 c 128,-1,11
 136 42 136 42 107.5 80 c 128,-1,12
 79 118 79 118 65 166 c 128,-1,13
 51 214 51 214 51 263 c 0,14,15
 51 311 51 311 65 359 c 128,-1,16
 79 407 79 407 107.5 445 c 128,-1,17
 136 483 136 483 179.5 506 c 128,-1,18
 223 529 223 529 283 529 c 0,19,20
 326 529 326 529 363.5 512 c 128,-1,21
 401 495 401 495 431 468 c 1,22,-1
 431 731 l 1,23,-1
 523 731 l 1,24,-1
 523 132 l 2,0,1
142 263 m 0,25,26
 142 239 142 239 148 208.5 c 128,-1,27
 154 178 154 178 169.5 150.5 c 128,-1,28
 185 123 185 123 213 103.5 c 128,-1,29
 241 84 241 84 283 84 c 0,30,31
 315 84 315 84 340.5 96 c 128,-1,32
 366 108 366 108 384 128 c 128,-1,33
 402 148 402 148 413.5 175 c 128,-1,34
 425 202 425 202 428 230 c 2,35,-1
 428 281 l 2,36,37
 425 308 425 308 414.5 335.5 c 128,-1,38
 404 363 404 363 386.5 387 c 128,-1,39
 369 411 369 411 343 426 c 128,-1,40
 317 441 317 441 283 441 c 0,41,42
 241 441 241 441 213 421.5 c 128,-1,43
 185 402 185 402 169.5 374.5 c 128,-1,44
 154 347 154 347 148 316.5 c 128,-1,45
 142 286 142 286 142 263 c 0,25,26
EndSplineSet
EndChar
StartChar: e
Encoding: 101 101 70
Width: 584
VWidth: 1494
Flags: W
HStem: 218 88<154 438> 444 84<227.691 374.01>
VStem: 49 486<229.863 300.75>
Fore
535 269 m 2,0,1
 535 241 535 241 520 229.5 c 128,-1,2
 505 218 505 218 475 218 c 2,3,-1
 151 218 l 1,4,5
 157 166 157 166 185.5 132.5 c 128,-1,6
 214 99 214 99 248 85 c 0,7,8
 288 69 288 69 331 77 c 128,-1,9
 374 85 374 85 426 120 c 1,10,-1
 483 49 l 1,11,12
 463 31 463 31 429.5 16 c 128,-1,13
 396 1 396 1 355.5 -4.5 c 128,-1,14
 315 -10 315 -10 273.5 -7 c 128,-1,15
 232 -4 232 -4 196 13 c 0,16,17
 126 46 126 46 87.5 109.5 c 128,-1,18
 49 173 49 173 49 259 c 0,19,20
 49 299 49 299 62.5 346 c 128,-1,21
 76 393 76 393 106 433.5 c 128,-1,22
 136 474 136 474 184 501 c 128,-1,23
 232 528 232 528 300 528 c 0,24,25
 398 528 398 528 459 469 c 0,26,27
 481 447 481 447 496 420 c 128,-1,28
 511 393 511 393 520 366 c 128,-1,29
 529 339 529 339 532 315 c 128,-1,30
 535 291 535 291 535 274 c 2,31,-1
 535 269 l 2,0,1
438 306 m 1,32,33
 438 362 438 362 398.5 403 c 128,-1,34
 359 444 359 444 297 444 c 0,35,36
 259 444 259 444 233.5 430 c 128,-1,37
 208 416 208 416 190.5 394 c 128,-1,38
 173 372 173 372 165 348 c 128,-1,39
 157 324 157 324 154 306 c 1,40,-1
 438 306 l 1,32,33
EndSplineSet
EndChar
StartChar: f
Encoding: 102 102 71
Width: 334
VWidth: 1494
Flags: W
HStem: 445 77<33 109 200 308> 638 80<271.817 339>
VStem: 109 91<-21.5149 445 522 640.805>
Fore
326 638 m 1,0,1
 265 656 265 656 232.5 646.5 c 128,-1,2
 200 637 200 637 200 570 c 2,3,-1
 200 522 l 1,4,-1
 324 522 l 1,5,-1
 308 445 l 1,6,-1
 200 445 l 1,7,-1
 200 22 l 2,8,9
 200 -16 200 -16 192 -48.5 c 128,-1,10
 184 -81 184 -81 172.5 -105 c 128,-1,11
 161 -129 161 -129 151 -143.5 c 128,-1,12
 141 -158 141 -158 138 -163 c 1,13,-1
 49 -138 l 1,14,15
 84 -99 84 -99 96.5 -60 c 128,-1,16
 109 -21 109 -21 109 21 c 2,17,-1
 109 445 l 1,18,-1
 16 445 l 1,19,-1
 33 522 l 1,20,-1
 109 522 l 1,21,-1
 109 589 l 2,22,23
 109 644 109 644 129 675.5 c 128,-1,24
 149 707 149 707 181.5 720.5 c 128,-1,25
 214 734 214 734 255 731.5 c 128,-1,26
 296 729 296 729 339 718 c 1,27,-1
 326 638 l 1,0,1
EndSplineSet
EndChar
StartChar: g
Encoding: 103 103 72
Width: 602
VWidth: 1494
Flags: W
HStem: -199 82<202 273.467> -10 89<212.709 346.655> 439 90<210.206 346.843>
VStem: 51 88<192.981 302.66> 426 96<-53.6719 46 178.844 283.408>
Fore
522 389 m 2,0,-1
 523 30 l 2,1,2
 523 -93 523 -93 439 -155 c 0,3,4
 386 -196 386 -196 313.5 -205 c 128,-1,5
 241 -214 241 -214 170 -199 c 1,6,-1
 202 -117 l 1,7,8
 317 -138 317 -138 375 -91 c 0,9,10
 432 -46 432 -46 429 46 c 1,11,12
 369 -10 369 -10 281 -10 c 0,13,14
 221 -10 221 -10 178 13.5 c 128,-1,15
 135 37 135 37 106.5 76 c 128,-1,16
 78 115 78 115 64.5 163 c 128,-1,17
 51 211 51 211 51 260 c 0,18,19
 51 308 51 308 64.5 356.5 c 128,-1,20
 78 405 78 405 106.5 443 c 128,-1,21
 135 481 135 481 178 505 c 128,-1,22
 221 529 221 529 281 529 c 0,23,24
 372 529 372 529 431 471 c 1,25,26
 433 487 433 487 440 500 c 128,-1,27
 447 513 447 513 457 532 c 1,28,-1
 547 502 l 1,29,30
 535 477 535 477 528.5 455 c 128,-1,31
 522 433 522 433 522 389 c 2,0,-1
428 284 m 1,32,33
 425 312 425 312 413.5 340.5 c 128,-1,34
 402 369 402 369 384 391 c 128,-1,35
 366 413 366 413 340 426 c 128,-1,36
 314 439 314 439 281 439 c 0,37,38
 239 439 239 439 211.5 420 c 128,-1,39
 184 401 184 401 168 373 c 128,-1,40
 152 345 152 345 145.5 314 c 128,-1,41
 139 283 139 283 139 260 c 0,42,43
 139 233 139 233 146.5 201 c 128,-1,44
 154 169 154 169 171 142 c 128,-1,45
 188 115 188 115 215 97 c 128,-1,46
 242 79 242 79 281 79 c 0,47,48
 315 79 315 79 341.5 93.5 c 128,-1,49
 368 108 368 108 385 129.5 c 128,-1,50
 402 151 402 151 412.5 178 c 128,-1,51
 423 205 423 205 426 232 c 2,52,-1
 426 239 l 2,53,54
 426 245 426 245 426 255 c 128,-1,55
 426 265 426 265 428 284 c 1,32,33
EndSplineSet
EndChar
StartChar: h
Encoding: 104 104 73
Width: 602
VWidth: 1494
Flags: W
HStem: -18 21<88 179 446 507.129> 447 81<250.175 357.207>
VStem: 88 91<0 328.601 474 731> 423 91<64.2626 362.803>
Fore
451 -18 m 1,0,1
 441 1 441 1 432 27.5 c 128,-1,2
 423 54 423 54 423 100 c 2,3,-1
 423 329 l 2,4,5
 423 362 423 362 412 384.5 c 128,-1,6
 401 407 401 407 383.5 421 c 128,-1,7
 366 435 366 435 346.5 441 c 128,-1,8
 327 447 327 447 311 447 c 0,9,10
 280 447 280 447 256 433.5 c 128,-1,11
 232 420 232 420 214.5 398.5 c 128,-1,12
 197 377 197 377 188 350 c 128,-1,13
 179 323 179 323 179 294 c 2,14,-1
 179 0 l 1,15,-1
 88 0 l 1,16,-1
 88 731 l 1,17,-1
 181 731 l 1,18,-1
 181 474 l 1,19,20
 208 499 208 499 241.5 513.5 c 128,-1,21
 275 528 275 528 314 528 c 0,22,23
 356 528 356 528 392.5 513 c 128,-1,24
 429 498 429 498 456 471 c 128,-1,25
 483 444 483 444 498.5 407.5 c 128,-1,26
 514 371 514 371 514 329 c 2,27,-1
 514 100 l 2,28,29
 514 88 514 88 515.5 63.5 c 128,-1,30
 517 39 517 39 538 13 c 1,31,-1
 451 -18 l 1,0,1
EndSplineSet
EndChar
StartChar: i
Encoding: 105 105 74
Width: 289
VWidth: 1494
Flags: W
HStem: 0 21G<100 190> 590 123<101.111 187.436>
VStem: 81 125<608.564 694.436> 100 90<0 522>
Fore
206 652 m 256,0,1
 206 626 206 626 188 608 c 128,-1,2
 170 590 170 590 145 590 c 256,3,4
 120 590 120 590 100.5 608 c 128,-1,5
 81 626 81 626 81 652 c 256,6,7
 81 677 81 677 99.5 695 c 128,-1,8
 118 713 118 713 145 713 c 0,9,10
 170 713 170 713 188 695 c 128,-1,11
 206 677 206 677 206 652 c 256,0,1
100 0 m 1,12,-1
 100 522 l 1,13,-1
 190 522 l 1,14,-1
 190 0 l 1,15,-1
 100 0 l 1,12,-1
EndSplineSet
EndChar
StartChar: j
Encoding: 106 106 75
Width: 289
VWidth: 1494
Flags: W
HStem: -212 79<-42.0822 9.93914> 592 123<98.5952 185.405>
VStem: 79 126<610.564 696.436> 100 90<-57.6525 -3 -3 522>
Fore
205 653 m 256,0,1
 205 628 205 628 186 610 c 128,-1,2
 167 592 167 592 142 592 c 256,3,4
 117 592 117 592 98 610 c 128,-1,5
 79 628 79 628 79 653 c 256,6,7
 79 679 79 679 98 697 c 128,-1,8
 117 715 117 715 142 715 c 0,9,10
 169 715 169 715 187 697 c 128,-1,11
 205 679 205 679 205 653 c 256,0,1
190 3 m 2,12,13
 190 -46 190 -46 182.5 -83.5 c 128,-1,14
 175 -121 175 -121 151 -147 c 128,-1,15
 127 -173 127 -173 82 -189 c 128,-1,16
 37 -205 37 -205 -37 -212 c 1,17,-1
 -75 -133 l 1,18,19
 -12 -129 -12 -129 24 -121.5 c 128,-1,20
 60 -114 60 -114 76.5 -99 c 128,-1,21
 93 -84 93 -84 96.5 -61.5 c 128,-1,22
 100 -39 100 -39 100 -3 c 2,23,-1
 100 522 l 1,24,-1
 190 522 l 1,25,-1
 190 3 l 2,12,13
EndSplineSet
EndChar
StartChar: k
Encoding: 107 107 76
Width: 505
VWidth: 1494
Flags: W
HStem: -16 21<78 170 383.5 480.621> 514 20G<355 438.515>
VStem: 78 92<0 242 353 731>
Fore
422 -16 m 1,0,1
 345 60 345 60 296.5 109 c 128,-1,2
 248 158 248 158 220 188 c 0,3,4
 187 223 187 223 170 242 c 1,5,-1
 170 0 l 1,6,-1
 78 0 l 1,7,-1
 78 731 l 1,8,-1
 170 731 l 1,9,-1
 170 353 l 1,10,11
 187 366 187 366 215 392 c 0,12,13
 241 413 241 413 282 447 c 128,-1,14
 323 481 323 481 387 534 c 1,15,-1
 472 501 l 1,16,17
 389 432 389 432 341 392.5 c 128,-1,18
 293 353 293 353 268 332 c 0,19,20
 238 306 238 306 227 299 c 1,21,22
 238 288 238 288 271 254 c 0,23,24
 299 224 299 224 354.5 168 c 128,-1,25
 410 112 410 112 507 13 c 1,26,-1
 422 -16 l 1,0,1
EndSplineSet
EndChar
StartChar: l
Encoding: 108 108 77
Width: 291
VWidth: 1494
Flags: W
HStem: 0 21G<100 191>
VStem: 100 91<0 723>
Fore
100 0 m 1,0,-1
 100 723 l 1,1,-1
 139 758 l 1,2,-1
 191 758 l 1,3,-1
 191 0 l 1,4,-1
 100 0 l 1,0,-1
EndSplineSet
EndChar
StartChar: m
Encoding: 109 109 78
Width: 884
VWidth: 1494
Flags: W
HStem: -16 21<87 178 399 490 729 790.125> 444 84<231.075 358.938 551.157 677.326>
VStem: 87 91<0 338.719> 399 91<0 335.604> 710 90<74.04 364.625>
Fore
87 389 m 2,0,1
 87 433 87 433 81.5 455 c 128,-1,2
 76 477 76 477 64 502 c 1,3,-1
 151 532 l 1,4,5
 161 513 161 513 165.5 501.5 c 128,-1,6
 170 490 170 490 173 474 c 1,7,8
 227 528 227 528 303 528 c 0,9,10
 351 528 351 528 391.5 507 c 128,-1,11
 432 486 432 486 456 450 c 1,12,13
 481 486 481 486 522.5 507 c 128,-1,14
 564 528 564 528 611 528 c 0,15,16
 664 528 664 528 699.5 509 c 128,-1,17
 735 490 735 490 757.5 460.5 c 128,-1,18
 780 431 780 431 790 395 c 128,-1,19
 800 359 800 359 800 323 c 2,20,-1
 800 103 l 2,21,22
 801 81 801 81 806 63 c 0,23,24
 809 46 809 46 812.5 32.5 c 128,-1,25
 816 19 816 19 822 16 c 1,26,-1
 737 -16 l 1,27,-1
 729 -1 l 2,28,29
 725 6 725 6 717.5 31.5 c 128,-1,30
 710 57 710 57 710 103 c 2,31,-1
 710 335 l 2,32,33
 710 387 710 387 684.5 415.5 c 128,-1,34
 659 444 659 444 611 444 c 0,35,36
 581 444 581 444 558 431.5 c 128,-1,37
 535 419 535 419 520 398.5 c 128,-1,38
 505 378 505 378 497.5 352.5 c 128,-1,39
 490 327 490 327 490 300 c 2,40,-1
 490 0 l 1,41,-1
 399 0 l 1,42,-1
 399 335 l 2,43,44
 399 384 399 384 369 414 c 128,-1,45
 339 444 339 444 290 444 c 0,46,47
 259 444 259 444 237 431.5 c 128,-1,48
 215 419 215 419 202.5 398 c 128,-1,49
 190 377 190 377 184 351.5 c 128,-1,50
 178 326 178 326 178 300 c 2,51,-1
 178 0 l 1,52,-1
 87 0 l 1,53,-1
 87 389 l 2,0,1
EndSplineSet
EndChar
StartChar: n
Encoding: 110 110 79
Width: 587
VWidth: 1494
Flags: W
HStem: -18 21<87 179 431 493.419> 442 87<251.763 371.002>
VStem: 87 92<0 337.153> 410 89<74.6875 371.667>
Fore
87 389 m 2,0,1
 87 433 87 433 81.5 455 c 128,-1,2
 76 477 76 477 64 502 c 1,3,-1
 151 532 l 1,4,5
 161 513 161 513 165.5 501 c 128,-1,6
 170 489 170 489 173 472 c 1,7,8
 199 498 199 498 234 513.5 c 128,-1,9
 269 529 269 529 309 529 c 0,10,11
 366 529 366 529 402.5 509 c 128,-1,12
 439 489 439 489 461 459 c 128,-1,13
 483 429 483 429 491 394.5 c 128,-1,14
 499 360 499 360 499 333 c 2,15,-1
 499 100 l 2,16,17
 499 91 499 91 505 61 c 128,-1,18
 511 31 511 31 525 13 c 1,19,-1
 436 -18 l 1,20,21
 426 1 426 1 418 27.5 c 128,-1,22
 410 54 410 54 410 100 c 2,23,-1
 410 335 l 2,24,25
 410 384 410 384 380 413 c 128,-1,26
 350 442 350 442 299 442 c 0,27,28
 269 442 269 442 246.5 430.5 c 128,-1,29
 224 419 224 419 209 398.5 c 128,-1,30
 194 378 194 378 186.5 353.5 c 128,-1,31
 179 329 179 329 179 302 c 2,32,-1
 179 0 l 1,33,-1
 87 0 l 1,34,-1
 87 389 l 2,0,1
EndSplineSet
EndChar
StartChar: o
Encoding: 111 111 80
Width: 574
VWidth: 1494
Flags: W
HStem: -6 82<220.573 346.081> 444 82<220.573 348.184>
VStem: 52 92<191.852 328.391> 423 93<192.141 326.594>
Fore
516 260 m 0,0,1
 516 211 516 211 501 163 c 128,-1,2
 486 115 486 115 457 77.5 c 128,-1,3
 428 40 428 40 384.5 17 c 128,-1,4
 341 -6 341 -6 284 -6 c 0,5,6
 224 -6 224 -6 180 17 c 128,-1,7
 136 40 136 40 107.5 78.5 c 128,-1,8
 79 117 79 117 65.5 164.5 c 128,-1,9
 52 212 52 212 52 260 c 256,10,11
 52 308 52 308 65.5 356 c 128,-1,12
 79 404 79 404 107.5 442 c 128,-1,13
 136 480 136 480 180 503 c 128,-1,14
 224 526 224 526 284 526 c 256,15,16
 344 526 344 526 388 503 c 128,-1,17
 432 480 432 480 460.5 442 c 128,-1,18
 489 404 489 404 502.5 356 c 128,-1,19
 516 308 516 308 516 260 c 0,0,1
423 260 m 0,20,21
 423 288 423 288 415 320.5 c 128,-1,22
 407 353 407 353 389.5 380.5 c 128,-1,23
 372 408 372 408 346 426 c 128,-1,24
 320 444 320 444 284 444 c 0,25,26
 250 444 250 444 223.5 427.5 c 128,-1,27
 197 411 197 411 179 385 c 128,-1,28
 161 359 161 359 152.5 326 c 128,-1,29
 144 293 144 293 144 260 c 256,30,31
 144 227 144 227 152.5 194 c 128,-1,32
 161 161 161 161 179 135 c 128,-1,33
 197 109 197 109 223.5 92.5 c 128,-1,34
 250 76 250 76 284 76 c 0,35,36
 317 76 317 76 343 92.5 c 128,-1,37
 369 109 369 109 387 135 c 128,-1,38
 405 161 405 161 414 194 c 128,-1,39
 423 227 423 227 423 260 c 0,20,21
EndSplineSet
EndChar
StartChar: p
Encoding: 112 112 81
Width: 602
VWidth: 1494
Flags: W
HStem: -221 21G<96.0968 154.5> -9 88<258.341 392.399> 441 88<257.73 392.399>
VStem: 85 91<-128.078 45 179.844 339.125 469 495.028> 465 91<192.981 326.906>
Fore
465 260 m 256,0,1
 465 287 465 287 457.5 318.5 c 128,-1,2
 450 350 450 350 433.5 377.5 c 128,-1,3
 417 405 417 405 390 423 c 128,-1,4
 363 441 363 441 324 441 c 0,5,6
 288 441 288 441 263 427 c 128,-1,7
 238 413 238 413 220 390.5 c 128,-1,8
 202 368 202 368 192 340 c 128,-1,9
 182 312 182 312 179 286 c 2,10,-1
 179 233 l 2,11,12
 182 206 182 206 192.5 179 c 128,-1,13
 203 152 203 152 220.5 130 c 128,-1,14
 238 108 238 108 264 93.5 c 128,-1,15
 290 79 290 79 324 79 c 0,16,17
 363 79 363 79 390 97 c 128,-1,18
 417 115 417 115 433.5 142 c 128,-1,19
 450 169 450 169 457.5 201 c 128,-1,20
 465 233 465 233 465 260 c 256,0,1
175 469 m 1,21,22
 235 529 235 529 324 529 c 0,23,24
 384 529 384 529 427.5 505 c 128,-1,25
 471 481 471 481 499.5 443 c 128,-1,26
 528 405 528 405 542 357 c 128,-1,27
 556 309 556 309 556 260 c 256,28,29
 556 211 556 211 542 163 c 128,-1,30
 528 115 528 115 499.5 77 c 128,-1,31
 471 39 471 39 427.5 15 c 128,-1,32
 384 -9 384 -9 324 -9 c 0,33,34
 235 -9 235 -9 176 45 c 1,35,-1
 176 -103 l 2,36,37
 176 -148 176 -148 168 -175 c 128,-1,38
 160 -202 160 -202 149 -221 c 1,39,-1
 67 -190 l 1,40,41
 69 -188 69 -188 72 -178.5 c 128,-1,42
 75 -169 75 -169 78 -155.5 c 128,-1,43
 81 -142 81 -142 83 -128.5 c 128,-1,44
 85 -115 85 -115 85 -103 c 2,45,-1
 85 389 l 2,46,47
 85 433 85 433 78.5 455 c 128,-1,48
 72 477 72 477 60 502 c 1,49,-1
 149 532 l 1,50,51
 160 513 160 513 166 499.5 c 128,-1,52
 172 486 172 486 175 469 c 1,21,22
EndSplineSet
EndChar
StartChar: q
Encoding: 113 113 82
Width: 602
VWidth: 1494
Flags: W
HStem: -221 21G<449 511.419> -9 88<212.269 344.228> 441 88<211.009 346.505>
VStem: 48 496<260 502 542.844 700.641> 48 90<192.03 327.847> 428 91<-140.182 45 179.844 337.641>
Fore
429 471 m 1,0,1
 432 487 432 487 438 500 c 128,-1,2
 444 513 444 513 454 532 c 1,3,-1
 544 502 l 1,4,5
 532 477 532 477 525.5 455 c 128,-1,6
 519 433 519 433 519 389 c 2,7,-1
 519 -103 l 2,8,9
 519 -124 519 -124 524 -148.5 c 128,-1,10
 529 -173 529 -173 543 -190 c 1,11,-1
 454 -221 l 1,12,13
 444 -202 444 -202 436 -175 c 128,-1,14
 428 -148 428 -148 428 -103 c 2,15,-1
 428 45 l 1,16,17
 369 -9 369 -9 280 -9 c 0,18,19
 220 -9 220 -9 176 15 c 128,-1,20
 132 39 132 39 103.5 77 c 128,-1,21
 75 115 75 115 61.5 163 c 128,-1,22
 48 211 48 211 48 260 c 256,23,24
 48 309 48 309 61.5 357 c 128,-1,25
 75 405 75 405 103.5 443 c 128,-1,26
 132 481 132 481 176 505 c 128,-1,27
 220 529 220 529 280 529 c 0,28,29
 371 529 371 529 429 471 c 1,0,1
425 284 m 2,30,31
 422 311 422 311 412 338.5 c 128,-1,32
 402 366 402 366 384 389.5 c 128,-1,33
 366 413 366 413 340.5 427 c 128,-1,34
 315 441 315 441 280 441 c 0,35,36
 241 441 241 441 213 423 c 128,-1,37
 185 405 185 405 168.5 377.5 c 128,-1,38
 152 350 152 350 145 318.5 c 128,-1,39
 138 287 138 287 138 260 c 256,40,41
 138 233 138 233 145 201 c 128,-1,42
 152 169 152 169 169.5 142 c 128,-1,43
 187 115 187 115 214 97 c 128,-1,44
 241 79 241 79 280 79 c 0,45,46
 314 79 314 79 339.5 93.5 c 128,-1,47
 365 108 365 108 383 130 c 128,-1,48
 401 152 401 152 411.5 179 c 128,-1,49
 422 206 422 206 425 233 c 2,50,-1
 425 284 l 2,30,31
EndSplineSet
EndChar
StartChar: r
Encoding: 114 114 83
Width: 396
VWidth: 1494
Flags: W
HStem: 0 21G<91 184> 512 20G<97.6667 160.5>
VStem: 91 93<0 366.419>
Fore
91 389 m 2,0,1
 91 433 91 433 86 455 c 128,-1,2
 81 477 81 477 69 502 c 1,3,-1
 155 532 l 1,4,5
 166 513 166 513 169 502.5 c 128,-1,6
 172 492 172 492 175 475 c 1,7,8
 268 580 268 580 414 504 c 1,9,-1
 356 419 l 1,10,11
 320 442 320 442 289.5 441.5 c 128,-1,12
 259 441 259 441 235 421.5 c 128,-1,13
 211 402 211 402 197.5 367.5 c 128,-1,14
 184 333 184 333 184 288 c 2,15,-1
 184 0 l 1,16,-1
 91 0 l 1,17,-1
 91 389 l 2,0,1
EndSplineSet
EndChar
StartChar: s
Encoding: 115 115 84
Width: 503
VWidth: 1494
Flags: W
HStem: -9 81<214.753 340.057> 450 84<188.98 339.787>
VStem: 72 94<346.953 419.94> 371 92<95.2307 168.867>
Fore
463 145 m 0,0,1
 463 73 463 73 409.5 33 c 128,-1,2
 356 -7 356 -7 259 -9 c 0,3,4
 182 -10 182 -10 133.5 13 c 128,-1,5
 85 36 85 36 42 70 c 1,6,-1
 108 135 l 1,7,8
 146 100 146 100 183 85 c 128,-1,9
 220 70 220 70 260 72 c 0,10,11
 311 73 311 73 341 89.5 c 128,-1,12
 371 106 371 106 371 135 c 0,13,14
 371 149 371 149 366.5 160.5 c 128,-1,15
 362 172 362 172 347.5 181.5 c 128,-1,16
 333 191 333 191 307 201.5 c 128,-1,17
 281 212 281 212 239 227 c 0,18,19
 72 283 72 283 72 380 c 0,20,21
 72 408 72 408 84 435.5 c 128,-1,22
 96 463 96 463 120 485 c 128,-1,23
 144 507 144 507 179 520.5 c 128,-1,24
 214 534 214 534 260 534 c 0,25,26
 299 534 299 534 350.5 517.5 c 128,-1,27
 402 501 402 501 436 478 c 1,28,-1
 396 401 l 1,29,30
 371 417 371 417 335 433.5 c 128,-1,31
 299 450 299 450 259 450 c 0,32,33
 217 450 217 450 191.5 433 c 128,-1,34
 166 416 166 416 166 387 c 256,35,36
 166 359 166 359 194.5 341.5 c 128,-1,37
 223 324 223 324 287 303 c 0,38,39
 324 290 324 290 356.5 276 c 128,-1,40
 389 262 389 262 412.5 244 c 128,-1,41
 436 226 436 226 449.5 202 c 128,-1,42
 463 178 463 178 463 145 c 0,0,1
EndSplineSet
EndChar
StartChar: t
Encoding: 116 116 85
Width: 352
VWidth: 1494
Flags: W
HStem: -12 83<206.283 260> 445 77<31 106 197 294>
VStem: 106 91<96.6638 445 522 641>
Fore
239 -12 m 1,0,1
 190 -12 190 -12 162.5 3.5 c 128,-1,2
 135 19 135 19 123 42.5 c 128,-1,3
 111 66 111 66 108.5 93.5 c 128,-1,4
 106 121 106 121 106 145 c 2,5,-1
 106 445 l 1,6,-1
 10 445 l 1,7,-1
 31 522 l 1,8,-1
 106 522 l 1,9,-1
 106 641 l 1,10,-1
 152 676 l 1,11,-1
 197 676 l 1,12,-1
 197 522 l 1,13,-1
 317 522 l 1,14,-1
 294 445 l 1,15,-1
 197 445 l 1,16,-1
 197 124 l 2,17,18
 197 97 197 97 206 85 c 128,-1,19
 215 73 215 73 231 71 c 128,-1,20
 247 69 247 69 266.5 74 c 128,-1,21
 286 79 286 79 306 87 c 1,22,-1
 335 4 l 1,23,-1
 239 -12 l 1,0,1
EndSplineSet
EndChar
StartChar: u
Encoding: 117 117 86
Width: 597
VWidth: 1494
Flags: W
HStem: -12 81<223.294 336.541>
VStem: 88 450<9 184 184 491> 88 91<149.527 522> 422 91<182.465 215 215 522>
Fore
453 -21 m 1,0,1
 442 -1 442 -1 436.5 11.5 c 128,-1,2
 431 24 431 24 428 40 c 1,3,4
 398 10 398 10 359 -1 c 128,-1,5
 320 -12 320 -12 286 -12 c 0,6,7
 227 -12 227 -12 189 9 c 128,-1,8
 151 30 151 30 128.5 60.5 c 128,-1,9
 106 91 106 91 97 124.5 c 128,-1,10
 88 158 88 158 88 184 c 2,11,-1
 88 522 l 1,12,-1
 179 522 l 1,13,-1
 179 182 l 2,14,15
 179 132 179 132 211.5 100.5 c 128,-1,16
 244 69 244 69 296 69 c 0,17,18
 324 69 324 69 348 81.5 c 128,-1,19
 372 94 372 94 388 115 c 128,-1,20
 404 136 404 136 413 162 c 128,-1,21
 422 188 422 188 422 215 c 2,22,-1
 422 522 l 1,23,-1
 513 522 l 1,24,-1
 513 123 l 2,25,26
 513 78 513 78 519.5 56 c 128,-1,27
 526 34 526 34 538 9 c 1,28,-1
 453 -21 l 1,0,1
EndSplineSet
EndChar
StartChar: v
Encoding: 118 118 87
Width: 529
VWidth: 1494
Flags: W
HStem: 517 20G<48.069 114.092 411.222 472.75>
VStem: 22 483<508 508 508 508>
Fore
106 537 m 1,0,-1
 265 144 l 1,1,-1
 419 540 l 1,2,-1
 505 508 l 1,3,-1
 404 257 l 2,4,5
 384 209 384 209 366 164.5 c 128,-1,6
 348 120 348 120 333 84.5 c 128,-1,7
 318 49 318 49 310 28 c 128,-1,8
 302 7 302 7 302 6 c 0,9,10
 297 -9 297 -9 281.5 -12.5 c 128,-1,11
 266 -16 266 -16 249 -11.5 c 128,-1,12
 232 -7 232 -7 219 4 c 128,-1,13
 206 15 206 15 209 28 c 2,14,-1
 212 40 l 1,15,-1
 22 508 l 1,16,-1
 106 537 l 1,0,-1
EndSplineSet
EndChar
StartChar: w
Encoding: 119 119 88
Width: 798
VWidth: 1494
Flags: W
HStem: 520 20G<38.2963 108.205 688.861 751>
Fore
567 123 m 1,0,-1
 695 540 l 1,1,-1
 779 510 l 1,2,-1
 616 37 l 1,3,-1
 619 25 l 2,4,5
 622 10 622 10 609 -1 c 128,-1,6
 596 -12 596 -12 578.5 -16.5 c 128,-1,7
 561 -21 561 -21 544.5 -17 c 128,-1,8
 528 -13 528 -13 523 1 c 2,9,-1
 393 390 l 1,10,11
 359 281 359 281 332 196 c 0,12,13
 320 160 320 160 308.5 125 c 128,-1,14
 297 90 297 90 288.5 62 c 128,-1,15
 280 34 280 34 275.5 18.5 c 128,-1,16
 271 3 271 3 271 1 c 0,17,18
 266 -13 266 -13 249.5 -17 c 128,-1,19
 233 -21 233 -21 215 -16.5 c 128,-1,20
 197 -12 197 -12 184.5 -1 c 128,-1,21
 172 10 172 10 175 25 c 2,22,-1
 178 37 l 1,23,-1
 16 513 l 1,24,-1
 102 540 l 1,25,-1
 232 121 l 1,26,-1
 353 520 l 1,27,28
 354 534 354 534 370 537.5 c 128,-1,29
 386 541 386 541 404 536.5 c 128,-1,30
 422 532 422 532 435 522.5 c 128,-1,31
 448 513 448 513 447 499 c 1,32,33
 448 499 448 499 448 498 c 256,34,35
 448 496 448 496 444 483 c 1,36,-1
 567 123 l 1,0,-1
EndSplineSet
EndChar
StartChar: x
Encoding: 120 120 89
Width: 536
VWidth: 1494
Flags: W
HStem: -15 21G<75.3846 131 407 460.778> 524 20G<72.3878 129 407 463.612>
VStem: 28 480<37 495 37 37>
Fore
508 495 m 1,0,1
 444 414 444 414 407.5 367 c 128,-1,2
 371 320 371 320 351 296 c 0,3,4
 329 269 329 269 323 260 c 1,5,6
 330 253 330 253 353 226 c 0,7,8
 372 203 372 203 408 159 c 128,-1,9
 444 115 444 115 508 39 c 1,10,-1
 433 -15 l 1,11,12
 381 52 381 52 348 92.5 c 128,-1,13
 315 133 315 133 297 155 c 2,14,-1
 268 193 l 1,15,-1
 238 155 l 2,16,17
 220 133 220 133 188.5 92.5 c 128,-1,18
 157 52 157 52 105 -15 c 1,19,-1
 28 37 l 1,20,21
 91 114 91 114 127 158 c 128,-1,22
 163 202 163 202 182 224 c 0,23,24
 205 251 205 251 212 260 c 1,25,26
 206 269 206 269 184 296 c 0,27,28
 164 320 164 320 127.5 367 c 128,-1,29
 91 414 91 414 28 495 c 1,30,-1
 103 544 l 1,31,32
 155 474 155 474 187.5 432 c 128,-1,33
 220 390 220 390 238 366 c 0,34,35
 259 339 259 339 268 327 c 1,36,37
 277 339 277 339 297 366 c 0,38,39
 315 390 315 390 348 432 c 128,-1,40
 381 474 381 474 433 544 c 1,41,-1
 508 495 l 1,0,1
EndSplineSet
EndChar
StartChar: y
Encoding: 121 121 90
Width: 559
VWidth: 1494
Flags: W
HStem: -226 21G<94.5641 121.5> 523 20G<70.1579 143 420.5 488.077>
Fore
290 -87 m 2,0,1
 277 -118 277 -118 259.5 -138 c 128,-1,2
 242 -158 242 -158 220 -173 c 0,3,4
 194 -190 194 -190 167.5 -200.5 c 128,-1,5
 141 -211 141 -211 102 -226 c 1,6,-1
 73 -148 l 1,7,8
 115 -132 115 -132 141 -120 c 128,-1,9
 167 -108 167 -108 183.5 -90.5 c 128,-1,10
 200 -73 200 -73 211.5 -45.5 c 128,-1,11
 223 -18 223 -18 238 30 c 1,12,13
 233 40 233 40 209 94 c 0,14,15
 199 117 199 117 184 152 c 128,-1,16
 169 187 169 187 147.5 236.5 c 128,-1,17
 126 286 126 286 96 352.5 c 128,-1,18
 66 419 66 419 28 505 c 1,19,-1
 117 543 l 1,20,21
 169 416 169 416 202.5 338 c 128,-1,22
 236 260 236 260 256 217 c 0,23,24
 278 166 278 166 287 142 c 1,25,26
 296 167 296 167 317 218 c 0,27,28
 333 262 333 262 364.5 339.5 c 128,-1,29
 396 417 396 417 445 543 c 1,30,-1
 529 504 l 1,31,-1
 290 -87 l 2,0,1
EndSplineSet
EndChar
StartChar: z
Encoding: 122 122 91
Width: 517
VWidth: 1494
Flags: W
HStem: 0 82<188 475> 448 83<40 324>
VStem: 37 438<1.28406 30.5 30.5 46.8807 46.8807 63 468 483.877 483.877 528.716 63 468 30.5 30.5>
Fore
324 448 m 1,0,-1
 40 448 l 1,1,-1
 40 531 l 1,2,-1
 417 531 l 1,3,4
 428 534 428 534 439 534 c 128,-1,5
 450 534 450 534 457 529 c 0,6,7
 472 520 472 520 475 500 c 128,-1,8
 478 480 478 480 475 468 c 0,9,10
 472 459 472 459 468.5 457.5 c 0,11,-1
 453.5 451.5 l 0,12,13
 442 447 442 447 434 443 c 128,-1,14
 426 439 426 439 420 431 c 2,15,-1
 188 82 l 1,16,-1
 475 82 l 1,17,-1
 475 0 l 1,18,-1
 96 0 l 1,19,20
 85 -3 85 -3 74 -3 c 128,-1,21
 63 -3 63 -3 55 1 c 0,22,23
 40 10 40 10 37 30.5 c 128,-1,24
 34 51 34 51 37 63 c 0,25,26
 40 72 40 72 44 73.5 c 0,27,-1
 59 79.5 l 0,28,29
 70 84 70 84 78.5 87.5 c 128,-1,30
 87 91 87 91 93 100 c 2,31,-1
 324 448 l 1,0,-1
EndSplineSet
EndChar
StartChar: braceleft
Encoding: 123 123 92
Width: 306
VWidth: 1494
Flags: W
HStem: -154 52<203.6 233> 694 55<172.097 209.751 210.252 233>
VStem: 81 88<-84.72 245.041 349.125 680.689>
Fore
167 -154 m 2,0,1
 129 -154 129 -154 105 -127 c 128,-1,2
 81 -100 81 -100 81 -70 c 2,3,-1
 81 232 l 2,4,5
 81 257 81 257 71 264 c 128,-1,6
 61 271 61 271 46 275 c 1,7,-1
 49 320 l 1,8,9
 69 327 69 327 75 340 c 128,-1,10
 81 353 81 353 81 365 c 2,11,-1
 81 665 l 2,12,13
 81 695 81 695 105 722 c 128,-1,14
 129 749 129 749 167 749 c 2,15,-1
 277 749 l 1,16,-1
 233 697 l 1,17,18
 218 695 218 695 210 694.5 c 128,-1,19
 202 694 202 694 199 694 c 2,20,-1
 193 694 l 1,21,22
 175 691 175 691 172 681 c 128,-1,23
 169 671 169 671 169 667 c 2,24,-1
 169 371 l 2,25,26
 169 351 169 351 157.5 331 c 128,-1,27
 146 311 146 311 133 297 c 1,28,29
 148 283 148 283 158.5 262.5 c 128,-1,30
 169 242 169 242 169 224 c 2,31,-1
 169 -72 l 2,32,33
 169 -76 169 -76 172 -85 c 128,-1,34
 175 -94 175 -94 191 -97 c 2,35,-1
 233 -102 l 1,36,-1
 277 -154 l 1,37,-1
 167 -154 l 2,0,1
EndSplineSet
EndChar
StartChar: bar
Encoding: 124 124 93
Width: 276
VWidth: 1494
Flags: W
HStem: -13 741<94 182 94 182 94 94>
VStem: 94 88<-13 728>
Fore
94 -13 m 1,0,-1
 94 728 l 1,1,-1
 182 728 l 1,2,-1
 182 -13 l 1,3,-1
 94 -13 l 1,0,-1
EndSplineSet
EndChar
StartChar: braceright
Encoding: 125 125 94
Width: 309
VWidth: 1494
Flags: W
HStem: -154 57<84 102.296 102.702 138.902> 697 52<76 105.4>
VStem: 142 87<-84.72 246.256 348.5 679.72>
Fore
251 271 m 2,0,1
 247 269 247 269 238 263 c 128,-1,2
 229 257 229 257 229 232 c 2,3,-1
 229 -70 l 2,4,5
 229 -100 229 -100 205 -127 c 128,-1,6
 181 -154 181 -154 142 -154 c 2,7,-1
 33 -154 l 1,8,-1
 84 -100 l 1,9,10
 96 -99 96 -99 102.5 -98 c 128,-1,11
 109 -97 109 -97 112 -97 c 2,12,-1
 117 -97 l 1,13,14
 136 -94 136 -94 139 -85 c 128,-1,15
 142 -76 142 -76 142 -72 c 2,16,-1
 142 224 l 2,17,18
 142 242 142 242 151.5 262.5 c 128,-1,19
 161 283 161 283 176 297 c 1,20,21
 163 311 163 311 152.5 331 c 128,-1,22
 142 351 142 351 142 371 c 2,23,-1
 142 667 l 2,24,25
 142 671 142 671 139 680 c 128,-1,26
 136 689 136 689 118 692 c 2,27,-1
 76 697 l 1,28,-1
 33 749 l 1,29,-1
 142 749 l 2,30,31
 181 749 181 749 205 722 c 128,-1,32
 229 695 229 695 229 665 c 2,33,-1
 229 365 l 2,34,35
 229 353 229 353 235.5 340 c 128,-1,36
 242 327 242 327 263 320 c 1,37,-1
 263 275 l 1,38,-1
 251 271 l 2,0,1
EndSplineSet
EndChar
StartChar: asciitilde
Encoding: 126 126 95
Width: 659
VWidth: 1494
Flags: W
HStem: 244 107<192.28 276.734>
Fore
604 259 m 1,0,1
 570 211 570 211 523.5 187.5 c 128,-1,2
 477 164 477 164 429 167 c 0,3,4
 402 169 402 169 376.5 181 c 128,-1,5
 351 193 351 193 326.5 205.5 c 128,-1,6
 302 218 302 218 277.5 229.5 c 128,-1,7
 253 241 253 241 229 244 c 0,8,9
 196 247 196 247 170 230.5 c 128,-1,10
 144 214 144 214 115 173 c 1,11,-1
 67 268 l 1,12,13
 81 283 81 283 96.5 299 c 128,-1,14
 112 315 112 315 132 327 c 128,-1,15
 152 339 152 339 177.5 346.5 c 128,-1,16
 203 354 203 354 236 351 c 0,17,18
 259 350 259 350 285 338 c 128,-1,19
 311 326 311 326 338.5 312.5 c 128,-1,20
 366 299 366 299 393 287 c 128,-1,21
 420 275 420 275 441 274 c 0,22,23
 463 271 463 271 488.5 288 c 128,-1,24
 514 305 514 305 541 345 c 1,25,-1
 604 259 l 1,0,1
EndSplineSet
EndChar
StartChar: uni0E33.alt1
Encoding: 65539 -1 96
Width: 556
VWidth: 1494
Flags: W
HStem: 0 21G<380 481> 517 91<191.269 314.625> 712 68<-383.812 -300.416> 889 71<-383.812 -299.908>
VStem: -466 70<793.946 875.423> -288 69<798.047 871.468> 380 101<0 391.396 391.396 413.625 413.625 428.687>
Fore
-342 712 m 0,0,1
 -384 712 -384 712 -411 730.5 c 128,-1,2
 -438 749 -438 749 -452 776 c 128,-1,3
 -466 803 -466 803 -466 835.5 c 128,-1,4
 -466 868 -466 868 -452 895 c 128,-1,5
 -438 922 -438 922 -411 941 c 128,-1,6
 -384 960 -384 960 -342 960 c 0,7,8
 -302 960 -302 960 -274.5 941 c 128,-1,9
 -247 922 -247 922 -233.5 895 c 128,-1,10
 -220 868 -220 868 -219 835.5 c 128,-1,11
 -218 803 -218 803 -232.5 776 c 128,-1,12
 -247 749 -247 749 -274.5 730.5 c 128,-1,13
 -302 712 -302 712 -342 712 c 0,0,1
-342 780 m 256,14,15
 -315 780 -315 780 -301.5 797.5 c 128,-1,16
 -288 815 -288 815 -288 835 c 128,-1,17
 -288 855 -288 855 -301.5 872 c 128,-1,18
 -315 889 -315 889 -342 889 c 256,19,20
 -369 889 -369 889 -382.5 872 c 128,-1,21
 -396 855 -396 855 -396 835 c 128,-1,22
 -396 815 -396 815 -382.5 797.5 c 128,-1,23
 -369 780 -369 780 -342 780 c 256,14,15
481 0 m 1,24,-1
 380 0 l 1,25,-1
 380 407 l 2,26,27
 378 419 378 419 383.5 434.5 c 128,-1,28
 389 450 389 450 396 454 c 1,29,30
 374 477 374 477 341 498.5 c 128,-1,31
 308 520 308 520 254 517 c 0,32,33
 215 516 215 516 190.5 504 c 128,-1,34
 166 492 166 492 151 474 c 128,-1,35
 136 456 136 456 128.5 434.5 c 128,-1,36
 121 413 121 413 120 392 c 1,37,-1
 22 392 l 1,38,39
 31 487 31 487 89.5 546 c 128,-1,40
 148 605 148 605 256 608 c 0,41,42
 293 610 293 610 322 603 c 128,-1,43
 351 596 351 596 374.5 585 c 128,-1,44
 398 574 398 574 415.5 558.5 c 128,-1,45
 433 543 433 543 448 528 c 1,46,47
 456 531 456 531 469.5 526.5 c 128,-1,48
 483 522 483 522 499 504 c 0,49,50
 511 490 511 490 515 480.5 c 128,-1,51
 519 471 519 471 516.5 462.5 c 128,-1,52
 514 454 514 454 508 446.5 c 128,-1,53
 502 439 502 439 495 429 c 256,54,55
 487 419 487 419 484 407.5 c 128,-1,56
 481 396 481 396 481 375 c 2,57,-1
 481 0 l 1,24,-1
EndSplineSet
EndChar
StartChar: quotedbl
Encoding: 34 34 97
Width: 429
VWidth: 1494
Flags: W
HStem: 422 278<88 163 259 333>
VStem: 72 282<653.667 700 700 700 700 700>
Fore
333 422 m 1,0,-1
 259 422 l 1,1,-1
 242 700 l 1,2,-1
 354 700 l 1,3,-1
 333 422 l 1,0,-1
163 422 m 1,4,-1
 88 422 l 1,5,-1
 72 700 l 1,6,-1
 184 700 l 1,7,-1
 163 422 l 1,4,-1
EndSplineSet
EndChar
StartChar: exclam
Encoding: 33 33 98
Width: 384
VWidth: 1494
Flags: W
HStem: -10 131<145.596 236.889> 692 20G<132 250>
VStem: 126 131<9.5957 100.889 604.278 712> 149 83<158 265.722>
Fore
232 158 m 1,0,-1
 149 158 l 1,1,-1
 132 712 l 1,2,-1
 250 712 l 1,3,-1
 232 158 l 1,0,-1
257 55 m 256,4,5
 257 28 257 28 237.5 9 c 128,-1,6
 218 -10 218 -10 191 -10 c 256,7,8
 164 -10 164 -10 145 9 c 128,-1,9
 126 28 126 28 126 55 c 256,10,11
 126 82 126 82 145 101.5 c 128,-1,12
 164 121 164 121 191 121 c 256,13,14
 218 121 218 121 237.5 101.5 c 128,-1,15
 257 82 257 82 257 55 c 256,4,5
EndSplineSet
EndChar
StartChar: uni0E4E.alt1
Encoding: 65540 -1 99
Width: 0
VWidth: 1494
Flags: W
HStem: 1007 38<-192.404 -167>
VStem: -472 354<773 1007 773 773>
Fore
-118 1007 m 1,0,1
 -185 1021 -185 1021 -234.5 1008.5 c 128,-1,2
 -284 996 -284 996 -285.5 955.5 c 128,-1,3
 -287 915 -287 915 -230 891 c 1,4,-1
 -260 842 l 1,5,6
 -356 837 -356 837 -369 794 c 1,7,8
 -371 756 -371 756 -327 750 c 128,-1,9
 -283 744 -283 744 -262 756 c 1,10,-1
 -300 695 l 1,11,12
 -360 667 -360 667 -414.5 688.5 c 128,-1,13
 -469 710 -469 710 -472 773 c 0,14,15
 -465 870 -465 870 -338 885 c 1,16,17
 -383 918 -383 918 -375.5 965 c 128,-1,18
 -368 1012 -368 1012 -312.5 1036 c 128,-1,19
 -257 1060 -257 1060 -167 1045 c 1,20,-1
 -118 1007 l 1,0,1
EndSplineSet
EndChar
StartChar: exclamdown
Encoding: 161 161 100
Width: 376
VWidth: 1494
Flags: W
HStem: 383 131<145.596 236.889>
VStem: 132 118<-208 -100.472 403.111 493.889> 149 83<237.472 345>
Fore
250 -208 m 1,0,-1
 132 -208 l 1,1,-1
 149 345 l 1,2,-1
 232 345 l 1,3,-1
 250 -208 l 1,0,-1
257 448 m 256,4,5
 257 422 257 422 237.5 402.5 c 128,-1,6
 218 383 218 383 191 383 c 256,7,8
 164 383 164 383 145 402.5 c 128,-1,9
 126 422 126 422 126 448 c 256,10,11
 126 475 126 475 145 494.5 c 128,-1,12
 164 514 164 514 191 514 c 256,13,14
 218 514 218 514 237.5 494.5 c 128,-1,15
 257 475 257 475 257 448 c 256,4,5
EndSplineSet
EndChar
StartChar: cent
Encoding: 162 162 101
Width: 674
VWidth: 1494
Flags: W
VStem: 63 104<225.796 484.498> 327 83<-75 -10 97 611 720 789>
Fore
625 78 m 1,0,1
 614.5 67.5 l 2,2,3
 604 57 604 57 583 43.5 c 128,-1,4
 562 30 562 30 530.5 15.5 c 128,-1,5
 499 1 499 1 457 -6 c 0,6,7
 435 -10 435 -10 410 -10 c 1,8,-1
 410 -75 l 1,9,-1
 327 -75 l 1,10,-1
 327 -7 l 1,11,12
 311 -4 311 -4 295.5 -0.5 c 128,-1,13
 280 3 280 3 266 7 c 0,14,15
 238 18 238 18 202.5 40.5 c 128,-1,16
 167 63 167 63 136 103.5 c 128,-1,17
 105 144 105 144 84 205 c 128,-1,18
 63 266 63 266 63 354 c 0,19,20
 63 457 63 457 90.5 526 c 128,-1,21
 118 595 118 595 159 637 c 128,-1,22
 200 679 200 679 245.5 697.5 c 128,-1,23
 291 716 291 716 327 718 c 1,24,-1
 327 789 l 1,25,-1
 410 789 l 1,26,-1
 410 720 l 1,27,28
 462 718 462 718 510.5 700.5 c 128,-1,29
 559 683 559 683 602 644 c 1,30,-1
 596 632 l 2,31,32
 592 623 592 623 583 604.5 c 128,-1,33
 574 586 574 586 558 552 c 1,34,35
 534 573 534 573 508.5 584.5 c 128,-1,36
 483 596 483 596 460 604 c 0,37,38
 433 611 433 611 410 616 c 1,39,-1
 410 90 l 1,40,41
 436 91 436 91 463 99 c 0,42,43
 486 105 486 105 512 117.5 c 128,-1,44
 538 130 538 130 561 152 c 1,45,-1
 625 78 l 1,0,1
302 106 m 0,46,47
 309 103 309 103 314.5 101.5 c 128,-1,48
 320 100 320 100 327 97 c 1,49,-1
 327 611 l 1,50,51
 250 595 250 595 208.5 526 c 128,-1,52
 167 457 167 457 167 354 c 0,53,54
 167 260 167 260 203 195 c 128,-1,55
 239 130 239 130 302 106 c 0,46,47
EndSplineSet
EndChar
StartChar: sterling
Encoding: 163 163 102
Width: 674
VWidth: 1494
Flags: W
HStem: 0 96<206 586> 315 81<75 163 278 417> 633.5 91.5<326.615 439.876>
VStem: 126.5 104.5<429.69 472.5 472.5 505.454 505.454 519 519 586.346>
Fore
508 574 m 1,0,1
 477 604 477 604 441 618 c 128,-1,2
 405 632 405 632 371.5 633.5 c 128,-1,3
 338 635 338 635 309 625.5 c 128,-1,4
 280 616 280 616 262 599 c 0,5,6
 232 573 232 573 228 538.5 c 128,-1,7
 224 504 224 504 231 472.5 c 128,-1,8
 238 441 238 441 249 420 c 128,-1,9
 260 399 260 399 260 398 c 1,10,-1
 445 398 l 1,11,-1
 417 317 l 1,12,-1
 278 317 l 1,13,14
 284 294 284 294 285.5 266.5 c 128,-1,15
 287 239 287 239 280.5 209 c 128,-1,16
 274 179 274 179 256.5 149.5 c 128,-1,17
 239 120 239 120 206 96 c 1,18,-1
 587 96 l 1,19,-1
 586 0 l 1,20,-1
 84 0 l 1,21,-1
 84 79 l 1,22,23
 145 127 145 127 168 183 c 128,-1,24
 191 239 191 239 175 315 c 1,25,-1
 51 315 l 1,26,-1
 75 396 l 1,27,-1
 163 396 l 1,28,29
 130 465 130 465 126.5 519 c 128,-1,30
 123 573 123 573 144 616 c 0,31,32
 170 674 170 674 228 699.5 c 128,-1,33
 286 725 286 725 350 725 c 0,34,35
 407 725 407 725 461.5 705.5 c 128,-1,36
 516 686 516 686 550 653 c 1,37,-1
 508 574 l 1,0,1
EndSplineSet
EndChar
StartChar: currency
Encoding: 164 164 103
Width: 726
VWidth: 1494
Flags: W
HStem: 146 95<329.098 392.777> 448 92<325.225 390.266>
VStem: 468 97<313.782 338 338 367.973>
Fore
565 354 m 0,0,1
 567 311 567 311 553.5 284 c 128,-1,2
 540 257 540 257 531 241 c 1,3,-1
 605 164 l 1,4,-1
 540 102 l 1,5,-1
 463 176 l 1,6,7
 444 166 444 166 423 155 c 128,-1,8
 402 144 402 144 362 146 c 0,9,10
 336 146 336 146 311 154.5 c 128,-1,11
 286 163 286 163 265 178 c 1,12,-1
 187 100 l 1,13,-1
 121 166 l 1,14,-1
 197 244 l 1,15,16
 176 268 176 268 168 297 c 128,-1,17
 160 326 160 326 161.5 354.5 c 128,-1,18
 163 383 163 383 172.5 407 c 128,-1,19
 182 431 182 431 196 444 c 1,20,-1
 118 519 l 1,21,-1
 185 586 l 1,22,-1
 262 510 l 1,23,24
 280 523 280 523 307.5 532 c 128,-1,25
 335 541 335 541 368 540 c 0,26,27
 431 537 431 537 468 513 c 1,28,-1
 546 589 l 1,29,-1
 611 522 l 1,30,-1
 534 444 l 1,31,32
 541 429 541 429 553 409 c 128,-1,33
 565 389 565 389 565 354 c 0,0,1
468 338 m 0,34,35
 469 357 469 357 461.5 377.5 c 128,-1,36
 454 398 454 398 441 413.5 c 128,-1,37
 428 429 428 429 407.5 438.5 c 128,-1,38
 387 448 387 448 363 448 c 0,39,40
 315 448 315 448 286 413 c 128,-1,41
 257 378 257 378 260 338 c 0,42,43
 263 294 263 294 293.5 267.5 c 128,-1,44
 324 241 324 241 363 241 c 0,45,46
 392 241 392 241 412 251.5 c 128,-1,47
 432 262 432 262 444.5 276 c 128,-1,48
 457 290 457 290 462.5 307 c 128,-1,49
 468 324 468 324 468 338 c 0,34,35
EndSplineSet
EndChar
StartChar: yen
Encoding: 165 165 104
Width: 618
VWidth: 1494
Flags: W
HStem: 0 21G<260 357> 155 62<100 260 356 511> 283 61<100 259 356 511>
VStem: 260 96<0 155 217 283>
Fore
593 697 m 1,0,-1
 356 344 l 1,1,-1
 511 344 l 1,2,-1
 511 283 l 1,3,-1
 356 283 l 1,4,-1
 356 217 l 1,5,-1
 511 217 l 1,6,-1
 511 155 l 1,7,-1
 356 155 l 1,8,-1
 357 0 l 1,9,-1
 260 0 l 1,10,-1
 260 155 l 1,11,-1
 100 155 l 1,12,-1
 100 217 l 1,13,-1
 260 217 l 1,14,-1
 259 283 l 1,15,-1
 100 283 l 1,16,-1
 100 344 l 1,17,-1
 260 344 l 1,18,-1
 22 697 l 1,19,-1
 94 743 l 1,20,-1
 308 428 l 1,21,-1
 522 743 l 1,22,-1
 593 697 l 1,0,-1
EndSplineSet
EndChar
StartChar: brokenbar
Encoding: 166 166 105
Width: 269
VWidth: 1494
Flags: W
HStem: 705 20G<91 179>
VStem: 91 88<-187 178 360 725>
Fore
179 360 m 1,0,-1
 91 360 l 1,1,-1
 91 725 l 1,2,-1
 179 725 l 1,3,-1
 179 360 l 1,0,-1
91 178 m 1,4,-1
 179 178 l 1,5,-1
 179 -187 l 1,6,-1
 91 -187 l 1,7,-1
 91 178 l 1,4,-1
EndSplineSet
EndChar
StartChar: section
Encoding: 167 167 106
Width: 683
VWidth: 1494
Flags: W
HStem: 697 104<312.802 466.291>
VStem: 85 108<355.046 440.524>
Fore
507 643 m 1,0,1
 492 667 492 667 460.5 682 c 128,-1,2
 429 697 429 697 374 697 c 0,3,4
 342 697 342 697 317.5 682.5 c 128,-1,5
 293 668 293 668 282 648 c 128,-1,6
 271 628 271 628 274 603 c 128,-1,7
 277 578 277 578 299 559 c 0,8,9
 308 552 308 552 331 538.5 c 128,-1,10
 354 525 354 525 382.5 509 c 128,-1,11
 411 493 411 493 441 477.5 c 128,-1,12
 471 462 471 462 493 448 c 0,13,14
 537 423 537 423 563.5 397.5 c 128,-1,15
 590 372 590 372 599 321 c 0,16,17
 608 259 608 259 574 209 c 0,18,19
 561 188 561 188 544.5 174 c 128,-1,20
 528 160 528 160 513 148 c 1,21,22
 508 149 508 149 512 143.5 c 128,-1,23
 516 138 516 138 522.5 126.5 c 128,-1,24
 529 115 529 115 536 100 c 128,-1,25
 543 85 543 85 546 67 c 0,26,27
 550 22 550 22 536.5 -13 c 128,-1,28
 523 -48 523 -48 495.5 -73.5 c 128,-1,29
 468 -99 468 -99 429 -113 c 128,-1,30
 390 -127 390 -127 345 -129 c 0,31,32
 308 -130 308 -130 279 -127 c 128,-1,33
 250 -124 250 -124 223.5 -113.5 c 128,-1,34
 197 -103 197 -103 171.5 -86 c 128,-1,35
 146 -69 146 -69 117 -42 c 1,36,-1
 193 27 l 1,37,38
 211 1 211 1 240 -12 c 128,-1,39
 269 -25 269 -25 299 -29.5 c 128,-1,40
 329 -34 329 -34 356.5 -29 c 128,-1,41
 384 -24 384 -24 401 -10 c 0,42,43
 416 3 416 3 424 20 c 128,-1,44
 432 37 432 37 432 55 c 128,-1,45
 432 73 432 73 421.5 89 c 128,-1,46
 411 105 411 105 390 114 c 1,47,48
 387 114 387 114 363 127 c 0,49,50
 342 139 342 139 297.5 165 c 128,-1,51
 253 191 253 191 170 241 c 0,52,53
 126 268 126 268 105.5 305 c 128,-1,54
 85 342 85 342 85 390 c 0,55,56
 85 481 85 481 169 537 c 1,57,58
 139 575 139 575 137.5 623 c 128,-1,59
 136 671 136 671 163 715 c 0,60,61
 190 756 190 756 240.5 778.5 c 128,-1,62
 291 801 291 801 351 801 c 0,63,64
 432 801 432 801 485 779.5 c 128,-1,65
 538 758 538 758 581 712 c 1,66,-1
 507 643 l 1,0,1
436 218 m 1,67,68
 445 224 445 224 456.5 233 c 128,-1,69
 468 242 468 242 480 256 c 0,70,71
 487 265 487 265 488.5 279 c 128,-1,72
 490 293 490 293 486.5 306.5 c 128,-1,73
 483 320 483 320 474 331 c 128,-1,74
 465 342 465 342 453 347 c 1,75,76
 427.5 361 l 2,77,78
 402 375 402 375 384.5 385 c 0,79,-1
 314.5 424 l 0,80,81
 262 453 262 453 244 463 c 1,82,83
 221 451 221 451 208.5 438 c 128,-1,84
 196 425 196 425 193 399 c 0,85,86
 193 375 193 375 205.5 359.5 c 128,-1,87
 218 344 218 344 236 332 c 2,88,-1
 260 318.5 l 2,89,90
 284 305 284 305 317.5 286.5 c 128,-1,91
 351 268 351 268 385 248.5 c 128,-1,92
 419 229 419 229 436 218 c 1,67,68
EndSplineSet
EndChar
StartChar: dieresis
Encoding: 168 168 107
Width: 328
VWidth: 1494
Flags: W
HStem: 595 133<17.1112 108.889 219.627 311.312>
VStem: -3 132<615.627 707.374> 199 133<615.111 707.889>
Fore
63 728 m 256,0,1
 90 728 90 728 109.5 708 c 128,-1,2
 129 688 129 688 129 662 c 0,3,4
 129 634 129 634 109.5 614.5 c 128,-1,5
 90 595 90 595 63 595 c 0,6,7
 34 595 34 595 15.5 615 c 128,-1,8
 -3 635 -3 635 -3 662 c 0,9,10
 -3 688 -3 688 16.5 708 c 128,-1,11
 36 728 36 728 63 728 c 256,0,1
312 709 m 1,12,13
 332 686 332 686 332 662 c 0,14,15
 332 634 332 634 312.5 614.5 c 128,-1,16
 293 595 293 595 266 595 c 0,17,18
 238 595 238 595 218.5 614.5 c 128,-1,19
 199 634 199 634 199 662 c 0,20,21
 199 689 199 689 219 708.5 c 128,-1,22
 239 728 239 728 266 728 c 0,23,24
 290 728 290 728 312 709 c 1,12,13
EndSplineSet
EndChar
StartChar: copyright
Encoding: 169 169 108
Width: 799
VWidth: 1494
Flags: W
HStem: -22 68<293.958 506.536> 653 69<293.273 508.69>
VStem: 43 68<235.892 464.939> 206 71<249.996 441.261> 691 67<236.184 463.224>
Fore
758 350 m 0,0,1
 758 274 758 274 729.5 206 c 128,-1,2
 701 138 701 138 653 87 c 128,-1,3
 605 36 605 36 539.5 7 c 128,-1,4
 474 -22 474 -22 401 -22 c 0,5,6
 324 -22 324 -22 259 8.5 c 128,-1,7
 194 39 194 39 146.5 90 c 128,-1,8
 99 141 99 141 71 208 c 128,-1,9
 43 275 43 275 43 350 c 0,10,11
 43 423 43 423 71 491 c 128,-1,12
 99 559 99 559 146.5 610 c 128,-1,13
 194 661 194 661 260 691.5 c 128,-1,14
 326 722 326 722 401 722 c 256,15,16
 475 722 475 722 540 691.5 c 128,-1,17
 605 661 605 661 654 610 c 128,-1,18
 703 559 703 559 730.5 491 c 128,-1,19
 758 423 758 423 758 350 c 0,0,1
691 350 m 256,20,21
 691 410 691 410 668.5 465 c 128,-1,22
 646 520 646 520 607 562 c 128,-1,23
 568 604 568 604 515 628.5 c 128,-1,24
 462 653 462 653 401 653 c 0,25,26
 341 653 341 653 288 629 c 128,-1,27
 235 605 235 605 196 564 c 128,-1,28
 157 523 157 523 134 468 c 128,-1,29
 111 413 111 413 111 350 c 0,30,31
 111 290 111 290 133 234.5 c 128,-1,32
 155 179 155 179 195 137.5 c 128,-1,33
 235 96 235 96 287 71 c 128,-1,34
 339 46 339 46 401 46 c 0,35,36
 460 46 460 46 513.5 71 c 128,-1,37
 567 96 567 96 606.5 137.5 c 128,-1,38
 646 179 646 179 668.5 234.5 c 128,-1,39
 691 290 691 290 691 350 c 256,20,21
556 170 m 1,40,41
 532 145 532 145 503 132.5 c 128,-1,42
 474 120 474 120 444 116 c 128,-1,43
 414 112 414 112 385.5 116 c 128,-1,44
 357 120 357 120 336 127 c 0,45,46
 318 133 318 133 295 147 c 128,-1,47
 272 161 272 161 252.5 186.5 c 128,-1,48
 233 212 233 212 219.5 251 c 128,-1,49
 206 290 206 290 206 345 c 0,50,51
 206 402 206 402 219.5 441 c 128,-1,52
 233 480 233 480 252.5 504.5 c 128,-1,53
 272 529 272 529 295 543.5 c 128,-1,54
 318 558 318 558 336 565 c 0,55,56
 381 583 381 583 440 574 c 128,-1,57
 499 565 499 565 540 528 c 1,58,59
 540 525 540 525 535 519 c 0,60,61
 532 513 532 513 525.5 500 c 128,-1,62
 519 487 519 487 508 466 c 1,63,64
 483 489 483 489 457 497 c 128,-1,65
 431 505 431 505 410 507 c 0,66,67
 384 508 384 508 360 501 c 0,68,69
 321 484 321 484 299 444 c 128,-1,70
 277 404 277 404 277 345 c 256,71,72
 277 287 277 287 299 246.5 c 128,-1,73
 321 206 321 206 360 191 c 0,74,75
 386 182 386 182 413 182 c 0,76,77
 435 182 435 182 461 189.5 c 128,-1,78
 487 197 487 197 510 221 c 1,79,-1
 556 170 l 1,40,41
EndSplineSet
EndChar
StartChar: ordfeminine
Encoding: 170 170 109
Width: 424
VWidth: 1494
Flags: W
HStem: 271 367<157 257 199 199 199 199> 271 73<149.659 255.795> 564 74<150.159 249.257>
VStem: 37 331<280 453 453 453> 37 71<419.949 487.502> 300 65<280 308 601 638>
Fore
300 280 m 1,0,-1
 300 308 l 1,1,2
 259 271 259 271 199 271 c 0,3,4
 157 271 157 271 127 287 c 128,-1,5
 97 303 97 303 77 328.5 c 128,-1,6
 57 354 57 354 47 387 c 128,-1,7
 37 420 37 420 37 453 c 256,8,9
 37 486 37 486 47 519.5 c 128,-1,10
 57 553 57 553 77 579 c 128,-1,11
 97 605 97 605 127 621.5 c 128,-1,12
 157 638 157 638 199 638 c 0,13,14
 257 638 257 638 299 601 c 1,15,-1
 299 638 l 1,16,-1
 365 638 l 1,17,-1
 365 341 l 1,18,-1
 368 280 l 1,19,-1
 300 280 l 1,0,-1
291 435 m 0,20,21
 294 456 294 456 290 479 c 128,-1,22
 286 502 286 502 274 521 c 128,-1,23
 262 540 262 540 243 552 c 128,-1,24
 224 564 224 564 199 564 c 256,25,26
 173 564 173 564 156 552.5 c 128,-1,27
 139 541 139 541 128 524.5 c 128,-1,28
 117 508 117 508 112.5 488.5 c 128,-1,29
 108 469 108 469 108 453 c 0,30,31
 108 439 108 439 112.5 420.5 c 128,-1,32
 117 402 117 402 127.5 385 c 128,-1,33
 138 368 138 368 155 356 c 128,-1,34
 172 344 172 344 199 344 c 0,35,36
 238 344 238 344 262 372.5 c 128,-1,37
 286 401 286 401 291 435 c 0,20,21
EndSplineSet
EndChar
StartChar: guillemotleft
Encoding: 171 171 110
Width: 597
VWidth: 1494
Flags: W
HStem: 45 441<190 312 190 190>
VStem: 52 480<266 486 266 266>
Fore
52 266 m 1,0,-1
 190 486 l 1,1,-1
 312 486 l 1,2,-1
 167 266 l 1,3,-1
 312 45 l 1,4,-1
 190 45 l 1,5,-1
 52 266 l 1,0,-1
272 266 m 1,6,-1
 410 486 l 1,7,-1
 532 486 l 1,8,-1
 387 266 l 1,9,-1
 532 45 l 1,10,-1
 410 45 l 1,11,-1
 272 266 l 1,6,-1
EndSplineSet
EndChar
StartChar: logicalnot
Encoding: 172 172 111
Width: 684
VWidth: 1494
Flags: W
HStem: 123 293<552 640 42 552 640 640> 327 89<42 552>
VStem: 552 88<123 327>
Fore
552 123 m 1,0,-1
 552 327 l 1,1,-1
 42 327 l 1,2,-1
 42 416 l 1,3,-1
 640 416 l 1,4,-1
 640 123 l 1,5,-1
 552 123 l 1,0,-1
EndSplineSet
EndChar
StartChar: registered
Encoding: 174 174 112
Width: 804
VWidth: 1494
Flags: W
HStem: -22 68<293.958 506.536> 291 60<338 402> 505 62<336.096 417.903> 653 69<293.273 508.69>
VStem: 43 68<235.892 464.939> 275 63<136 291 351 504> 496 60<377.161 480.88> 691 67<236.184 463.224>
Fore
758 350 m 0,0,1
 758 274 758 274 729.5 206 c 128,-1,2
 701 138 701 138 653 87 c 128,-1,3
 605 36 605 36 539.5 7 c 128,-1,4
 474 -22 474 -22 401 -22 c 0,5,6
 324 -22 324 -22 259 8.5 c 128,-1,7
 194 39 194 39 146.5 90 c 128,-1,8
 99 141 99 141 71 208 c 128,-1,9
 43 275 43 275 43 350 c 0,10,11
 43 423 43 423 71 491 c 128,-1,12
 99 559 99 559 146.5 610 c 128,-1,13
 194 661 194 661 260 691.5 c 128,-1,14
 326 722 326 722 401 722 c 256,15,16
 475 722 475 722 540 691.5 c 128,-1,17
 605 661 605 661 654 610 c 128,-1,18
 703 559 703 559 730.5 491 c 128,-1,19
 758 423 758 423 758 350 c 0,0,1
691 350 m 256,20,21
 691 410 691 410 668.5 465 c 128,-1,22
 646 520 646 520 607 562 c 128,-1,23
 568 604 568 604 515 628.5 c 128,-1,24
 462 653 462 653 401 653 c 0,25,26
 341 653 341 653 288 629 c 128,-1,27
 235 605 235 605 196 564 c 128,-1,28
 157 523 157 523 134 468 c 128,-1,29
 111 413 111 413 111 350 c 0,30,31
 111 290 111 290 133 234.5 c 128,-1,32
 155 179 155 179 195 137.5 c 128,-1,33
 235 96 235 96 287 71 c 128,-1,34
 339 46 339 46 401 46 c 0,35,36
 460 46 460 46 513.5 71 c 128,-1,37
 567 96 567 96 606.5 137.5 c 128,-1,38
 646 179 646 179 668.5 234.5 c 128,-1,39
 691 290 691 290 691 350 c 256,20,21
496 435 m 0,40,41
 496 472 496 472 462.5 488.5 c 128,-1,42
 429 505 429 505 374 505 c 0,43,44
 363 505 363 505 351 505 c 128,-1,45
 339 505 339 505 336 504 c 1,46,-1
 336 351 l 1,47,-1
 374 351 l 2,48,49
 433 351 433 351 464.5 370 c 128,-1,50
 496 389 496 389 496 435 c 0,40,41
275 502 m 2,51,52
 275 510 275 510 271.5 515 c 128,-1,53
 268 520 268 520 263.5 524.5 c 128,-1,54
 259 529 259 529 256 534.5 c 128,-1,55
 253 540 253 540 254 547 c 1,56,57
 257 555 257 555 267 565 c 128,-1,58
 277 575 277 575 288 573 c 1,59,60
 294 573 294 573 303 567 c 1,61,-1
 372 567 l 2,62,63
 407 567 407 567 439.5 559.5 c 128,-1,64
 472 552 472 552 498.5 536 c 128,-1,65
 525 520 525 520 540.5 495.5 c 128,-1,66
 556 471 556 471 556 435 c 0,67,68
 556 375 556 375 525.5 345 c 128,-1,69
 495 315 495 315 459 303 c 1,70,-1
 570 138 l 1,71,-1
 507 129 l 1,72,-1
 402 291 l 1,73,-1
 338 291 l 1,74,-1
 338 136 l 1,75,-1
 275 136 l 1,76,-1
 275 502 l 2,51,52
EndSplineSet
EndChar
StartChar: macron
Encoding: 175 175 113
Width: 322
VWidth: 1494
Flags: W
HStem: 598 81<42 280 42 280 42 42>
Fore
42 598 m 1,0,-1
 42 679 l 1,1,-1
 280 679 l 1,2,-1
 280 598 l 1,3,-1
 42 598 l 1,0,-1
EndSplineSet
EndChar
StartChar: degree
Encoding: 176 176 114
Width: 355
VWidth: 1494
Flags: W
HStem: 484 60<130.876 231.671> 688 59<130.392 231.671>
VStem: 49 60<565.392 666.546> 253 61<565.392 666.546>
Fore
181 747 m 256,0,1
 236 747 236 747 275 709 c 128,-1,2
 314 671 314 671 314 616 c 256,3,4
 314 561 314 561 275 522.5 c 128,-1,5
 236 484 236 484 181 484 c 256,6,7
 126 484 126 484 87.5 522.5 c 128,-1,8
 49 561 49 561 49 616 c 256,9,10
 49 671 49 671 87.5 709 c 128,-1,11
 126 747 126 747 181 747 c 256,0,1
181 544 m 256,12,13
 211 544 211 544 232 565 c 128,-1,14
 253 586 253 586 253 616 c 256,15,16
 253 646 253 646 232 667 c 128,-1,17
 211 688 211 688 181 688 c 256,18,19
 151 688 151 688 130 667 c 128,-1,20
 109 646 109 646 109 616 c 0,21,22
 111 586 111 586 131 565 c 128,-1,23
 151 544 151 544 181 544 c 256,12,13
EndSplineSet
EndChar
StartChar: plusminus
Encoding: 177 177 115
Width: 641
VWidth: 1494
Flags: W
HStem: 0 90<90 550> 326 96<109 272 368 532> 584 20G<274 368>
VStem: 90 460<0 90> 272 96<142 326 422 604>
Fore
90 90 m 1,0,-1
 550 90 l 1,1,-1
 550 0 l 1,2,-1
 90 0 l 1,3,-1
 90 90 l 1,0,-1
272 142 m 1,4,-1
 272 326 l 1,5,-1
 109 326 l 1,6,-1
 109 422 l 1,7,-1
 274 422 l 1,8,-1
 274 604 l 1,9,-1
 368 604 l 1,10,-1
 368 422 l 1,11,-1
 532 422 l 1,12,-1
 532 326 l 1,13,-1
 368 326 l 1,14,-1
 368 142 l 1,15,-1
 272 142 l 1,4,-1
EndSplineSet
EndChar
StartChar: twosuperior
Encoding: 178 178 116
Width: 436
VWidth: 1494
Flags: W
HStem: 284 75<179 297> 534 21G<74 154>
VStem: 82 72<552 572.788 572.788 580.158 580.158 593.5 613.5 626.077> 280 76<554.75 607.274>
Fore
341 284 m 1,0,-1
 75 284 l 2,1,2
 60 284 60 284 59 295 c 128,-1,3
 58 306 58 306 58 321 c 0,4,5
 58 333 58 333 66.5 340.5 c 128,-1,6
 75 348 75 348 84 353 c 1,7,8
 96 369 96 369 113 391 c 128,-1,9
 130 413 130 413 160 438 c 0,10,11
 206 477 206 477 230 501 c 128,-1,12
 254 525 254 525 266 540 c 0,13,14
 280 556 280 556 280 567 c 2,15,16
 287 587 287 587 275 611 c 128,-1,17
 263 635 263 635 238 643 c 0,18,19
 217 649 217 649 197.5 644.5 c 128,-1,20
 178 640 178 640 165 626.5 c 128,-1,21
 152 613 152 613 148 593.5 c 128,-1,22
 144 574 144 574 154 552 c 1,23,-1
 82 534 l 1,24,25
 66 575 66 575 75 613.5 c 128,-1,26
 84 652 84 652 111 678 c 128,-1,27
 138 704 138 704 177.5 714.5 c 128,-1,28
 217 725 217 725 260 713 c 0,29,30
 300 701 300 701 326.5 667.5 c 128,-1,31
 353 634 353 634 356 586 c 0,32,33
 357 547 357 547 339 516.5 c 128,-1,34
 321 486 321 486 293.5 459.5 c 128,-1,35
 266 433 266 433 234.5 408.5 c 128,-1,36
 203 384 203 384 179 359 c 1,37,-1
 297 359 l 1,38,-1
 317 398 l 1,39,-1
 347 383 l 2,40,41
 360 377 360 377 377 366 c 1,42,-1
 341 284 l 1,0,-1
EndSplineSet
EndChar
StartChar: threesuperior
Encoding: 179 179 117
Width: 454
VWidth: 1494
Flags: W
HStem: 634 75<151 256>
VStem: 69 63<614 651.4> 321 72<402.623 484.077>
Fore
132 416 m 1,0,1
 138 389 138 389 152 374 c 128,-1,2
 166 359 166 359 183 352 c 128,-1,3
 200 345 200 345 218 344.5 c 128,-1,4
 236 344 236 344 248 347 c 0,5,6
 278 354 278 354 301 379.5 c 128,-1,7
 324 405 324 405 321 451 c 0,8,9
 320 471 320 471 308.5 484.5 c 128,-1,10
 297 498 297 498 282.5 505.5 c 128,-1,11
 268 513 268 513 253 513 c 128,-1,12
 238 513 238 513 229 504 c 0,13,14
 226 501 226 501 214 492 c 128,-1,15
 202 483 202 483 194 481 c 1,16,17
 181 481 181 481 167 492 c 0,18,19
 155 504 155 504 149.5 511.5 c 128,-1,20
 144 519 144 519 155 531 c 2,21,-1
 256 634 l 1,22,-1
 151 634 l 1,23,-1
 132 581 l 1,24,25
 122 586.5 l 2,26,27
 112 592 112 592 100 598 c 128,-1,28
 88 604 88 604 79 609 c 128,-1,29
 70 614 70 614 69 614 c 1,30,-1
 96 709 l 1,31,-1
 357 709 l 2,32,33
 386 709 386 709 377 677 c 0,34,35
 369 652 369 652 362.5 645 c 128,-1,36
 356 638 356 638 342 635 c 1,37,-1
 287 574 l 1,38,39
 323 577 323 577 356 545.5 c 128,-1,40
 389 514 389 514 393 457 c 0,41,42
 396 419 396 419 385.5 387.5 c 128,-1,43
 375 356 375 356 356.5 332 c 128,-1,44
 338 308 338 308 313 294 c 128,-1,45
 288 280 288 280 263 274 c 0,46,47
 233 268 233 268 200 272.5 c 128,-1,48
 167 277 167 277 139.5 291.5 c 128,-1,49
 112 306 112 306 90.5 331.5 c 128,-1,50
 69 357 69 357 61 395 c 1,51,-1
 69.5 398 l 2,52,53
 78 401 78 401 90 404 c 128,-1,54
 102 407 102 407 113 410 c 128,-1,55
 124 413 124 413 132 416 c 1,0,1
EndSplineSet
EndChar
StartChar: acute
Encoding: 180 180 118
Width: 381
VWidth: 1494
Flags: W
HStem: 577 157<206 356 356 356>
Fore
217 732 m 1,0,-1
 356 734 l 1,1,-1
 206 577 l 1,2,-1
 120 577 l 1,3,-1
 217 732 l 1,0,-1
EndSplineSet
EndChar
StartChar: mu
Encoding: 181 181 119
Width: 605
VWidth: 1494
Flags: W
HStem: -12 81<235.977 336.541>
VStem: 88 447<-254 9 -254 53> 88 91<-254 15 112.963 522> 422 91<182.465 215 215 522>
Fore
453 -21 m 1,0,1
 442 -1 442 -1 436.5 11.5 c 128,-1,2
 431 24 431 24 428 40 c 1,3,4
 398 10 398 10 359 -1 c 128,-1,5
 320 -12 320 -12 286 -12 c 256,6,7
 251 -12 251 -12 225.5 -4.5 c 128,-1,8
 200 3 200 3 179 15 c 1,9,-1
 179 -254 l 1,10,-1
 88 -254 l 1,11,-1
 88 522 l 1,12,-1
 179 522 l 1,13,-1
 179 182 l 2,14,15
 179 132 179 132 211.5 100.5 c 128,-1,16
 244 69 244 69 296 69 c 0,17,18
 324 69 324 69 348 81.5 c 128,-1,19
 372 94 372 94 388 115 c 128,-1,20
 404 136 404 136 413 162 c 128,-1,21
 422 188 422 188 422 215 c 2,22,-1
 422 522 l 1,23,-1
 513 522 l 1,24,-1
 513 123 l 2,25,26
 513 78 513 78 518 56 c 128,-1,27
 523 34 523 34 535 9 c 1,28,-1
 453 -21 l 1,0,1
EndSplineSet
EndChar
StartChar: paragraph
Encoding: 182 182 120
Width: 745
VWidth: 1494
Flags: W
HStem: -211 21G<489 581> 638 94<399 489 581 656>
VStem: 66 333<428.707 612.262> 309 90<-208 312> 489 92<-209 638>
Fore
277 312 m 2,0,1
 244 312 244 312 207 325 c 128,-1,2
 170 338 170 338 139 363.5 c 128,-1,3
 108 389 108 389 87 427.5 c 128,-1,4
 66 466 66 466 66 520 c 256,5,6
 66 574 66 574 84 613.5 c 128,-1,7
 102 653 102 653 131 679.5 c 128,-1,8
 160 706 160 706 198 719 c 128,-1,9
 236 732 236 732 277 732 c 2,10,-1
 656 732 l 1,11,-1
 656 638 l 1,12,-1
 581 638 l 1,13,-1
 581 -211 l 1,14,-1
 489 -209 l 1,15,-1
 489 638 l 1,16,-1
 399 638 l 1,17,-1
 399 -208 l 1,18,-1
 309 -208 l 1,19,-1
 309 312 l 1,20,-1
 277 312 l 2,0,1
EndSplineSet
EndChar
StartChar: periodcentered
Encoding: 183 183 121
Width: 343
VWidth: 1494
Flags: W
HStem: 257 193<111.406 233.195>
VStem: 75 194<292.501 413.257>
Fore
269 353 m 256,0,1
 269 312 269 312 240.5 284.5 c 128,-1,2
 212 257 212 257 172 257 c 0,3,4
 133 257 133 257 104 284.5 c 128,-1,5
 75 312 75 312 75 353 c 256,6,7
 75 393 75 393 104 421.5 c 128,-1,8
 133 450 133 450 172 450 c 0,9,10
 212 450 212 450 240.5 421.5 c 128,-1,11
 269 393 269 393 269 353 c 256,0,1
EndSplineSet
EndChar
StartChar: cedilla
Encoding: 184 184 122
Width: 322
VWidth: 1494
Flags: W
HStem: -217.5 223.5<107 149 149 149> -217.5 57<99.9336 156.376>
VStem: 39 236<-200 -130 -200 -200>
Fore
275 -130 m 0,0,1
 268 -164 268 -164 241.5 -185 c 128,-1,2
 215 -206 215 -206 180 -213.5 c 128,-1,3
 145 -221 145 -221 107 -217.5 c 128,-1,4
 69 -214 69 -214 39 -200 c 1,5,-1
 67 -144 l 1,6,7
 78 -152 78 -152 97.5 -156.5 c 128,-1,8
 117 -161 117 -161 135.5 -160.5 c 128,-1,9
 154 -160 154 -160 168 -152 c 128,-1,10
 182 -144 182 -144 185 -127 c 0,11,12
 188 -102 188 -102 157.5 -92 c 128,-1,13
 127 -82 127 -82 90 -85 c 1,14,-1
 149 6 l 1,15,-1
 217 6 l 1,16,-1
 175 -48 l 1,17,18
 226 -40 226 -40 254.5 -66.5 c 128,-1,19
 283 -93 283 -93 275 -130 c 0,0,1
EndSplineSet
EndChar
StartChar: onesuperior
Encoding: 185 185 123
Width: 391
VWidth: 1494
Flags: W
HStem: 283 436<221.122 242.5>
VStem: 185 75<283 602>
Fore
260 283 m 1,0,-1
 185 283 l 1,1,-1
 185 602 l 1,2,-1
 123 561 l 1,3,-1
 102 590 l 1,4,-1
 81 620 l 1,5,6
 102.5 634.5 l 2,7,8
 124 649 124 649 150 667 c 128,-1,9
 176 685 176 685 197 699 c 128,-1,10
 218 713 218 713 220 715 c 0,11,12
 232 723 232 723 242.5 719 c 128,-1,13
 253 715 253 715 263 703 c 256,14,15
 274 691 274 691 273 675 c 128,-1,16
 272 659 272 659 260 649 c 1,17,-1
 260 283 l 1,0,-1
EndSplineSet
EndChar
StartChar: ordmasculine
Encoding: 186 186 124
Width: 376
VWidth: 1494
Flags: W
HStem: 280 70<123.578 238.844> 567 70<136.67 236.076>
VStem: 7 77<387.361 526.062> 294 75<386.483 491.417>
Fore
369 460 m 0,0,1
 369 413 369 413 352 378.5 c 128,-1,2
 335 344 335 344 308 322 c 128,-1,3
 281 300 281 300 249 290 c 128,-1,4
 217 280 217 280 187 280 c 0,5,6
 148 280 148 280 115 293 c 128,-1,7
 82 306 82 306 58 329.5 c 128,-1,8
 34 353 34 353 20.5 385 c 128,-1,9
 7 417 7 417 7 454 c 0,10,11
 7 496 7 496 23 530.5 c 128,-1,12
 39 565 39 565 63.5 588 c 128,-1,13
 88 611 88 611 120 624 c 128,-1,14
 152 637 152 637 187 637 c 0,15,16
 229 637 229 637 263 622.5 c 128,-1,17
 297 608 297 608 320.5 584.5 c 128,-1,18
 344 561 344 561 356.5 528.5 c 128,-1,19
 369 496 369 496 369 460 c 0,0,1
294 457 m 0,20,21
 294 475 294 475 288.5 494.5 c 128,-1,22
 283 514 283 514 270 530 c 128,-1,23
 257 546 257 546 237 556.5 c 128,-1,24
 217 567 217 567 188 567 c 0,25,26
 136 567 136 567 110 532.5 c 128,-1,27
 84 498 84 498 84 456 c 0,28,29
 84 402 84 402 117.5 376 c 128,-1,30
 151 350 151 350 188 350 c 0,31,32
 229 350 229 350 261.5 376 c 128,-1,33
 294 402 294 402 294 457 c 0,20,21
EndSplineSet
EndChar
StartChar: guillemotright
Encoding: 187 187 125
Width: 597
VWidth: 1494
Flags: W
HStem: 45 441<280 402 280 280>
VStem: 60 480<45 266 45 45>
Fore
402 45 m 1,0,-1
 280 45 l 1,1,-1
 425 266 l 1,2,-1
 280 486 l 1,3,-1
 402 486 l 1,4,-1
 540 266 l 1,5,-1
 402 45 l 1,0,-1
182 45 m 1,6,-1
 60 45 l 1,7,-1
 205 266 l 1,8,-1
 60 486 l 1,9,-1
 182 486 l 1,10,-1
 320 266 l 1,11,-1
 182 45 l 1,6,-1
EndSplineSet
EndChar
StartChar: onequarter
Encoding: 188 188 126
Width: 943
VWidth: 1494
Flags: W
HStem: -9 21G<202 295> 696 20G<623.055 718>
VStem: 185 75<283 602>
Fore
283 -9 m 1,0,-1
 202 -9 l 1,1,-1
 635 716 l 1,2,-1
 718 716 l 1,3,-1
 283 -9 l 1,0,-1
260 283 m 1,4,-1
 185 283 l 1,5,-1
 185 602 l 1,6,-1
 123 561 l 1,7,-1
 102 590 l 1,8,-1
 81 620 l 1,9,10
 102.5 634.5 l 2,11,12
 124 649 124 649 150 667 c 128,-1,13
 176 685 176 685 197 699 c 128,-1,14
 218 713 218 713 220 715 c 0,15,16
 232 723 232 723 242.5 719 c 128,-1,17
 253 715 253 715 263 703 c 256,18,19
 274 691 274 691 273 675 c 128,-1,20
 272 659 272 659 260 649 c 1,21,-1
 260 283 l 1,4,-1
871 97 m 1,22,-1
 871 170 l 1,23,-1
 798 170 l 1,24,-1
 798 386 l 1,25,26
 803 395 803 395 806 397 c 128,-1,27
 809 399 809 399 806 410 c 1,28,29
 806 407 806 407 802 413 c 128,-1,30
 798 419 798 419 793 427 c 128,-1,31
 788 435 788 435 782 441.5 c 128,-1,32
 776 448 776 448 770 448 c 0,33,34
 756 450 756 450 749 438 c 1,35,-1
 750 439 l 1,36,-1
 514 154 l 1,37,-1
 514 152 l 1,38,39
 504 136 504 136 514.5 117.5 c 128,-1,40
 525 99 525 99 543 97 c 2,41,-1
 725 97 l 1,42,-1
 725 0 l 1,43,-1
 798 0 l 1,44,-1
 798 97 l 1,45,-1
 871 97 l 1,22,-1
726 299 m 1,46,-1
 725 170 l 1,47,-1
 622 170 l 1,48,-1
 726 299 l 1,46,-1
EndSplineSet
Ligature2: "'frac' Diagonal Fractions in Latin lookup 0 subtable" one fraction four
Ligature2: "'frac' Diagonal Fractions in Latin lookup 0 subtable" one slash four
EndChar
StartChar: onehalf
Encoding: 189 189 127
Width: 923
VWidth: 1494
Flags: W
HStem: 0 75<644 762> 696 20G<592.028 686>
VStem: 185 75<283 602> 547 72<268.687 296.158 296.158 309.5 329.5 342.077> 744 77<270.327 325.504>
Fore
806 0 m 1,0,-1
 540 0 l 2,1,2
 525 0 525 0 524 11 c 128,-1,3
 523 22 523 22 523 37 c 0,4,5
 523 49 523 49 531.5 56.5 c 128,-1,6
 540 64 540 64 549 69 c 1,7,8
 561 85 561 85 578 107 c 128,-1,9
 595 129 595 129 625 154 c 0,10,11
 671 193 671 193 695 217 c 128,-1,12
 719 241 719 241 731 256 c 0,13,14
 744 272 744 272 744 283 c 2,15,16
 752 303 752 303 740 327 c 128,-1,17
 728 351 728 351 703 359 c 0,18,19
 682 365 682 365 662.5 360.5 c 128,-1,20
 643 356 643 356 630 342.5 c 128,-1,21
 617 329 617 329 612.5 309.5 c 128,-1,22
 608 290 608 290 619 268 c 1,23,-1
 547 250 l 1,24,25
 531 291 531 291 540 329.5 c 128,-1,26
 549 368 549 368 575.5 394 c 128,-1,27
 602 420 602 420 642 430.5 c 128,-1,28
 682 441 682 441 725 429 c 0,29,30
 765 417 765 417 791.5 383.5 c 128,-1,31
 818 350 818 350 821 302 c 0,32,33
 822 263 822 263 804 232.5 c 128,-1,34
 786 202 786 202 758.5 175.5 c 128,-1,35
 731 149 731 149 699.5 124.5 c 128,-1,36
 668 100 668 100 644 75 c 1,37,-1
 762 75 l 1,38,-1
 782 114 l 1,39,-1
 812 99 l 2,40,41
 825 93 825 93 842 82 c 1,42,-1
 806 0 l 1,0,-1
260 283 m 1,43,-1
 185 283 l 1,44,-1
 185 602 l 1,45,-1
 123 561 l 1,46,-1
 102 590 l 1,47,-1
 81 620 l 1,48,49
 102.5 634.5 l 2,50,51
 124 649 124 649 150 667 c 128,-1,52
 176 685 176 685 197 699 c 128,-1,53
 218 713 218 713 220 715 c 0,54,55
 232 723 232 723 242.5 719 c 128,-1,56
 253 715 253 715 263 703 c 256,57,58
 274 691 274 691 273 675 c 128,-1,59
 272 659 272 659 260 649 c 1,60,-1
 260 283 l 1,43,-1
251 -9 m 1,61,-1
 170 -9 l 1,62,-1
 604 716 l 1,63,-1
 686 716 l 1,64,-1
 251 -9 l 1,61,-1
EndSplineSet
Ligature2: "'frac' Diagonal Fractions in Latin lookup 0 subtable" one fraction two
Ligature2: "'frac' Diagonal Fractions in Latin lookup 0 subtable" one slash two
EndChar
StartChar: threequarters
Encoding: 190 190 128
Width: 938
VWidth: 1494
Flags: W
HStem: -9 21G<248 341> 634 75<151 256>
VStem: 69 63<614 651.4> 321 72<402.623 484.077>
Fore
871 97 m 1,0,-1
 871 170 l 1,1,-1
 798 170 l 1,2,-1
 798 386 l 1,3,4
 803 395 803 395 806 397 c 128,-1,5
 809 399 809 399 806 410 c 1,6,7
 806 407 806 407 802 413 c 128,-1,8
 798 419 798 419 793 427 c 128,-1,9
 788 435 788 435 782 441.5 c 128,-1,10
 776 448 776 448 770 448 c 0,11,12
 756 450 756 450 749 438 c 1,13,-1
 750 439 l 1,14,-1
 514 154 l 1,15,-1
 514 152 l 1,16,17
 504 136 504 136 514.5 117.5 c 128,-1,18
 525 99 525 99 543 97 c 2,19,-1
 725 97 l 1,20,-1
 725 0 l 1,21,-1
 798 0 l 1,22,-1
 798 97 l 1,23,-1
 871 97 l 1,0,-1
726 299 m 1,24,-1
 725 170 l 1,25,-1
 622 170 l 1,26,-1
 726 299 l 1,24,-1
132 416 m 1,27,28
 138 389 138 389 152 374 c 128,-1,29
 166 359 166 359 183 352 c 128,-1,30
 200 345 200 345 218 344.5 c 128,-1,31
 236 344 236 344 248 347 c 0,32,33
 278 354 278 354 301 379.5 c 128,-1,34
 324 405 324 405 321 451 c 0,35,36
 320 471 320 471 308.5 484.5 c 128,-1,37
 297 498 297 498 282.5 505.5 c 128,-1,38
 268 513 268 513 253 513 c 128,-1,39
 238 513 238 513 229 504 c 0,40,41
 226 501 226 501 214 492 c 128,-1,42
 202 483 202 483 194 481 c 1,43,44
 181 481 181 481 167 492 c 0,45,46
 155 504 155 504 149.5 511.5 c 128,-1,47
 144 519 144 519 155 531 c 2,48,-1
 256 634 l 1,49,-1
 151 634 l 1,50,-1
 132 581 l 1,51,52
 122 586.5 l 2,53,54
 112 592 112 592 100 598 c 128,-1,55
 88 604 88 604 79 609 c 128,-1,56
 70 614 70 614 69 614 c 1,57,-1
 96 709 l 1,58,-1
 357 709 l 2,59,60
 386 709 386 709 377 677 c 0,61,62
 369 652 369 652 362.5 645 c 128,-1,63
 356 638 356 638 342 635 c 1,64,-1
 287 574 l 1,65,66
 323 577 323 577 356 545.5 c 128,-1,67
 389 514 389 514 393 457 c 0,68,69
 396 419 396 419 385.5 387.5 c 128,-1,70
 375 356 375 356 356.5 332 c 128,-1,71
 338 308 338 308 313 294 c 128,-1,72
 288 280 288 280 263 274 c 0,73,74
 233 268 233 268 200 272.5 c 128,-1,75
 167 277 167 277 139.5 291.5 c 128,-1,76
 112 306 112 306 90.5 331.5 c 128,-1,77
 69 357 69 357 61 395 c 1,78,-1
 69.5 398 l 2,79,80
 78 401 78 401 90 404 c 128,-1,81
 102 407 102 407 113 410 c 128,-1,82
 124 413 124 413 132 416 c 1,27,28
329 -9 m 1,83,-1
 248 -9 l 1,84,-1
 682 716 l 1,85,-1
 764 716 l 1,86,-1
 329 -9 l 1,83,-1
EndSplineSet
Ligature2: "'frac' Diagonal Fractions in Latin lookup 0 subtable" three fraction four
Ligature2: "'frac' Diagonal Fractions in Latin lookup 0 subtable" three slash four
EndChar
StartChar: questiondown
Encoding: 191 191 129
Width: 596
VWidth: 1494
Flags: W
HStem: 377 134<273.081 369.404>
VStem: 254 135<397.112 492.435> 269 105<206.848 348>
Fore
144 -145 m 0,0,1
 115 -108 115 -108 109 -70.5 c 128,-1,2
 103 -33 103 -33 113 2 c 128,-1,3
 123 37 123 37 143 68.5 c 128,-1,4
 163 100 163 100 185 126 c 0,5,6
 218 164 218 164 243.5 201 c 128,-1,7
 269 238 269 238 269 286 c 2,8,-1
 269 348 l 1,9,-1
 374 348 l 1,10,-1
 374 286 l 2,11,12
 374 221 374 221 341.5 174 c 128,-1,13
 309 127 309 127 274 87 c 0,14,15
 229 36 229 36 212.5 -2 c 128,-1,16
 196 -40 196 -40 220 -84 c 0,17,18
 247 -133 247 -133 326 -127 c 0,19,20
 357 -124 357 -124 391.5 -98.5 c 128,-1,21
 426 -73 426 -73 438 -39 c 1,22,-1
 507 -84 l 1,23,24
 489 -135 489 -135 448.5 -168.5 c 128,-1,25
 408 -202 408 -202 350 -209 c 0,26,27
 291 -218 291 -218 233.5 -203 c 128,-1,28
 176 -188 176 -188 144 -145 c 0,0,1
254 445 m 256,29,30
 254 475 254 475 272.5 493 c 128,-1,31
 291 511 291 511 321 511 c 256,32,33
 351 511 351 511 370 493 c 128,-1,34
 389 475 389 475 389 445 c 256,35,36
 389 416 389 416 370 396.5 c 128,-1,37
 351 377 351 377 321 377 c 256,38,39
 291 377 291 377 272.5 396.5 c 128,-1,40
 254 416 254 416 254 445 c 256,29,30
EndSplineSet
EndChar
StartChar: Aring
Encoding: 197 197 134
Width: 684
VWidth: 1494
Flags: W
HStem: -18 21G<19 128.488 557.217 665> 185 93<233 450> 782 69<302.502 380.046> 955 66<302.017 380.046>
VStem: 221 67<864.959 941.423> 393 69<864.278 942.101>
Fore
341 851 m 0,0,1
 363 851 363 851 378 866.5 c 128,-1,2
 393 882 393 882 393 903 c 256,3,4
 393 924 393 924 378 939.5 c 128,-1,5
 363 955 363 955 341 955 c 0,6,7
 320 955 320 955 304 939.5 c 128,-1,8
 288 924 288 924 288 903 c 0,9,10
 290 882 290 882 305 866.5 c 128,-1,11
 320 851 320 851 341 851 c 0,0,1
341 1021 m 256,12,13
 392 1021 392 1021 427 986.5 c 128,-1,14
 462 952 462 952 462 901 c 256,15,16
 462 851 462 851 427 816.5 c 128,-1,17
 392 782 392 782 341 782 c 256,18,19
 290 782 290 782 255.5 816.5 c 128,-1,20
 221 851 221 851 221 901 c 256,21,22
 221 952 221 952 255.5 986.5 c 128,-1,23
 290 1021 290 1021 341 1021 c 256,12,13
665 0 m 1,24,-1
 565 -18 l 1,25,-1
 486 185 l 1,26,-1
 197 185 l 1,27,-1
 121 -18 l 1,28,-1
 19 0 l 1,29,-1
 291 680 l 2,30,31
 294 689 294 689 305.5 706 c 128,-1,32
 317 723 317 723 333 732 c 0,33,34
 341 737 341 737 352 735.5 c 128,-1,35
 363 734 363 734 374.5 729.5 c 128,-1,36
 386 725 386 725 395.5 719 c 128,-1,37
 405 713 405 713 408 709 c 0,38,39
 420 695 420 695 412.5 681.5 c 128,-1,40
 405 668 405 668 402 662 c 1,41,-1
 665 0 l 1,24,-1
341 564 m 1,42,-1
 233 278 l 1,43,-1
 450 278 l 1,44,-1
 341 564 l 1,42,-1
EndSplineSet
EndChar
StartChar: AE
Encoding: 198 198 135
Width: 970
VWidth: 1494
Flags: W
HStem: 1 101<629 924> 184 93<335 525> 320 100<629 894> 613 102<628 924>
VStem: 525.5 102.5<102 184 277 320 421.22 490.335 490.335 590>
Fore
629 320 m 1,0,-1
 629 102 l 1,1,-1
 924 102 l 1,2,-1
 924 1 l 1,3,-1
 599 1 l 2,4,5
 570 1 570 1 547.5 23 c 128,-1,6
 525 45 525 45 525 75 c 2,7,-1
 525 184 l 1,8,-1
 281 184 l 1,9,-1
 149 -19 l 1,10,-1
 49 27 l 1,11,-1
 456 655 l 2,12,13
 493 715 493 715 564 715 c 2,14,-1
 925 715 l 1,15,-1
 924 613 l 1,16,-1
 628 613 l 1,17,-1
 628 420 l 1,18,-1
 894 420 l 1,19,-1
 895 320 l 1,20,-1
 629 320 l 1,0,-1
335 277 m 1,21,-1
 525 277 l 1,22,23
 525 320 525 320 525 365 c 128,-1,24
 525 410 525 410 525.5 451.5 c 128,-1,25
 526 493 526 493 526 529 c 128,-1,26
 526 565 526 565 526 590 c 1,27,-1
 335 277 l 1,21,-1
EndSplineSet
EndChar
StartChar: Eth
Encoding: 208 208 145
Width: 780
VWidth: 1494
Flags: W
HStem: 0 102<194 422.268> 324 75<0 94 194 342> 610 100<194 398.85>
VStem: 94 100<102 324 399 603.915> 528 104<223.886 481.016>
Fore
0 399 m 1,0,-1
 94 399 l 1,1,-1
 94 589 l 2,2,3
 94 602 94 602 85 612.5 c 128,-1,4
 76 623 76 623 67 632 c 128,-1,5
 58 641 58 641 52 650 c 128,-1,6
 46 659 46 659 51 670 c 0,7,8
 54 677 54 677 60.5 687.5 c 128,-1,9
 67 698 67 698 76 707 c 128,-1,10
 85 716 85 716 95.5 721 c 128,-1,11
 106 726 106 726 117 722 c 0,12,13
 121 719 121 719 126.5 716 c 128,-1,14
 132 713 132 713 138 710 c 1,15,-1
 300 710 l 2,16,17
 466 710 466 710 549 616 c 128,-1,18
 632 522 632 522 632 356 c 0,19,20
 632 184 632 184 547 92 c 128,-1,21
 462 0 462 0 300 0 c 2,22,-1
 94 0 l 1,23,-1
 94 324 l 1,24,-1
 0 324 l 1,25,-1
 0 399 l 1,0,-1
528 356 m 0,26,27
 528 610 528 610 278 610 c 2,28,-1
 194 610 l 1,29,-1
 194 399 l 1,30,-1
 342 399 l 1,31,-1
 342 324 l 1,32,-1
 194 324 l 1,33,-1
 194 102 l 1,34,-1
 312 102 l 2,35,36
 429 102 429 102 478.5 170 c 128,-1,37
 528 238 528 238 528 356 c 0,26,27
EndSplineSet
EndChar
StartChar: multiply
Encoding: 215 215 152
Width: 641
VWidth: 1494
Flags: W
VStem: 79 494<70 72 70 70>
Fore
508 12 m 1,0,-1
 327 202 l 1,1,2
 294 169 294 169 277 152 c 128,-1,3
 260 135 260 135 250.5 124.5 c 128,-1,4
 241 114 241 114 235 107 c 128,-1,5
 229 100 229 100 219 89.5 c 128,-1,6
 209 79 209 79 192 61 c 128,-1,7
 175 43 175 43 144 10 c 1,8,-1
 79 70 l 1,9,-1
 263 260 l 1,10,-1
 79 450 l 1,11,-1
 144 510 l 1,12,-1
 326 318 l 1,13,-1
 504 507 l 1,14,-1
 568 447 l 1,15,-1
 387 260 l 1,16,-1
 573 72 l 1,17,-1
 508 12 l 1,0,-1
EndSplineSet
EndChar
StartChar: Oslash
Encoding: 216 216 153
Width: 730
VWidth: 1494
Flags: W
HStem: -9 99<278.396 448.238> 629 99<278.384 447.794>
VStem: 73 102<260.419 459.699> 550 102<257.525 497.305>
Fore
661 755 m 1,0,-1
 578 623 l 1,1,2
 652 525 652 525 652 360 c 0,3,4
 652 275 652 275 631.5 207 c 128,-1,5
 611 139 611 139 574 90.5 c 128,-1,6
 537 42 537 42 484 16.5 c 128,-1,7
 431 -9 431 -9 363 -9 c 0,8,9
 272 -9 272 -9 208 36 c 1,10,-1
 130 -87 l 1,11,-1
 67 -48 l 1,12,-1
 152 88 l 1,13,14
 114 136 114 136 93.5 205 c 128,-1,15
 73 274 73 274 73 360 c 0,16,17
 73 436 73 436 90.5 503 c 128,-1,18
 108 570 108 570 143 620 c 128,-1,19
 178 670 178 670 232.5 699 c 128,-1,20
 287 728 287 728 363 728 c 0,21,22
 456 728 456 728 525 677 c 1,23,-1
 598 794 l 1,24,-1
 661 755 l 1,0,-1
175 360 m 0,25,26
 175 308 175 308 184.5 262.5 c 128,-1,27
 194 217 194 217 214 182 c 1,28,-1
 471 590 l 1,29,30
 428 629 428 629 363 629 c 0,31,32
 311 629 311 629 275 605 c 128,-1,33
 239 581 239 581 216.5 543 c 128,-1,34
 194 505 194 505 184.5 457.5 c 128,-1,35
 175 410 175 410 175 360 c 0,25,26
550 360 m 0,36,37
 550 456 550 456 517 526 c 1,38,-1
 262 123 l 1,39,40
 303 90 303 90 363 90 c 0,41,42
 414 90 414 90 450 112.5 c 128,-1,43
 486 135 486 135 508.5 173 c 128,-1,44
 531 211 531 211 540.5 259.5 c 128,-1,45
 550 308 550 308 550 360 c 0,36,37
EndSplineSet
EndChar
StartChar: Thorn
Encoding: 222 222 159
Width: 727
VWidth: 1494
Flags: W
HStem: 96 113<200 438.934> 532 99<200 385.45>
VStem: 93 107<-126 96 209 532 631 801> 540 110<283.21 447.397>
Fore
650 374 m 0,0,1
 650 299 650 299 624.5 246.5 c 128,-1,2
 599 194 599 194 553 160.5 c 128,-1,3
 507 127 507 127 441 111.5 c 128,-1,4
 375 96 375 96 294 96 c 2,5,-1
 200 96 l 1,6,-1
 200 -126 l 1,7,-1
 93 -126 l 1,8,-1
 93 801 l 1,9,-1
 200 801 l 1,10,-1
 200 631 l 1,11,-1
 329 631 l 2,12,13
 396 632 396 632 455 617 c 128,-1,14
 514 602 514 602 557.5 570 c 128,-1,15
 601 538 601 538 625.5 489.5 c 128,-1,16
 650 441 650 441 650 374 c 0,0,1
540 369 m 0,17,18
 540 413 540 413 523.5 443.5 c 128,-1,19
 507 474 507 474 479 494 c 128,-1,20
 451 514 451 514 414.5 523 c 128,-1,21
 378 532 378 532 338 532 c 2,22,-1
 200 532 l 1,23,-1
 200 209 l 1,24,-1
 312 209 l 2,25,26
 423 209 423 209 481.5 246.5 c 128,-1,27
 540 284 540 284 540 369 c 0,17,18
EndSplineSet
EndChar
StartChar: uni00DF
Encoding: 223 223 160
Width: 689
VWidth: 1494
Flags: W
HStem: -6 97<277 377.589> 401 97<277 388.232> 637.5 82.5<251.267 357.5>
VStem: 91 103<-193 575.185> 514 99<209.564 307.639>
Fore
277 -6 m 1,0,-1
 277 91 l 1,1,-1
 341 91 l 2,2,3
 375 91 375 91 407 102.5 c 128,-1,4
 439 114 439 114 463 135.5 c 128,-1,5
 487 157 487 157 501.5 185.5 c 128,-1,6
 516 214 516 214 514 248 c 0,7,8
 514 281 514 281 501.5 308.5 c 128,-1,9
 489 336 489 336 466.5 356.5 c 128,-1,10
 444 377 444 377 415.5 389 c 128,-1,11
 387 401 387 401 356 401 c 2,12,-1
 275 401 l 1,13,-1
 277 498 l 1,14,-1
 362 498 l 2,15,16
 395 502 395 502 410 520 c 128,-1,17
 425 538 425 538 424 560.5 c 128,-1,18
 423 583 423 583 407.5 604 c 128,-1,19
 392 625 392 625 365 632 c 0,20,21
 335 641 335 641 305 637.5 c 128,-1,22
 275 634 275 634 250.5 618 c 128,-1,23
 226 602 226 602 210 576 c 128,-1,24
 194 550 194 550 194 513 c 2,25,-1
 194 -191 l 2,26,27
 194 -193 194 -193 177.5 -193.5 c 128,-1,28
 161 -194 161 -194 142.5 -194 c 128,-1,29
 124 -194 124 -194 108.5 -193.5 c 128,-1,30
 93 -193 93 -193 91 -193 c 1,31,-1
 91 520 l 2,32,33
 91 614 91 614 147 667 c 128,-1,34
 203 720 203 720 297 720 c 0,35,36
 386 725 386 725 443.5 696 c 128,-1,37
 501 667 501 667 525.5 623.5 c 128,-1,38
 550 580 550 580 541 531.5 c 128,-1,39
 532 483 532 483 489 448 c 1,40,41
 519 438 519 438 537.5 422.5 c 128,-1,42
 556 407 556 407 573 383 c 0,43,44
 613 324 613 324 613 244 c 0,45,46
 613 191 613 191 592 145.5 c 128,-1,47
 571 100 571 100 536 66.5 c 128,-1,48
 501 33 501 33 453 13.5 c 128,-1,49
 405 -6 405 -6 351 -6 c 2,50,-1
 277 -6 l 1,0,-1
EndSplineSet
EndChar
StartChar: ae
Encoding: 230 230 167
Width: 988
VWidth: 1494
Flags: W
HStem: -12 97<214.292 356.012> 227 91<535 830> 433 96<211.78 352.369> 444 93<612.154 767.962>
VStem: 48 90<191.866 327.276> 426 99<478 535>
Fore
688 537 m 0,0,1
 750 537 750 537 796.5 514.5 c 128,-1,2
 843 492 843 492 873 456 c 128,-1,3
 903 420 903 420 917 374.5 c 128,-1,4
 931 329 931 329 930 283 c 0,5,6
 926 259 l 128,-1,7
 924 247 924 247 912 238 c 0,8,9
 900 227 900 227 867 227 c 2,10,-1
 535 227 l 1,11,12
 535 175 535 175 560.5 142 c 128,-1,13
 586 109 586 109 625.5 95.5 c 128,-1,14
 665 82 665 82 712 89.5 c 128,-1,15
 759 97 759 97 804 127 c 1,16,-1
 862 49 l 1,17,18
 837 28 837 28 796.5 13.5 c 128,-1,19
 756 -1 756 -1 710 -5.5 c 128,-1,20
 664 -10 664 -10 617 -1.5 c 128,-1,21
 570 7 570 7 529 34 c 1,22,-1
 529 24 l 2,23,24
 529 14 l 128,-1,25
 529 9 529 9 531 3 c 1,26,-1
 429 3 l 1,27,-1
 428 58 l 1,28,29
 398 24 398 24 359.5 6 c 128,-1,30
 321 -12 321 -12 274 -12 c 0,31,32
 220 -12 220 -12 178 10.5 c 128,-1,33
 136 33 136 33 107 71 c 128,-1,34
 78 109 78 109 63 157.5 c 128,-1,35
 48 206 48 206 48 259 c 256,36,37
 48 311 48 311 63.5 360.5 c 128,-1,38
 79 410 79 410 109 447 c 128,-1,39
 139 484 139 484 180 506.5 c 128,-1,40
 221 529 221 529 274 529 c 0,41,42
 368 529 368 529 426 462 c 1,43,-1
 426 535 l 1,44,-1
 525 535 l 1,45,-1
 525 478 l 1,46,47
 556 505 556 505 597 521 c 128,-1,48
 638 537 638 537 688 537 c 0,0,1
369 117 m 0,49,50
 401 145 401 145 413.5 185.5 c 128,-1,51
 426 226 426 226 426 259 c 0,52,53
 426 286 426 286 418.5 316.5 c 128,-1,54
 411 347 411 347 394 373 c 128,-1,55
 377 399 377 399 349 416 c 128,-1,56
 321 433 321 433 281 433 c 0,57,58
 242 433 242 433 214.5 416 c 128,-1,59
 187 399 187 399 169.5 373 c 128,-1,60
 152 347 152 347 145 316.5 c 128,-1,61
 138 286 138 286 138 259 c 0,62,63
 138 229 138 229 146.5 198 c 128,-1,64
 155 167 155 167 173 142.5 c 128,-1,65
 191 118 191 118 218 101.5 c 128,-1,66
 245 85 245 85 281 85 c 0,67,68
 333 85 333 85 369 117 c 0,49,50
534 318 m 1,69,-1
 830 318 l 1,70,71
 827 369 827 369 788 406.5 c 128,-1,72
 749 444 749 444 686 444 c 0,73,74
 647 444 647 444 620 431.5 c 128,-1,75
 593 419 593 419 574.5 399.5 c 128,-1,76
 556 380 556 380 546.5 358 c 128,-1,77
 537 336 537 336 534 318 c 1,69,-1
EndSplineSet
EndChar
StartChar: eth
Encoding: 240 240 177
Width: 621
VWidth: 1494
Flags: W
VStem: 32.5 90.5<162.912 306.744> 495 92<177.798 358.219>
Fore
154 827 m 1,0,1
 172 821 172 821 195 810.5 c 128,-1,2
 218 800 218 800 243.5 786.5 c 128,-1,3
 269 773 269 773 292 759.5 c 128,-1,4
 315 746 315 746 333 734 c 1,5,6
 350 741 350 741 372.5 752.5 c 128,-1,7
 395 764 395 764 417 773 c 0,8,9
 442 783 442 783 471 794 c 1,10,11
 475 782 475 782 486.5 758 c 128,-1,12
 498 734 498 734 504 722 c 1,13,14
 474 709 474 709 450 700 c 128,-1,15
 426 691 426 691 396 677 c 1,16,17
 487 599 487 599 537 497.5 c 128,-1,18
 587 396 587 396 587 272 c 0,19,20
 587 212 587 212 568.5 154.5 c 128,-1,21
 550 97 550 97 502 54 c 256,22,23
 454 10 454 10 388.5 -6 c 128,-1,24
 323 -22 323 -22 258.5 -11.5 c 128,-1,25
 194 -1 194 -1 139.5 36 c 128,-1,26
 85 73 85 73 58 139 c 0,27,28
 31 203 31 203 32.5 264.5 c 128,-1,29
 34 326 34 326 56.5 377.5 c 128,-1,30
 79 429 79 429 119.5 466.5 c 128,-1,31
 160 504 160 504 213 522.5 c 128,-1,32
 266 541 266 541 326.5 536.5 c 128,-1,33
 387 532 387 532 451 499 c 1,34,35
 423 543 423 543 391 575.5 c 128,-1,36
 359 608 359 608 318 637 c 1,37,38
 278 619 278 619 229.5 595 c 128,-1,39
 181 571 181 571 142 555 c 1,40,41
 138 567 138 567 128 590 c 128,-1,42
 118 613 118 613 114 625 c 1,43,44
 148 641 148 641 184 658.5 c 128,-1,45
 220 676 220 676 256 692 c 1,46,47
 224 710 224 710 186 728.5 c 128,-1,48
 148 747 148 747 114 759 c 1,49,50
 120 771 120 771 133 793 c 128,-1,51
 146 815 146 815 154 827 c 1,0,1
495 265 m 0,52,53
 496 330 496 330 464.5 375 c 128,-1,54
 433 420 433 420 387 440 c 128,-1,55
 341 460 341 460 286.5 455 c 128,-1,56
 232 450 232 450 187 414 c 0,57,58
 149 386 149 386 135 342.5 c 128,-1,59
 121 299 121 299 123 253 c 0,60,61
 123 191 123 191 155.5 145 c 128,-1,62
 188 99 188 99 235.5 76.5 c 128,-1,63
 283 54 283 54 336 58.5 c 128,-1,64
 389 63 389 63 432 102 c 0,65,66
 466 135 466 135 479.5 176.5 c 128,-1,67
 493 218 493 218 495 265 c 0,52,53
EndSplineSet
EndChar
StartChar: divide
Encoding: 247 247 184
Width: 747
VWidth: 1494
Flags: W
HStem: 1 150<312.174 414.466> 208 104<91 649> 372 151<312.174 414.466>
VStem: 290 148<25.7512 128.826 396.235 499.28>
Fore
438 447 m 0,0,1
 438 419 438 419 416.5 395.5 c 128,-1,2
 395 372 395 372 365 372 c 0,3,4
 333 372 333 372 311.5 394 c 128,-1,5
 290 416 290 416 290 447 c 256,6,7
 290 478 290 478 311.5 500.5 c 128,-1,8
 333 523 333 523 365 523 c 0,9,10
 395 523 395 523 416.5 500 c 128,-1,11
 438 477 438 477 438 447 c 0,0,1
438 78 m 0,12,13
 438 49 438 49 416.5 25 c 128,-1,14
 395 1 395 1 365 1 c 0,15,16
 333 1 333 1 311.5 23.5 c 128,-1,17
 290 46 290 46 290 78 c 256,18,19
 290 109 290 109 311.5 130 c 128,-1,20
 333 151 333 151 365 151 c 0,21,22
 395 151 395 151 416.5 129.5 c 128,-1,23
 438 108 438 108 438 78 c 0,12,13
91 312 m 1,24,-1
 649 312 l 1,25,-1
 649 208 l 1,26,-1
 91 208 l 1,27,-1
 91 312 l 1,24,-1
EndSplineSet
EndChar
StartChar: oslash
Encoding: 248 248 185
Width: 621
VWidth: 1494
Flags: W
HStem: -10 97<241.666 389.297> 431 97<239.788 373.327> 578 20G<479.863 522.444>
VStem: 78 85<218.662 298.481> 462 84<193.378 322.823>
Fore
546 562 m 1,0,-1
 475 456 l 1,1,2
 513 414 513 414 529.5 359.5 c 128,-1,3
 546 305 546 305 546 259 c 0,4,5
 546 206 546 206 525.5 144 c 128,-1,6
 505 82 505 82 454 39 c 0,7,8
 396 -10 396 -10 312 -10 c 0,9,10
 241 -10 241 -10 187 25 c 1,11,-1
 117 -81 l 1,12,-1
 64 -45 l 1,13,-1
 141 70 l 1,14,15
 106 112 106 112 92 163.5 c 128,-1,16
 78 215 78 215 78 259 c 0,17,18
 78 299 78 299 90.5 346 c 128,-1,19
 103 393 103 393 130.5 433.5 c 128,-1,20
 158 474 158 474 203 501 c 128,-1,21
 248 528 248 528 312 528 c 0,22,23
 378 528 378 528 426 496 c 1,24,-1
 493 598 l 1,25,-1
 546 562 l 1,0,-1
163 259 m 256,26,27
 163 233 163 233 170.5 204 c 128,-1,28
 178 175 178 175 194 149 c 1,29,-1
 374 417 l 1,30,31
 347 431 347 431 312 431 c 0,32,33
 271 431 271 431 242.5 413.5 c 128,-1,34
 214 396 214 396 196 370 c 128,-1,35
 178 344 178 344 170.5 314 c 128,-1,36
 163 284 163 284 163 259 c 256,26,27
462 259 m 0,37,38
 462 287 462 287 453 319 c 128,-1,39
 444 351 444 351 423 378 c 1,40,-1
 241 105 l 1,41,42
 272 87 272 87 312 87 c 0,43,44
 366 87 366 87 402 118 c 0,45,46
 436 145 436 145 449 184.5 c 128,-1,47
 462 224 462 224 462 259 c 0,37,38
EndSplineSet
EndChar
StartChar: thorn
Encoding: 254 254 191
Width: 730
VWidth: 1494
Flags: W
HStem: -27 93<290.028 442.088> 450 94<290.028 442.088>
VStem: 93 107<-236 31 484 743> 93 94<184.095 332.421> 546 94<175.603 340.503>
Fore
187 259 m 256,0,1
 187 218 187 218 201 183 c 128,-1,2
 215 148 215 148 239 122 c 128,-1,3
 263 96 263 96 296 81 c 128,-1,4
 329 66 329 66 366 66 c 256,5,6
 404 66 404 66 436 81 c 128,-1,7
 468 96 468 96 492.5 122 c 128,-1,8
 517 148 517 148 531.5 183 c 128,-1,9
 546 218 546 218 546 259 c 256,10,11
 546 299 546 299 531.5 333.5 c 128,-1,12
 517 368 517 368 492.5 394 c 128,-1,13
 468 420 468 420 436 435 c 128,-1,14
 404 450 404 450 366 450 c 256,15,16
 329 450 329 450 296 435 c 128,-1,17
 263 420 263 420 239 394 c 128,-1,18
 215 368 215 368 201 333.5 c 128,-1,19
 187 299 187 299 187 259 c 256,0,1
93 743 m 1,20,-1
 200 743 l 1,21,-1
 200 484 l 1,22,23
 235 513 235 513 276.5 528.5 c 128,-1,24
 318 544 318 544 366 544 c 0,25,26
 423 544 423 544 473 521.5 c 128,-1,27
 523 499 523 499 559.5 460.5 c 128,-1,28
 596 422 596 422 618 370 c 128,-1,29
 640 318 640 318 640 259 c 256,30,31
 640 199 640 199 618 147.5 c 128,-1,32
 596 96 596 96 559.5 57 c 128,-1,33
 523 18 523 18 473 -4.5 c 128,-1,34
 423 -27 423 -27 366 -27 c 0,35,36
 318 -27 318 -27 276.5 -11.5 c 128,-1,37
 235 4 235 4 200 31 c 1,38,-1
 200 -236 l 1,39,-1
 93 -236 l 1,40,-1
 93 743 l 1,20,-1
EndSplineSet
EndChar
StartChar: Lslash
Encoding: 321 321 193
Width: 527
VWidth: 1494
Flags: W
HStem: 0 91<193 513> 505 20G<279.605 308> 693 20G<91 193>
VStem: 91 102<97.0846 303 444 713>
Fore
0 311 m 1,0,-1
 91 374 l 1,1,-1
 91 713 l 1,2,-1
 193 713 l 1,3,-1
 193 444 l 1,4,-1
 308 525 l 1,5,-1
 308 454 l 1,6,-1
 193 374 l 1,7,-1
 193 91 l 1,8,-1
 513 91 l 1,9,-1
 513 0 l 1,10,-1
 151 0 l 1,11,12
 144 -7 144 -7 131 -12.5 c 128,-1,13
 118 -18 118 -18 114 -21 c 0,14,15
 103 -25 103 -25 92.5 -20 c 128,-1,16
 82 -15 82 -15 73 -6 c 128,-1,17
 64 3 64 3 57.5 13.5 c 128,-1,18
 51 24 51 24 48 31 c 0,19,20
 43 42 43 42 49 51 c 128,-1,21
 55 60 55 60 64 69 c 128,-1,22
 73 78 73 78 82 88.5 c 128,-1,23
 91 99 91 99 91 112 c 2,24,-1
 91 303 l 1,25,-1
 0 241 l 1,26,-1
 0 311 l 1,0,-1
EndSplineSet
EndChar
StartChar: lslash
Encoding: 322 322 194
Width: 273
VWidth: 1494
Flags: W
HStem: 0 21G<91 182> 511 20G<255.268 284>
VStem: 0 284<333 531 86 333> 91 91<0 327 460 707>
Fore
0 333 m 1,0,-1
 91 396 l 1,1,-1
 91 707 l 1,2,-1
 130 741 l 1,3,-1
 182 741 l 1,4,-1
 182 460 l 1,5,-1
 284 531 l 1,6,-1
 284 462 l 1,7,-1
 182 392 l 1,8,-1
 182 0 l 1,9,-1
 91 0 l 1,10,-1
 91 327 l 1,11,-1
 0 265 l 1,12,-1
 0 333 l 1,0,-1
EndSplineSet
EndChar
StartChar: OE
Encoding: 338 338 195
Width: 1025
VWidth: 1494
Flags: W
HStem: -13 98<281.496 445.303> 1 101<653 949> 318 102<653 919> 611 102<653 951> 628 98<280.689 446.012>
VStem: 75 100<262.393 450.456>
Fore
951 611 m 1,0,-1
 653 611 l 1,1,-1
 653 420 l 1,2,-1
 919 420 l 1,3,-1
 921 318 l 1,4,-1
 653 318 l 1,5,-1
 653 102 l 1,6,-1
 949 102 l 1,7,-1
 949 1 l 1,8,-1
 625 1 l 2,9,10
 596 1 596 1 576 18.5 c 128,-1,11
 556 36 556 36 553 64 c 1,12,13
 517 28 517 28 469.5 7.5 c 128,-1,14
 422 -13 422 -13 365 -13 c 0,15,16
 288 -13 288 -13 233.5 17.5 c 128,-1,17
 179 48 179 48 143.5 99.5 c 128,-1,18
 108 151 108 151 91.5 218.5 c 128,-1,19
 75 286 75 286 75 357 c 0,20,21
 75 425 75 425 90.5 490.5 c 128,-1,22
 106 556 106 556 140.5 608.5 c 128,-1,23
 175 661 175 661 230.5 693.5 c 128,-1,24
 286 726 286 726 365 726 c 0,25,26
 425 726 425 726 471 705.5 c 128,-1,27
 517 685 517 685 552 650 c 1,28,29
 558 680 558 680 578.5 696.5 c 128,-1,30
 599 713 599 713 628 713 c 2,31,-1
 951 713 l 1,32,-1
 951 611 l 1,0,-1
365 85 m 0,33,34
 413 85 413 85 446.5 107.5 c 128,-1,35
 480 130 480 130 502.5 165 c 128,-1,36
 525 200 525 200 536 244 c 128,-1,37
 547 288 547 288 550 332 c 2,38,-1
 550 384 l 2,39,40
 547 425 547 425 536.5 468 c 128,-1,41
 526 511 526 511 503.5 547 c 128,-1,42
 481 583 481 583 447.5 605.5 c 128,-1,43
 414 628 414 628 365 628 c 0,44,45
 312 628 312 628 276.5 604 c 128,-1,46
 241 580 241 580 218.5 541 c 128,-1,47
 196 502 196 502 185.5 454.5 c 128,-1,48
 175 407 175 407 175 357 c 0,49,50
 175 314 175 314 184.5 266 c 128,-1,51
 194 218 194 218 216 178 c 128,-1,52
 238 138 238 138 274.5 111.5 c 128,-1,53
 311 85 311 85 365 85 c 0,33,34
EndSplineSet
EndChar
StartChar: oe
Encoding: 339 339 196
Width: 979
VWidth: 1494
Flags: W
HStem: -10 97<210.585 358.757> 221 91<534 830> 431 95<215.024 346.732 611.205 766.446>
VStem: 46 86<194.514 299.37>
Fore
686 529 m 0,0,1
 749 529 749 529 795.5 506.5 c 128,-1,2
 842 484 842 484 871.5 448.5 c 128,-1,3
 901 413 901 413 915.5 367 c 128,-1,4
 930 321 930 321 928 277 c 0,5,6
 928 247 928 247 912.5 234 c 128,-1,7
 897 221 897 221 865 221 c 2,8,-1
 534 221 l 1,9,10
 534 169 534 169 559 136 c 128,-1,11
 584 103 584 103 624 89.5 c 128,-1,12
 664 76 664 76 711 83.5 c 128,-1,13
 758 91 758 91 803 121 c 1,14,-1
 861 43 l 1,15,16
 831 13 831 13 775.5 -2.5 c 128,-1,17
 720 -18 720 -18 661 -14 c 128,-1,18
 602 -10 602 -10 548.5 16 c 128,-1,19
 495 42 495 42 468 96 c 1,20,21
 438 48 438 48 390 19 c 128,-1,22
 342 -10 342 -10 281 -10 c 0,23,24
 224 -10 224 -10 180 13.5 c 128,-1,25
 136 37 136 37 106 76 c 128,-1,26
 76 115 76 115 61 163 c 128,-1,27
 46 211 46 211 46 259 c 0,28,29
 46 299 46 299 59 346 c 128,-1,30
 72 393 72 393 99.5 432.5 c 128,-1,31
 127 472 127 472 172 499 c 128,-1,32
 217 526 217 526 281 526 c 0,33,34
 353 526 353 526 399 494 c 128,-1,35
 445 462 445 462 472 416 c 1,36,37
 507 468 507 468 560 498.5 c 128,-1,38
 613 529 613 529 686 529 c 0,0,1
371 117 m 0,39,40
 395 138 395 138 408.5 169 c 128,-1,41
 422 200 422 200 429 250 c 1,42,43
 429 278 429 278 421.5 310 c 128,-1,44
 414 342 414 342 397 369 c 128,-1,45
 380 396 380 396 351.5 413.5 c 128,-1,46
 323 431 323 431 281 431 c 256,47,48
 239 431 239 431 210.5 413.5 c 128,-1,49
 182 396 182 396 164 370 c 128,-1,50
 146 344 146 344 139 314 c 128,-1,51
 132 284 132 284 132 259 c 0,52,53
 132 227 132 227 141.5 196.5 c 128,-1,54
 151 166 151 166 169.5 141.5 c 128,-1,55
 188 117 188 117 216 102 c 128,-1,56
 244 87 244 87 281 87 c 0,57,58
 333 87 333 87 371 117 c 0,39,40
685 438 m 0,59,60
 646 438 646 438 619 425.5 c 128,-1,61
 592 413 592 413 573.5 393.5 c 128,-1,62
 555 374 555 374 545 352 c 128,-1,63
 535 330 535 330 532 312 c 1,64,-1
 830 312 l 1,65,66
 825 363 825 363 786 400.5 c 128,-1,67
 747 438 747 438 685 438 c 0,59,60
EndSplineSet
EndChar
StartChar: florin
Encoding: 402 402 202
Width: 533
VWidth: 1494
Flags: W
HStem: -111 80<25 76.5034> 362 64<106 205 303 407> 642.5 81<384.047 438.375>
Fore
483 622 m 1,0,1
 469 628 469 628 452.5 634.5 c 128,-1,2
 436 641 436 641 418.5 642.5 c 128,-1,3
 401 644 401 644 383.5 639.5 c 128,-1,4
 366 635 366 635 353 622 c 0,5,6
 338 607 338 607 329.5 584.5 c 128,-1,7
 321 562 321 562 316.5 535 c 128,-1,8
 312 508 312 508 309 479.5 c 128,-1,9
 306 451 306 451 303 426 c 1,10,-1
 417 426 l 1,11,-1
 407 362 l 1,12,-1
 296 362 l 1,13,14
 287 290 l 0,15,16
 278 218 278 218 271 170 c 0,17,18
 265 129 265 129 259.5 92 c 128,-1,19
 254 55 254 55 243 22.5 c 128,-1,20
 232 -10 232 -10 211.5 -37 c 128,-1,21
 191 -64 191 -64 158 -87 c 0,22,23
 126 -108 126 -108 78 -111 c 128,-1,24
 30 -114 30 -114 -4 -111 c 1,25,26
 -1 -103 -1 -103 4.5 -89 c 128,-1,27
 10 -75 10 -75 15 -63 c 0,28,29
 21 -48 21 -48 25 -31 c 1,30,31
 75 -39 75 -39 102.5 -23 c 128,-1,32
 130 -7 130 -7 145 22 c 128,-1,33
 160 51 160 51 166 88.5 c 128,-1,34
 172 126 172 126 178 161 c 0,35,36
 185 212 185 212 191 261.5 c 128,-1,37
 197 311 197 311 205 362 c 1,38,-1
 93 362 l 1,39,40
 96 378 96 378 99 393 c 0,41,42
 102 405 102 405 104 415 c 128,-1,43
 106 425 106 425 106 426 c 1,44,-1
 212 426 l 1,45,46
 218 483 218 483 226.5 545 c 128,-1,47
 235 607 235 607 268 656 c 0,48,49
 290 691 290 691 322 706.5 c 128,-1,50
 354 722 354 722 390 723.5 c 128,-1,51
 426 725 426 725 462 714.5 c 128,-1,52
 498 704 498 704 529 686 c 1,53,-1
 483 622 l 1,0,1
EndSplineSet
EndChar
StartChar: circumflex
Encoding: 710 710 203
Width: 535
VWidth: 1494
Flags: W
HStem: 692 148<175 206 206 206>
VStem: 70 387<692 692 692 692>
Fore
265 788 m 1,0,1
 239 762 239 762 218 739 c 128,-1,2
 197 716 197 716 175 692 c 1,3,-1
 70 692 l 1,4,5
 87 710 87 710 110 735.5 c 128,-1,6
 133 761 133 761 154.5 784 c 128,-1,7
 176 807 176 807 190.5 823 c 128,-1,8
 205 839 205 839 206 840 c 1,9,-1
 323 840 l 1,10,11
 357 804 357 804 390 766.5 c 128,-1,12
 423 729 423 729 457 692 c 1,13,-1
 354 692 l 1,14,-1
 265 788 l 1,0,1
EndSplineSet
EndChar
StartChar: caron
Encoding: 711 711 204
Width: 523
VWidth: 1494
Flags: W
HStem: 753 148<323 354 354 354>
VStem: 70 387<901 901 901 901>
Fore
354 901 m 1,0,-1
 457 901 l 1,1,2
 423 864 423 864 390 826.5 c 128,-1,3
 357 789 357 789 323 753 c 1,4,-1
 206 753 l 1,5,6
 191 769.5 l 2,7,8
 176 786 176 786 154.5 809.5 c 128,-1,9
 133 833 133 833 110 858 c 128,-1,10
 87 883 87 883 70 901 c 1,11,-1
 175 901 l 1,12,13
 197 877 197 877 218 855 c 128,-1,14
 239 833 239 833 265 807 c 1,15,-1
 354 901 l 1,0,-1
EndSplineSet
EndChar
StartChar: breve
Encoding: 728 728 205
Width: 448
VWidth: 1494
Flags: W
HStem: 616 73<165.932 280.922>
VStem: 48 87<720.145 789> 314 88<721.242 789>
Fore
227 616 m 0,0,1
 145 616 145 616 96.5 661.5 c 128,-1,2
 48 707 48 707 48 789 c 1,3,-1
 135 789 l 1,4,5
 135 738 135 738 162.5 713.5 c 128,-1,6
 190 689 190 689 223.5 689 c 128,-1,7
 257 689 257 689 285.5 714.5 c 128,-1,8
 314 740 314 740 314 789 c 1,9,-1
 402 789 l 1,10,11
 402 712 402 712 355 664 c 128,-1,12
 308 616 308 616 227 616 c 0,0,1
EndSplineSet
EndChar
StartChar: dotaccent
Encoding: 729 729 206
Width: 236
VWidth: 1494
Flags: W
HStem: 616 149<67.1744 171.826>
VStem: 45 149<637.659 741.795>
Fore
194 689 m 256,0,1
 194 658 194 658 172.5 637 c 128,-1,2
 151 616 151 616 120 616 c 256,3,4
 88 616 88 616 66.5 637 c 128,-1,5
 45 658 45 658 45 689 c 256,6,7
 45 720 45 720 66.5 742.5 c 128,-1,8
 88 765 88 765 120 765 c 256,9,10
 151 765 151 765 172.5 742.5 c 128,-1,11
 194 720 194 720 194 689 c 256,0,1
EndSplineSet
EndChar
StartChar: ring
Encoding: 730 730 207
Width: 415
VWidth: 1494
Flags: W
HStem: 573 56<176.837 245.982> 718 56<176.837 245.982>
VStem: 111 56<638.837 707.982> 256 56<638.837 707.982>
Fore
111 673 m 256,0,1
 111 716 111 716 139 745 c 128,-1,2
 167 774 167 774 211 774 c 256,3,4
 254 774 254 774 283 745 c 128,-1,5
 312 716 312 716 312 673 c 256,6,7
 312 629 312 629 283 601 c 128,-1,8
 254 573 254 573 211 573 c 256,9,10
 167 573 167 573 139 601 c 128,-1,11
 111 629 111 629 111 673 c 256,0,1
167 673 m 0,12,13
 167 655 167 655 180 642 c 128,-1,14
 193 629 193 629 211 629 c 0,15,16
 230 629 230 629 243 642 c 128,-1,17
 256 655 256 655 256 673 c 0,18,19
 256 692 256 692 243 705 c 128,-1,20
 230 718 230 718 211 718 c 0,21,22
 193 718 193 718 180 705 c 128,-1,23
 167 692 167 692 167 673 c 0,12,13
EndSplineSet
EndChar
StartChar: tilde
Encoding: 732 732 209
Width: 449
VWidth: 1494
Flags: W
HStem: 581 140<80.7212 115 33 136 136 136>
Fore
33 581 m 1,0,1
 33 622 33 622 45 654 c 128,-1,2
 57 686 57 686 80 703 c 128,-1,3
 103 720 103 720 136 721 c 128,-1,4
 169 722 169 722 209 700 c 0,5,6
 250 680 250 680 274.5 675 c 128,-1,7
 299 670 299 670 312.5 674.5 c 128,-1,8
 326 679 326 679 330.5 691 c 128,-1,9
 335 703 335 703 335 719 c 1,10,-1
 416 719 l 1,11,12
 417 691 417 691 408 661 c 128,-1,13
 399 631 399 631 379 610 c 128,-1,14
 359 589 359 589 326 583 c 128,-1,15
 293 577 293 577 248 596 c 0,16,17
 199 623 199 623 172 627.5 c 128,-1,18
 145 632 145 632 133 624.5 c 128,-1,19
 121 617 121 617 119 603.5 c 128,-1,20
 117 590 117 590 115 581 c 1,21,-1
 33 581 l 1,0,1
EndSplineSet
EndChar
StartChar: uni0E01
Encoding: 3585 3585 212
Width: 693
VWidth: 1494
Flags: W
HStem: 0 21G<139 242 501 604> 528 79<250.294 404.266>
VStem: 139 103<0 310.075> 501 103<0 381.911 381.911 395.609 395.609 397.5 415 418.656>
Fore
519 444 m 1,0,1
 517 445 517 445 505 458.5 c 128,-1,2
 493 472 493 472 470.5 487 c 128,-1,3
 448 502 448 502 416 515 c 128,-1,4
 384 528 384 528 344 528 c 0,5,6
 294 528 294 528 261.5 516.5 c 128,-1,7
 229 505 229 505 208.5 488.5 c 128,-1,8
 188 472 188 472 177 455 c 128,-1,9
 166 438 166 438 160 426 c 1,10,-1
 202 395 l 1,11,12
 215 411 215 411 231 422 c 128,-1,13
 247 433 247 433 272 442 c 1,14,15
 279.5 432 l 2,16,17
 287 422 287 422 296 410 c 128,-1,18
 305 398 305 398 311 389 c 128,-1,19
 317 380 317 380 318 378 c 1,20,21
 280 363 280 363 261 334 c 128,-1,22
 242 305 242 305 242 266 c 2,23,-1
 242 0 l 1,24,-1
 139 0 l 1,25,-1
 139 271 l 2,26,27
 139 297 139 297 142 310.5 c 128,-1,28
 145 324 145 324 151 332 c 1,29,-1
 48 399 l 1,30,31
 51 408 51 408 65 441.5 c 128,-1,32
 79 475 79 475 112 511 c 128,-1,33
 145 547 145 547 200.5 576 c 128,-1,34
 256 605 256 605 341 607 c 0,35,36
 387 607 387 607 423.5 598 c 128,-1,37
 460 589 460 589 488 575 c 128,-1,38
 516 561 516 561 535.5 544.5 c 128,-1,39
 555 528 555 528 567 513 c 1,40,41
 571 520 571 520 586.5 517 c 128,-1,42
 602 514 602 514 622 493 c 0,43,44
 634 480 634 480 637.5 470 c 128,-1,45
 641 460 641 460 639 452 c 128,-1,46
 637 444 637 444 631 436.5 c 128,-1,47
 625 429 625 429 617 419 c 256,48,49
 610 408 610 408 607 397.5 c 128,-1,50
 604 387 604 387 604 366 c 2,51,-1
 604 0 l 1,52,-1
 501 0 l 1,53,-1
 501 381 l 2,54,55
 501 398 501 398 504 415 c 128,-1,56
 507 432 507 432 519 444 c 1,0,1
EndSplineSet
EndChar
StartChar: uni0E02
Encoding: 3586 3586 213
Width: 653
VWidth: 1494
Flags: W
HStem: 3 90<299 462.609> 347 67<104.897 176.261> 578 20G<463 568>
VStem: 27 67<424.739 489.745> 187 67<424.739 489.736> 203 105<108.767 263.608> 463 105<93.1094 121 121 598>
Fore
253 3 m 1,0,1
 247 0 247 0 241.5 -2 c 128,-1,2
 236 -4 236 -4 232 -7 c 0,3,4
 221 -12 221 -12 210.5 -6.5 c 128,-1,5
 200 -1 200 -1 191 7.5 c 128,-1,6
 182 16 182 16 175.5 26.5 c 128,-1,7
 169 37 169 37 166 45 c 0,8,9
 161 55 161 55 166.5 64 c 128,-1,10
 172 73 172 73 180 82 c 128,-1,11
 188 91 188 91 195.5 101.5 c 128,-1,12
 203 112 203 112 203 126 c 2,13,-1
 203 241 l 2,14,15
 203 259 203 259 210.5 273.5 c 128,-1,16
 218 288 218 288 230 301 c 128,-1,17
 242 314 242 314 255.5 324.5 c 128,-1,18
 269 335 269 335 281 345 c 0,19,20
 306 366 306 366 317.5 399.5 c 128,-1,21
 329 433 329 433 323 464 c 128,-1,22
 317 495 317 495 294.5 514.5 c 128,-1,23
 272 534 272 534 232 528 c 1,24,25
 242 513 242 513 248 496.5 c 128,-1,26
 254 480 254 480 254 460 c 0,27,28
 254 413 254 413 221 380 c 128,-1,29
 188 347 188 347 141 347 c 256,30,31
 93 347 93 347 60 380 c 128,-1,32
 27 413 27 413 27 460 c 0,33,34
 27 486 27 486 38 510.5 c 128,-1,35
 49 535 49 535 71 556 c 128,-1,36
 93 577 93 577 122 591 c 128,-1,37
 151 605 151 605 187 608 c 0,38,39
 293 620 293 620 353.5 577.5 c 128,-1,40
 414 535 414 535 414 448 c 0,41,42
 414 396 414 396 397.5 364.5 c 128,-1,43
 381 333 381 333 361 313 c 128,-1,44
 341 293 341 293 324.5 277.5 c 128,-1,45
 308 262 308 262 308 239 c 2,46,-1
 308 114 l 2,47,48
 308 111 308 111 305.5 103.5 c 128,-1,49
 303 96 303 96 299 93 c 1,50,-1
 438 93 l 2,51,52
 463 93 463 93 463 121 c 2,53,-1
 463 598 l 1,54,-1
 568 598 l 1,55,-1
 568 82 l 2,56,57
 568 43 568 43 540.5 23 c 128,-1,58
 513 3 513 3 475 3 c 2,59,-1
 253 3 l 1,0,1
187 460 m 256,60,61
 187 480 187 480 173.5 493.5 c 128,-1,62
 160 507 160 507 141 507 c 256,63,64
 121 507 121 507 107.5 493.5 c 128,-1,65
 94 480 94 480 94 460 c 256,66,67
 94 441 94 441 107.5 427.5 c 128,-1,68
 121 414 121 414 141 414 c 256,69,70
 160 414 160 414 173.5 427.5 c 128,-1,71
 187 441 187 441 187 460 c 256,60,61
EndSplineSet
EndChar
StartChar: uni0E03
Encoding: 3587 3587 214
Width: 672
VWidth: 1494
Flags: W
HStem: 3 88<333 472.32> 299 52<101.805 164.408> 578 20G<483 587>
VStem: 173 59<359.588 417.483> 242 102<108.767 109.242 109.242 264.639 264.639 324.076> 483 104<103.098 120 120 598>
Fore
173 392 m 256,0,1
 173 408 173 408 161 420 c 128,-1,2
 149 432 149 432 133 432 c 256,3,4
 117 432 117 432 105 420 c 128,-1,5
 93 408 93 408 93 392 c 256,6,7
 93 375 93 375 105 363 c 128,-1,8
 117 351 117 351 133 351 c 256,9,10
 149 351 149 351 161 363 c 128,-1,11
 173 375 173 375 173 392 c 256,0,1
242 244 m 2,12,13
 242 275 242 275 248 295 c 128,-1,14
 254 315 254 315 264 330 c 128,-1,15
 274 345 274 345 286.5 356.5 c 128,-1,16
 299 368 299 368 312 380 c 0,17,18
 318 386 318 386 329.5 395.5 c 128,-1,19
 341 405 341 405 351.5 416.5 c 128,-1,20
 362 428 362 428 370 437.5 c 128,-1,21
 378 447 378 447 378 454 c 0,22,23
 380 466 380 466 377 481 c 128,-1,24
 374 496 374 496 369.5 508 c 128,-1,25
 365 520 365 520 359 528.5 c 128,-1,26
 353 537 353 537 347 537 c 0,27,28
 336 535 336 535 326.5 529 c 128,-1,29
 317 523 317 523 308 516 c 1,30,31
 311 508 311 508 315.5 500 c 128,-1,32
 320 492 320 492 320.5 484.5 c 128,-1,33
 321 477 321 477 316.5 470 c 128,-1,34
 312 463 312 463 299 457 c 0,35,36
 294 454 294 454 287.5 452 c 128,-1,37
 281 450 281 450 273.5 450.5 c 128,-1,38
 266 451 266 451 258.5 458.5 c 128,-1,39
 251 466 251 466 245 483 c 0,40,41
 236 504 236 504 211.5 519 c 128,-1,42
 187 534 187 534 166 526 c 0,43,44
 146 519 146 519 135 507 c 128,-1,45
 124 495 124 495 120 483 c 1,46,47
 145 489 145 489 166 483 c 128,-1,48
 187 477 187 477 201 463.5 c 128,-1,49
 215 450 215 450 223.5 430.5 c 128,-1,50
 232 411 232 411 232 392 c 0,51,52
 232 351 232 351 202.5 325 c 128,-1,53
 173 299 173 299 133 299 c 0,54,55
 103 299 103 299 80 313 c 128,-1,56
 57 327 57 327 43 351 c 0,57,58
 27 381 27 381 24 417 c 128,-1,59
 21 453 21 453 30 486.5 c 128,-1,60
 39 520 39 520 60 548.5 c 128,-1,61
 81 577 81 577 115 593 c 0,62,63
 152 611 152 611 196.5 606 c 128,-1,64
 241 601 241 601 272 567 c 1,65,66
 308 596 308 596 323.5 602 c 128,-1,67
 339 608 339 608 354 608 c 0,68,69
 380 610 380 610 402 593 c 0,70,71
 422 580 422 580 439 547 c 128,-1,72
 456 514 456 514 460 448 c 1,73,74
 457 432 457 432 452.5 422.5 c 128,-1,75
 448 413 448 413 439.5 404 c 128,-1,76
 431 395 431 395 416.5 383.5 c 128,-1,77
 402 372 402 372 383 353 c 0,78,79
 368 338 368 338 356 324.5 c 128,-1,80
 344 311 344 311 344 288 c 2,81,-1
 344 117 l 2,82,83
 344 109 344 109 341 101.5 c 128,-1,84
 338 94 338 94 333 91 c 1,85,-1
 457 91 l 2,86,87
 472 91 472 91 477.5 99.5 c 128,-1,88
 483 108 483 108 483 120 c 2,89,-1
 483 598 l 1,90,-1
 587 598 l 1,91,-1
 587 81 l 2,92,93
 587 42 587 42 559.5 22.5 c 128,-1,94
 532 3 532 3 495 3 c 2,95,-1
 291 3 l 1,96,97
 286 0 286 0 281.5 -2 c 128,-1,98
 277 -4 277 -4 272 -7 c 0,99,100
 262 -12 262 -12 251.5 -6.5 c 128,-1,101
 241 -1 241 -1 232 7.5 c 128,-1,102
 223 16 223 16 216 26.5 c 128,-1,103
 209 37 209 37 206 45 c 0,104,105
 202 55 202 55 206.5 64 c 128,-1,106
 211 73 211 73 219 82 c 128,-1,107
 227 91 227 91 234.5 101.5 c 128,-1,108
 242 112 242 112 242 126 c 2,109,-1
 242 244 l 2,12,13
EndSplineSet
EndChar
StartChar: uni0E04
Encoding: 3588 3588 215
Width: 689
VWidth: 1494
Flags: W
HStem: 0 21G<510 613> 226 62<313.619 387.618> 381 63<313.313 387.618> 528 80<262.525 444.787>
VStem: 88 90<313.888 431.354> 398 61<298.796 370.094> 510 103<0 381.911 381.911 395.609 395.609 397.5 415 418.656>
Fore
398 335 m 256,0,1
 398 354 398 354 384.5 367.5 c 128,-1,2
 371 381 371 381 350 381 c 0,3,4
 330 381 330 381 316.5 367.5 c 128,-1,5
 303 354 303 354 303 335 c 256,6,7
 303 315 303 315 316.5 301.5 c 128,-1,8
 330 288 330 288 350 288 c 0,9,10
 371 288 371 288 384.5 301.5 c 128,-1,11
 398 315 398 315 398 335 c 256,0,1
528 444 m 1,12,13
 526 447 526 447 516.5 460.5 c 128,-1,14
 507 474 507 474 486.5 489 c 128,-1,15
 466 504 466 504 434 516 c 128,-1,16
 402 528 402 528 354 528 c 0,17,18
 302 528 302 528 268.5 513.5 c 128,-1,19
 235 499 235 499 214.5 476 c 128,-1,20
 194 453 194 453 186 425.5 c 128,-1,21
 178 398 178 398 178 371 c 0,22,23
 178 341 178 341 180 320 c 128,-1,24
 182 299 182 299 185 282.5 c 128,-1,25
 188 266 188 266 191 251 c 128,-1,26
 194 236 194 236 197 220 c 1,27,28
 211 268 211 268 226.5 315 c 128,-1,29
 242 362 242 362 251 380 c 0,30,31
 265 408 265 408 291 426 c 128,-1,32
 317 444 317 444 350 444 c 0,33,34
 396 444 396 444 427.5 412 c 128,-1,35
 459 380 459 380 459 335 c 256,36,37
 459 290 459 290 427.5 258 c 128,-1,38
 396 226 396 226 350 226 c 0,39,40
 315 226 315 226 288 245 c 1,41,42
 271 190 271 190 253 141 c 0,43,44
 236 99 236 99 219 60 c 128,-1,45
 202 21 202 21 185 6 c 0,46,47
 157 -21 157 -21 121 15 c 0,48,49
 108 28 108 28 103.5 38 c 128,-1,50
 99 48 99 48 106 61 c 0,51,52
 112 72 112 72 118 81.5 c 128,-1,53
 124 91 124 91 128 101.5 c 128,-1,54
 132 112 132 112 131 125.5 c 128,-1,55
 130 139 130 139 126 158 c 0,56,57
 114 199 114 199 101 253.5 c 128,-1,58
 88 308 88 308 88 366 c 0,59,60
 88 475 88 475 157 541.5 c 128,-1,61
 226 608 226 608 351 608 c 0,62,63
 442 608 442 608 496 580.5 c 128,-1,64
 550 553 550 553 581 516 c 1,65,66
 589 519 589 519 601.5 514.5 c 128,-1,67
 614 510 614 510 631 493 c 0,68,69
 643 480 643 480 646.5 470 c 128,-1,70
 650 460 650 460 648 452 c 128,-1,71
 646 444 646 444 640 436.5 c 128,-1,72
 634 429 634 429 626 419 c 256,73,74
 619 408 619 408 616 397.5 c 128,-1,75
 613 387 613 387 613 366 c 2,76,-1
 613 0 l 1,77,-1
 510 0 l 1,78,-1
 510 381 l 2,79,80
 510 398 510 398 513 415 c 128,-1,81
 516 432 516 432 528 444 c 1,12,13
EndSplineSet
EndChar
StartChar: uni0E05
Encoding: 3589 3589 216
Width: 692
VWidth: 1494
Flags: W
HStem: 0 21G<514 617> 199 63<320.637 385.543> 354 63<313.372 385.543>
VStem: 84 89<285.241 474.237> 396 63<272.038 343.094> 514 103<0 381.911 381.911 386 386 398.008 398.008 418.656>
Fore
532 448 m 1,0,1
 520 474 520 474 500.5 491 c 128,-1,2
 481 508 481 508 445 517 c 1,3,4
 442 516 442 516 432 505.5 c 128,-1,5
 422 495 422 495 410 482 c 128,-1,6
 398 469 398 469 388 459.5 c 128,-1,7
 378 450 378 450 375 448 c 0,8,9
 359 441 359 441 347 447 c 128,-1,10
 335 453 335 453 324 466 c 0,11,12
 314 478 314 478 292.5 494.5 c 128,-1,13
 271 511 271 511 256 519 c 1,14,15
 206 502 206 502 189.5 471.5 c 128,-1,16
 173 441 173 441 173 389 c 0,17,18
 173 333 173 333 180 291.5 c 128,-1,19
 187 250 187 250 197 211 c 1,20,21
 211 253 211 253 226.5 293 c 128,-1,22
 242 333 242 333 251 353 c 0,23,24
 265 381 265 381 291 399 c 128,-1,25
 317 417 317 417 351 417 c 0,26,27
 396 417 396 417 427.5 385 c 128,-1,28
 459 353 459 353 459 308 c 256,29,30
 459 263 459 263 427.5 231 c 128,-1,31
 396 199 396 199 351 199 c 0,32,33
 333 199 333 199 313.5 205.5 c 128,-1,34
 294 212 294 212 286 221 c 1,35,36
 268 167 268 167 250 123 c 0,37,38
 233 84 233 84 216 48.5 c 128,-1,39
 199 13 199 13 184 3 c 0,40,41
 173 -4 173 -4 159.5 -6.5 c 128,-1,42
 146 -9 146 -9 130 6 c 0,43,44
 112 21 112 21 106 31.5 c 128,-1,45
 100 42 100 42 101 49.5 c 128,-1,46
 102 57 102 57 106.5 62 c 128,-1,47
 111 67 111 67 115 75 c 0,48,49
 120 81 120 81 124 91 c 0,50,51
 127 99 127 99 128 112.5 c 128,-1,52
 129 126 129 126 124 144 c 0,53,54
 112 185 112 185 98 251 c 128,-1,55
 84 317 84 317 84 389 c 0,56,57
 84 556 84 556 239 607 c 0,58,59
 254 613 254 613 268 605 c 1,60,61
 290 598 290 598 316 581 c 128,-1,62
 342 564 342 564 362 546 c 1,63,64
 393 577 393 577 414 595 c 128,-1,65
 435 613 435 613 450 610 c 0,66,67
 507 599 507 599 543.5 570 c 128,-1,68
 580 541 580 541 595 519 c 1,69,70
 614 516 614 516 635 493 c 0,71,72
 647 480 647 480 651 470 c 128,-1,73
 655 460 655 460 652.5 452 c 128,-1,74
 650 444 650 444 644 436.5 c 128,-1,75
 638 429 638 429 631 419 c 256,76,77
 623 408 623 408 620 397.5 c 128,-1,78
 617 387 617 387 617 366 c 2,79,-1
 617 0 l 1,80,-1
 514 0 l 1,81,-1
 514 386 l 2,82,83
 514 402 514 402 517 419 c 128,-1,84
 520 436 520 436 532 448 c 1,0,1
396 308 m 256,85,86
 396 327 396 327 382.5 340.5 c 128,-1,87
 369 354 369 354 350 354 c 256,88,89
 330 354 330 354 316.5 340.5 c 128,-1,90
 303 327 303 327 303 308 c 256,91,92
 303 288 303 288 316.5 275 c 128,-1,93
 330 262 330 262 350 262 c 256,94,95
 369 262 369 262 382.5 275 c 128,-1,96
 396 288 396 288 396 308 c 256,85,86
EndSplineSet
EndChar
StartChar: uni0E06
Encoding: 3590 3590 217
Width: 754
VWidth: 1494
Flags: W
HStem: 0 21G<580 680> 200 90<383 429.673> 578 20G<580 680>
VStem: 39 66<362.86 418.624> 148 72<86.6934 178.433> 185 59<359.299 416.314> 284 97<81.4293 200 290 363.861> 580 100<0 39 170 598>
Fore
680 0 m 1,0,-1
 580 0 l 1,1,-1
 580 39 l 1,2,3
 561 79 561 79 536 107.5 c 128,-1,4
 511 136 511 136 484 155.5 c 128,-1,5
 457 175 457 175 430.5 185.5 c 128,-1,6
 404 196 404 196 381 200 c 1,7,-1
 381 105 l 2,8,9
 381 66 381 66 367.5 42.5 c 128,-1,10
 354 19 354 19 334 6.5 c 128,-1,11
 314 -6 314 -6 291 -9 c 128,-1,12
 268 -12 268 -12 248 -9 c 0,13,14
 227 -4 227 -4 207.5 7.5 c 128,-1,15
 188 19 188 19 173 38.5 c 128,-1,16
 158 58 158 58 151.5 85 c 128,-1,17
 145 112 145 112 148 145 c 0,18,19
 155 209 155 209 195.5 243.5 c 128,-1,20
 236 278 236 278 284 290 c 1,21,-1
 284 326 l 2,22,23
 284 353 284 353 289 370 c 128,-1,24
 294 387 294 387 303 399 c 128,-1,25
 312 411 312 411 325 421 c 128,-1,26
 338 431 338 431 351 442 c 0,27,28
 363 454 363 454 371.5 459.5 c 128,-1,29
 380 465 380 465 381 478 c 0,30,31
 383 490 383 490 377.5 502 c 128,-1,32
 372 514 372 514 364.5 522.5 c 128,-1,33
 357 531 357 531 349 534.5 c 128,-1,34
 341 538 341 538 335 535 c 0,35,36
 326 529 326 529 323 528.5 c 128,-1,37
 320 528 320 528 311 520 c 1,38,39
 324 499 324 499 316.5 485.5 c 128,-1,40
 309 472 309 472 293 465 c 0,41,42
 284 462 284 462 272 463.5 c 128,-1,43
 260 465 260 465 253 481 c 0,44,45
 244 502 244 502 219 517 c 128,-1,46
 194 532 194 532 172 525 c 0,47,48
 152 517 152 517 145 506 c 128,-1,49
 138 495 138 495 132 483 c 1,50,51
 157 489 157 489 178 483 c 128,-1,52
 199 477 199 477 213 462.5 c 128,-1,53
 227 448 227 448 235.5 429 c 128,-1,54
 244 410 244 410 244 390 c 0,55,56
 244 351 244 351 221.5 327 c 128,-1,57
 199 303 199 303 168.5 296.5 c 128,-1,58
 138 290 138 290 107 302 c 128,-1,59
 76 314 76 314 58 347 c 0,60,61
 42 375 42 375 39 411 c 128,-1,62
 36 447 36 447 43.5 483 c 128,-1,63
 51 519 51 519 71 548 c 128,-1,64
 91 577 91 577 123 592 c 0,65,66
 160 610 160 610 204 604.5 c 128,-1,67
 248 599 248 599 280 565 c 1,68,69
 303 583 303 583 325 593.5 c 128,-1,70
 347 604 347 604 362 608 c 0,71,72
 381 614 381 614 399 602 c 128,-1,73
 417 590 417 590 431 573 c 128,-1,74
 445 556 445 556 454 540.5 c 128,-1,75
 463 525 463 525 463 523 c 2,76,77
 474 502 474 502 472.5 486.5 c 128,-1,78
 471 471 471 471 462 457.5 c 128,-1,79
 453 444 453 444 440.5 432 c 128,-1,80
 428 420 428 420 414 408 c 0,81,82
 404 399 404 399 392.5 388.5 c 128,-1,83
 381 378 381 378 381 351 c 2,84,-1
 383 287 l 1,85,86
 405 284 405 284 433.5 274.5 c 128,-1,87
 462 265 462 265 490.5 249 c 128,-1,88
 519 233 519 233 543 213.5 c 128,-1,89
 567 194 567 194 580 170 c 1,90,-1
 580 598 l 1,91,-1
 680 598 l 1,92,-1
 680 0 l 1,0,-1
185 390 m 256,93,94
 185 407 185 407 173 419 c 128,-1,95
 161 431 161 431 145 431 c 256,96,97
 129 431 129 431 117 419 c 128,-1,98
 105 407 105 407 105 390 c 256,99,100
 105 374 105 374 117 362.5 c 128,-1,101
 129 351 129 351 145 351 c 256,102,103
 161 351 161 351 173 362.5 c 128,-1,104
 185 374 185 374 185 390 c 256,93,94
283 200 m 1,105,106
 260 197 260 197 240 179 c 128,-1,107
 220 161 220 161 220 126 c 0,108,109
 220 96 220 96 229.5 84 c 128,-1,110
 239 72 239 72 251 70.5 c 128,-1,111
 263 69 263 69 273 75.5 c 128,-1,112
 283 82 283 82 283 91 c 2,113,-1
 283 200 l 1,105,106
EndSplineSet
EndChar
StartChar: uni0E07
Encoding: 3591 3591 218
Width: 509
VWidth: 1494
Flags: W
HStem: 378 67<275.14 330.028> 538 67<275.14 346.856>
VStem: 7 426<85 303 303 315.346> 197 68<455.252 528.022> 338 95<123 384> 357 76<458.923 525.107>
Fore
433 85 m 2,0,1
 433 49 433 49 404 26.5 c 128,-1,2
 375 4 375 4 345 -9 c 0,3,4
 324 -19 324 -19 307 -1.5 c 128,-1,5
 290 16 290 16 281 34 c 0,6,7
 277 42 277 42 279 48 c 128,-1,8
 281 54 281 54 275 61 c 0,9,10
 262 75 262 75 227.5 107 c 128,-1,11
 193 139 193 139 152.5 176.5 c 128,-1,12
 112 214 112 214 72.5 249 c 128,-1,13
 33 284 33 284 7 303 c 1,14,-1
 64 383 l 1,15,16
 87 365 87 365 122.5 331 c 128,-1,17
 158 297 158 297 198 258.5 c 128,-1,18
 238 220 238 220 275 182.5 c 128,-1,19
 312 145 312 145 338 123 c 1,20,-1
 338 384 l 1,21,22
 330 381 330 381 322.5 379.5 c 128,-1,23
 315 378 315 378 311 378 c 0,24,25
 263 378 263 378 230 411 c 128,-1,26
 197 444 197 444 197 492 c 256,27,28
 197 540 197 540 230 572 c 128,-1,29
 263 604 263 604 311 605 c 0,30,31
 357 605 357 605 382 589 c 128,-1,32
 407 573 407 573 419 552 c 0,33,34
 432 528 432 528 433 496 c 2,35,-1
 433 85 l 2,0,1
357 492 m 0,36,37
 357 513 357 513 343.5 525.5 c 128,-1,38
 330 538 330 538 311 538 c 256,39,40
 291 538 291 538 278 525.5 c 128,-1,41
 265 513 265 513 265 492 c 0,42,43
 265 472 265 472 278 458.5 c 128,-1,44
 291 445 291 445 311 445 c 256,45,46
 330 445 330 445 343.5 458.5 c 128,-1,47
 357 472 357 472 357 492 c 0,36,37
EndSplineSet
EndChar
StartChar: uni0E08
Encoding: 3592 3592 219
Width: 656
VWidth: 1494
Flags: W
HStem: 205 63<261.607 336.837> 365 64<262.027 336.711> 528 80<212.132 405.048>
VStem: 33 90<312 431.656> 188 63<279.097 353.753>
Fore
544 516 m 1,0,1
 549 523 549 523 563.5 518.5 c 128,-1,2
 578 514 578 514 598 493 c 0,3,4
 610 480 610 480 613.5 470 c 128,-1,5
 617 460 617 460 615 452 c 128,-1,6
 613 444 613 444 606 436.5 c 128,-1,7
 599 429 599 429 592 419 c 0,8,9
 580 404 580 404 575 386 c 2,10,-1
 525 61 l 2,11,12
 523 52 523 52 519.5 44.5 c 128,-1,13
 516 37 516 37 507.5 29.5 c 128,-1,14
 499 22 499 22 483.5 12.5 c 128,-1,15
 468 3 468 3 442 -12 c 0,16,17
 426 -21 426 -21 407.5 -6 c 128,-1,18
 389 9 389 9 372 36 c 0,19,20
 365 48 365 48 373 57 c 128,-1,21
 381 66 381 66 384 73 c 1,22,-1
 348 223 l 1,23,24
 326 205 326 205 293 205 c 0,25,26
 253 205 253 205 220.5 236.5 c 128,-1,27
 188 268 188 268 188 320 c 0,28,29
 188 360 188 360 217.5 394.5 c 128,-1,30
 247 429 247 429 299 429 c 0,31,32
 338 429 338 429 371 406 c 128,-1,33
 404 383 404 383 414 326 c 2,34,-1
 447 146 l 1,35,-1
 480 393 l 2,36,37
 486 432 486 432 499 442 c 1,38,39
 495 444 495 444 483.5 457.5 c 128,-1,40
 472 471 472 471 450.5 486.5 c 128,-1,41
 429 502 429 502 396 515 c 128,-1,42
 363 528 363 528 318 528 c 0,43,44
 215 528 215 528 169 472 c 128,-1,45
 123 416 123 416 123 312 c 1,46,-1
 33 312 l 1,47,48
 33 390 33 390 54.5 446 c 128,-1,49
 76 502 76 502 114 538 c 128,-1,50
 152 574 152 574 204.5 591 c 128,-1,51
 257 608 257 608 317 608 c 0,52,53
 404 608 404 608 458.5 580.5 c 128,-1,54
 513 553 513 553 544 516 c 1,0,1
348 317 m 0,55,56
 348 336 348 336 334 350.5 c 128,-1,57
 320 365 320 365 299 365 c 256,58,59
 278 365 278 365 264.5 350.5 c 128,-1,60
 251 336 251 336 251 317 c 0,61,62
 251 296 251 296 264.5 282 c 128,-1,63
 278 268 278 268 299 268 c 256,64,65
 320 268 320 268 334 282 c 128,-1,66
 348 296 348 296 348 317 c 0,55,56
EndSplineSet
EndChar
StartChar: uni0E09
Encoding: 3593 3593 220
Width: 702
VWidth: 1494
Flags: W
HStem: -6 69<506.288 579.942> 178 61<177.924 212> 335 61<174.69 249.31> 525 88<228.439 382.868>
VStem: 103 61<249.69 324.31> 260 61<258.013 324.31> 413 73<84.5329 141.986> 505 99<250 381.911 381.911 389 389 404.234 404.234 415 415 418.656> 593 69<76.3913 159.685>
Fore
571 517 m 1,0,1
 578 520 578 520 591.5 515.5 c 128,-1,2
 605 511 605 511 622 493 c 0,3,4
 634 480 634 480 637.5 470 c 128,-1,5
 641 460 641 460 639 452 c 128,-1,6
 637 444 637 444 631 436.5 c 128,-1,7
 625 429 625 429 617 419 c 256,8,9
 610 408 610 408 607 397.5 c 128,-1,10
 604 387 604 387 604 366 c 2,11,-1
 604 223 l 1,12,13
 631 211 631 211 646.5 179.5 c 128,-1,14
 662 148 662 148 662 118 c 0,15,16
 662 66 662 66 626 30 c 128,-1,17
 590 -6 590 -6 538 -6 c 0,18,19
 513 -6 513 -6 489.5 3.5 c 128,-1,20
 466 13 466 13 449 29.5 c 128,-1,21
 432 46 432 46 422.5 68.5 c 128,-1,22
 413 91 413 91 413 118 c 0,23,24
 413 121 413 121 414.5 132.5 c 128,-1,25
 416 144 416 144 422 152 c 1,26,27
 404 146 404 146 384.5 132 c 128,-1,28
 365 118 365 118 347 100 c 128,-1,29
 329 82 329 82 312.5 64 c 128,-1,30
 296 46 296 46 286 33 c 0,31,32
 280 25 280 25 268.5 11 c 128,-1,33
 257 -3 257 -3 245 -9 c 0,34,35
 226 -16 226 -16 207 0 c 128,-1,36
 188 16 188 16 181 31 c 0,37,38
 176 42 176 42 180.5 50 c 128,-1,39
 185 58 185 58 192 66.5 c 128,-1,40
 199 75 199 75 205.5 84 c 128,-1,41
 212 93 212 93 212 106 c 2,42,-1
 212 178 l 1,43,44
 167 178 167 178 135 210 c 128,-1,45
 103 242 103 242 103 287 c 256,46,47
 103 332 103 332 135 364 c 128,-1,48
 167 396 167 396 212 396 c 256,49,50
 257 396 257 396 289 364 c 128,-1,51
 321 332 321 332 321 287 c 0,52,53
 321 274 321 274 316.5 259.5 c 128,-1,54
 312 245 312 245 306 233 c 1,55,-1
 306 167 l 1,56,57
 348 206 348 206 399.5 229.5 c 128,-1,58
 451 253 451 253 505 250 c 1,59,-1
 505 389 l 2,60,61
 505 402 505 402 509 415 c 128,-1,62
 513 428 513 428 522 438 c 1,63,64
 517 444 517 444 505 458 c 128,-1,65
 493 472 493 472 470.5 487 c 128,-1,66
 448 502 448 502 413 513.5 c 128,-1,67
 378 525 378 525 329 525 c 0,68,69
 257 525 257 525 198 486 c 128,-1,70
 139 447 139 447 114 369 c 1,71,-1
 31 402 l 1,72,73
 70 498 70 498 142.5 555.5 c 128,-1,74
 215 613 215 613 330 613 c 0,75,76
 381 613 381 613 419 604 c 128,-1,77
 457 595 457 595 486.5 581.5 c 128,-1,78
 516 568 516 568 536 551 c 128,-1,79
 556 534 556 534 571 517 c 1,0,1
164 287 m 256,80,81
 164 266 164 266 177.5 252.5 c 128,-1,82
 191 239 191 239 212 239 c 256,83,84
 233 239 233 239 246.5 252.5 c 128,-1,85
 260 266 260 266 260 287 c 256,86,87
 260 308 260 308 246.5 321.5 c 128,-1,88
 233 335 233 335 212 335 c 256,89,90
 191 335 191 335 177.5 321.5 c 128,-1,91
 164 308 164 308 164 287 c 256,80,81
593 118 m 256,92,93
 593 141 593 141 578.5 157 c 128,-1,94
 564 173 564 173 540 173 c 256,95,96
 516 173 516 173 501 157 c 128,-1,97
 486 141 486 141 486 118 c 256,98,99
 486 96 486 96 501 79.5 c 128,-1,100
 516 63 516 63 540 63 c 256,101,102
 564 63 564 63 578.5 79.5 c 128,-1,103
 593 96 593 96 593 118 c 256,92,93
EndSplineSet
EndChar
StartChar: uni0E0A
Encoding: 3594 3594 221
Width: 653
VWidth: 1494
Flags: W
HStem: 3 90<297 462.609> 347 67<104.897 176.261>
VStem: 27 67<424.739 489.745> 187 67<424.739 489.736> 203 105<108.767 263.608> 463 105<93.1094 121 121 417.028>
Fore
253 3 m 1,0,1
 247 0 247 0 242.5 -2 c 128,-1,2
 238 -4 238 -4 233 -7 c 0,3,4
 223 -12 223 -12 212.5 -6.5 c 128,-1,5
 202 -1 202 -1 193 7.5 c 128,-1,6
 184 16 184 16 176.5 26.5 c 128,-1,7
 169 37 169 37 166 45 c 0,8,9
 161 55 161 55 166.5 64 c 128,-1,10
 172 73 172 73 180 82 c 128,-1,11
 188 91 188 91 195.5 101.5 c 128,-1,12
 203 112 203 112 203 126 c 2,13,-1
 203 241 l 2,14,15
 203 259 203 259 210.5 273.5 c 128,-1,16
 218 288 218 288 230 301 c 128,-1,17
 242 314 242 314 255.5 324.5 c 128,-1,18
 269 335 269 335 281 345 c 0,19,20
 306 366 306 366 317.5 399.5 c 128,-1,21
 329 433 329 433 323 464 c 128,-1,22
 317 495 317 495 294.5 514.5 c 128,-1,23
 272 534 272 534 232 528 c 1,24,25
 242 513 242 513 248 496.5 c 128,-1,26
 254 480 254 480 254 460 c 0,27,28
 254 413 254 413 221 380 c 128,-1,29
 188 347 188 347 141 347 c 256,30,31
 93 347 93 347 60 380 c 128,-1,32
 27 413 27 413 27 460 c 0,33,34
 27 486 27 486 38 510.5 c 128,-1,35
 49 535 49 535 71 556 c 128,-1,36
 93 577 93 577 122 591 c 128,-1,37
 151 605 151 605 187 608 c 0,38,39
 293 620 293 620 353.5 577.5 c 128,-1,40
 414 535 414 535 414 448 c 0,41,42
 414 396 414 396 397.5 364.5 c 128,-1,43
 381 333 381 333 361 313 c 128,-1,44
 341 293 341 293 324.5 277.5 c 128,-1,45
 308 262 308 262 308 239 c 2,46,-1
 308 114 l 2,47,48
 308 97 308 97 297 93 c 1,49,-1
 438 93 l 2,50,51
 463 93 463 93 463 121 c 2,52,-1
 463 396 l 2,53,54
 463 414 463 414 455.5 425 c 128,-1,55
 448 436 448 436 441 444 c 1,56,57
 431 451 431 451 419 456 c 1,58,59
 414 477 414 477 426.5 501.5 c 128,-1,60
 439 526 439 526 464.5 554.5 c 128,-1,61
 490 583 490 583 527 613.5 c 128,-1,62
 564 644 564 644 604 679 c 1,63,-1
 665 610 l 1,64,65
 626 581 626 581 590.5 551.5 c 128,-1,66
 555 522 555 522 525 478 c 1,67,68
 537 471 537 471 546 460 c 0,69,70
 553 451 553 451 560 436.5 c 128,-1,71
 567 422 567 422 568 401 c 2,72,-1
 568 82 l 2,73,74
 568 43 568 43 540.5 23 c 128,-1,75
 513 3 513 3 475 3 c 2,76,-1
 253 3 l 1,0,1
187 460 m 256,77,78
 187 480 187 480 173.5 493.5 c 128,-1,79
 160 507 160 507 141 507 c 256,80,81
 121 507 121 507 107.5 493.5 c 128,-1,82
 94 480 94 480 94 460 c 256,83,84
 94 441 94 441 107.5 427.5 c 128,-1,85
 121 414 121 414 141 414 c 256,86,87
 160 414 160 414 173.5 427.5 c 128,-1,88
 187 441 187 441 187 460 c 256,77,78
EndSplineSet
EndChar
StartChar: uni0E0B
Encoding: 3595 3595 222
Width: 686
VWidth: 1494
Flags: W
HStem: 3 88<333 487.32> 299 52<101.805 164.408> 588 20G<346.5 368.5>
VStem: 173 59<359.588 417.483> 242 102<108.767 109.242 109.242 264.639 264.639 324.076> 498 104<103.098 120 120 417.028>
Fore
173 392 m 256,0,1
 173 408 173 408 161 420 c 128,-1,2
 149 432 149 432 133 432 c 256,3,4
 117 432 117 432 105 420 c 128,-1,5
 93 408 93 408 93 392 c 256,6,7
 93 375 93 375 105 363 c 128,-1,8
 117 351 117 351 133 351 c 256,9,10
 149 351 149 351 161 363 c 128,-1,11
 173 375 173 375 173 392 c 256,0,1
242 244 m 2,12,13
 242 275 242 275 248 295 c 128,-1,14
 254 315 254 315 264 330 c 128,-1,15
 274 345 274 345 286.5 356.5 c 128,-1,16
 299 368 299 368 312 380 c 0,17,18
 318 386 318 386 329.5 395.5 c 128,-1,19
 341 405 341 405 351.5 416.5 c 128,-1,20
 362 428 362 428 370 437.5 c 128,-1,21
 378 447 378 447 378 454 c 0,22,23
 380 466 380 466 377 481 c 128,-1,24
 374 496 374 496 369.5 508 c 128,-1,25
 365 520 365 520 359 528.5 c 128,-1,26
 353 537 353 537 347 537 c 0,27,28
 336 535 336 535 326.5 529 c 128,-1,29
 317 523 317 523 308 516 c 1,30,31
 311 508 311 508 315.5 500 c 128,-1,32
 320 492 320 492 320.5 484.5 c 128,-1,33
 321 477 321 477 316.5 470 c 128,-1,34
 312 463 312 463 299 457 c 0,35,36
 294 454 294 454 287.5 452 c 128,-1,37
 281 450 281 450 273.5 450.5 c 128,-1,38
 266 451 266 451 258.5 458.5 c 128,-1,39
 251 466 251 466 245 483 c 0,40,41
 236 504 236 504 211.5 519 c 128,-1,42
 187 534 187 534 166 526 c 0,43,44
 146 519 146 519 135 507 c 128,-1,45
 124 495 124 495 120 483 c 1,46,47
 145 489 145 489 166 483 c 128,-1,48
 187 477 187 477 201 463.5 c 128,-1,49
 215 450 215 450 223.5 430.5 c 128,-1,50
 232 411 232 411 232 392 c 0,51,52
 232 351 232 351 202.5 325 c 128,-1,53
 173 299 173 299 133 299 c 0,54,55
 103 299 103 299 80 313 c 128,-1,56
 57 327 57 327 43 351 c 0,57,58
 27 381 27 381 24 417 c 128,-1,59
 21 453 21 453 30 486.5 c 128,-1,60
 39 520 39 520 60 548.5 c 128,-1,61
 81 577 81 577 115 593 c 0,62,63
 152 611 152 611 196.5 606 c 128,-1,64
 241 601 241 601 272 567 c 1,65,66
 308 596 308 596 323.5 602 c 128,-1,67
 339 608 339 608 354 608 c 0,68,69
 383 607 383 607 404 590 c 0,70,71
 422 577 422 577 436.5 547 c 128,-1,72
 451 517 451 517 450 463 c 1,73,74
 447 447 447 447 444 435 c 128,-1,75
 441 423 441 423 433.5 411 c 128,-1,76
 426 399 426 399 414 385.5 c 128,-1,77
 402 372 402 372 383 353 c 0,78,79
 368 338 368 338 356 324.5 c 128,-1,80
 344 311 344 311 344 288 c 2,81,-1
 344 117 l 2,82,83
 344 109 344 109 341 101.5 c 128,-1,84
 338 94 338 94 333 91 c 1,85,-1
 472 91 l 2,86,87
 487 91 487 91 492.5 99.5 c 128,-1,88
 498 108 498 108 498 120 c 2,89,-1
 498 396 l 2,90,91
 498 414 498 414 490.5 425 c 128,-1,92
 483 436 483 436 475 444 c 1,93,94
 465 451 465 451 453 456 c 1,95,96
 448 477 448 477 460 501.5 c 128,-1,97
 472 526 472 526 497.5 554.5 c 128,-1,98
 523 583 523 583 559 613.5 c 128,-1,99
 595 644 595 644 635 679 c 1,100,-1
 697 610 l 1,101,102
 658 581 658 581 623.5 551.5 c 128,-1,103
 589 522 589 522 559 478 c 1,104,105
 571 471 571 471 580 460 c 0,106,107
 587 451 587 451 594 436.5 c 128,-1,108
 601 422 601 422 602 401 c 2,109,-1
 602 81 l 2,110,111
 602 42 602 42 574.5 22.5 c 128,-1,112
 547 3 547 3 510 3 c 2,113,-1
 291 3 l 1,114,115
 286 0 286 0 280.5 -2 c 128,-1,116
 275 -4 275 -4 271 -7 c 0,117,118
 260 -12 260 -12 249.5 -6.5 c 128,-1,119
 239 -1 239 -1 230 7.5 c 128,-1,120
 221 16 221 16 214.5 26.5 c 128,-1,121
 208 37 208 37 205 45 c 0,122,123
 200 55 200 55 205.5 64 c 128,-1,124
 211 73 211 73 219 82 c 128,-1,125
 227 91 227 91 234.5 101.5 c 128,-1,126
 242 112 242 112 242 126 c 2,127,-1
 242 244 l 2,12,13
EndSplineSet
EndChar
StartChar: uni0E0C
Encoding: 3596 3596 223
Width: 970
VWidth: 1494
Flags: W
HStem: -1 67<216.547 289.484 484.563 502.246> 158 65<242.192 276.441> 528 79<250.294 422.685>
VStem: 139 103<223 310.075> 139 67<79.9232 144.592> 300 63<76.445 141.503> 501 103<268 397.169> 511 94<73.4795 84 84 185 387.377 397.5 417.5 418.656> 779 101<0 64 179 598>
Fore
511 193 m 1,0,1
 489 190 489 190 474 169 c 128,-1,2
 459 148 459 148 459 123 c 0,3,4
 459 93 459 93 467 80 c 128,-1,5
 475 67 475 67 485 65 c 128,-1,6
 495 63 495 63 503 69 c 128,-1,7
 511 75 511 75 511 84 c 2,8,-1
 511 193 l 1,0,1
300 112 m 256,9,10
 300 132 300 132 287 145 c 128,-1,11
 274 158 274 158 254 158 c 0,12,13
 233 158 233 158 219.5 145 c 128,-1,14
 206 132 206 132 206 112 c 256,15,16
 206 93 206 93 219.5 79.5 c 128,-1,17
 233 66 233 66 254 66 c 0,18,19
 274 66 274 66 287 79.5 c 128,-1,20
 300 93 300 93 300 112 c 256,9,10
571 516 m 1,21,22
 578 519 578 519 591.5 515 c 128,-1,23
 605 511 605 511 622 493 c 0,24,25
 634 480 634 480 637.5 470 c 128,-1,26
 641 460 641 460 639 452 c 128,-1,27
 637 444 637 444 631 436.5 c 128,-1,28
 625 429 625 429 617 419 c 256,29,30
 610 408 610 408 607 397.5 c 128,-1,31
 604 387 604 387 604 366 c 2,32,-1
 604 268 l 1,33,34
 641 265 641 265 689.5 241 c 128,-1,35
 738 217 738 217 779 179 c 1,36,-1
 779 598 l 1,37,-1
 880 598 l 1,38,-1
 880 0 l 1,39,-1
 779 0 l 1,40,-1
 779 64 l 1,41,42
 759 91 759 91 737 112 c 128,-1,43
 715 133 715 133 691 148 c 128,-1,44
 667 163 667 163 645 172.5 c 128,-1,45
 623 182 623 182 605 185 c 1,46,-1
 605 100 l 2,47,48
 605 66 605 66 592.5 44 c 128,-1,49
 580 22 580 22 562 11 c 128,-1,50
 544 0 544 0 523 -2 c 128,-1,51
 502 -4 502 -4 484 -1 c 0,52,53
 445 4 445 4 416 40 c 128,-1,54
 387 76 387 76 393 136 c 0,55,56
 399 188 399 188 430.5 218 c 128,-1,57
 462 248 462 248 501 262 c 1,58,-1
 501 387 l 2,59,60
 499 399 499 399 504.5 417.5 c 128,-1,61
 510 436 510 436 519 444 c 1,62,63
 514 445 514 445 500.5 458.5 c 128,-1,64
 487 472 487 472 466 487 c 128,-1,65
 445 502 445 502 414.5 515 c 128,-1,66
 384 528 384 528 344 528 c 0,67,68
 294 528 294 528 261.5 516.5 c 128,-1,69
 229 505 229 505 208.5 488.5 c 128,-1,70
 188 472 188 472 177 455 c 128,-1,71
 166 438 166 438 160 426 c 1,72,-1
 202 395 l 1,73,74
 215 411 215 411 231 422 c 128,-1,75
 247 433 247 433 272 442 c 1,76,77
 279.5 432 l 2,78,79
 287 422 287 422 296 410 c 128,-1,80
 305 398 305 398 311 389 c 128,-1,81
 317 380 317 380 318 378 c 1,82,83
 242 348 242 348 242 266 c 2,84,-1
 242 223 l 1,85,86
 266 224 266 224 288.5 216 c 128,-1,87
 311 208 311 208 327.5 192 c 128,-1,88
 344 176 344 176 353.5 156 c 128,-1,89
 363 136 363 136 363 112 c 0,90,91
 363 64 363 64 329.5 31.5 c 128,-1,92
 296 -1 296 -1 248 -1 c 256,93,94
 200 -1 200 -1 169.5 31.5 c 128,-1,95
 139 64 139 64 139 112 c 2,96,-1
 139 271 l 2,97,98
 139 297 139 297 142 310.5 c 128,-1,99
 145 324 145 324 151 332 c 1,100,-1
 48 399 l 1,101,102
 51 408 51 408 65 441.5 c 128,-1,103
 79 475 79 475 112 511 c 128,-1,104
 145 547 145 547 200.5 576 c 128,-1,105
 256 605 256 605 341 607 c 0,106,107
 432 607 432 607 486.5 578 c 128,-1,108
 541 549 541 549 571 516 c 1,21,22
EndSplineSet
EndChar
StartChar: uni0E0D
Encoding: 3597 3597 224
Width: 962
VWidth: 1494
Flags: W
HStem: -7 67<216.897 289.758> 0 90<590 769.594> 154 67<242.264 286.592> 528 79<250.294 422.206>
VStem: 139 103<220 310.075> 139 67<73.9237 140.077> 300 68<70.7004 143.261> 453 60<-188.17 -170 -170 -136.379> 498 103<102 109 109 110.031 110.031 381.911 381.911 398.656 398.656 417> 770 104<90.2461 118 118 598> 788 84<-78.6039 -0.789185>
Fore
300 108 m 0,0,1
 300 127 300 127 287 140.5 c 128,-1,2
 274 154 274 154 253 154 c 0,3,4
 233 154 233 154 219.5 140.5 c 128,-1,5
 206 127 206 127 206 108 c 0,6,7
 206 87 206 87 219.5 73.5 c 128,-1,8
 233 60 233 60 253 60 c 0,9,10
 274 60 274 60 287 73.5 c 128,-1,11
 300 87 300 87 300 108 c 0,0,1
595 -148 m 0,12,13
 592 -130 592 -130 578 -119.5 c 128,-1,14
 564 -109 564 -109 547 -112 c 256,15,16
 531 -115 531 -115 520.5 -129.5 c 128,-1,17
 510 -144 510 -144 513 -160 c 0,18,19
 516 -178 516 -178 529.5 -188.5 c 128,-1,20
 543 -199 543 -199 561 -196 c 0,21,22
 577 -193 577 -193 587.5 -178.5 c 128,-1,23
 598 -164 598 -164 595 -148 c 0,12,13
601 118 m 1,24,25
 602 111 602 111 598.5 102 c 128,-1,26
 595 93 595 93 590 90 c 1,27,-1
 744 90 l 2,28,29
 770 90 770 90 770 118 c 2,30,-1
 770 598 l 1,31,-1
 874 598 l 1,32,-1
 874 82 l 2,33,34
 874 22 874 22 872 -22.5 c 128,-1,35
 870 -67 870 -67 860 -100 c 1,36,-1
 860 -102 l 1,37,38
 855 -118 855 -118 849 -132 c 0,39,40
 839 -154 839 -154 827 -169 c 128,-1,41
 815 -184 815 -184 803 -196 c 0,42,43
 773 -224 773 -224 736.5 -240.5 c 128,-1,44
 700 -257 700 -257 661.5 -263 c 128,-1,45
 623 -269 623 -269 586 -265.5 c 128,-1,46
 549 -262 549 -262 520 -251 c 0,47,48
 495 -241 495 -241 476 -220.5 c 128,-1,49
 457 -200 457 -200 453 -170 c 0,50,51
 445 -127 445 -127 470 -93.5 c 128,-1,52
 495 -60 495 -60 538 -52 c 0,53,54
 580 -45 580 -45 613.5 -70.5 c 128,-1,55
 647 -96 647 -96 655 -138 c 0,56,57
 659 -158 659 -158 652 -182 c 1,58,59
 726 -166 726 -166 758 -120 c 0,60,61
 767 -108 767 -108 776 -79.5 c 128,-1,62
 785 -51 785 -51 788 0 c 1,63,-1
 552 0 l 1,64,-1
 534 -6 l 2,65,66
 525 -9 525 -9 514.5 -4.5 c 128,-1,67
 504 0 504 0 495 9 c 128,-1,68
 486 18 486 18 479 27.5 c 128,-1,69
 472 37 472 37 469 45 c 0,70,71
 465 55 465 55 468.5 61 c 128,-1,72
 472 67 472 67 479 74 c 128,-1,73
 486 81 486 81 492 88.5 c 128,-1,74
 498 96 498 96 498 109 c 2,75,-1
 498 387 l 2,76,77
 496 399 496 399 502 417 c 128,-1,78
 508 435 508 435 516 444 c 1,79,80
 511 445 511 445 498.5 458.5 c 128,-1,81
 486 472 486 472 465 487 c 128,-1,82
 444 502 444 502 414 515 c 128,-1,83
 384 528 384 528 344 528 c 0,84,85
 294 528 294 528 261.5 516.5 c 128,-1,86
 229 505 229 505 208.5 488.5 c 128,-1,87
 188 472 188 472 177 455 c 128,-1,88
 166 438 166 438 160 426 c 1,89,-1
 202 395 l 1,90,91
 215 411 215 411 231 422 c 128,-1,92
 247 433 247 433 272 442 c 1,93,94
 279.5 432 l 2,95,96
 287 422 287 422 296 410 c 128,-1,97
 305 398 305 398 311 389 c 128,-1,98
 317 380 317 380 318 378 c 1,99,100
 280 363 280 363 261 334 c 128,-1,101
 242 305 242 305 242 266 c 2,102,-1
 242 220 l 1,103,104
 245 221 245 221 248 221 c 128,-1,105
 251 221 251 221 253 221 c 0,106,107
 300 221 300 221 334 188 c 128,-1,108
 368 155 368 155 368 108 c 256,109,110
 368 60 368 60 334 26.5 c 128,-1,111
 300 -7 300 -7 253 -7 c 256,112,113
 205 -7 205 -7 172 26.5 c 128,-1,114
 139 60 139 60 139 108 c 2,115,-1
 139 271 l 2,116,117
 139 297 139 297 142 310.5 c 128,-1,118
 145 324 145 324 151 332 c 1,119,-1
 48 399 l 1,120,121
 51 408 51 408 65 441.5 c 128,-1,122
 79 475 79 475 112 511 c 128,-1,123
 145 547 145 547 200.5 576 c 128,-1,124
 256 605 256 605 341 607 c 0,125,126
 432 607 432 607 485 578 c 128,-1,127
 538 549 538 549 568 516 c 1,128,129
 575 519 575 519 588.5 515 c 128,-1,130
 602 511 602 511 619 493 c 0,131,132
 631 480 631 480 634.5 470 c 128,-1,133
 638 460 638 460 636 452 c 128,-1,134
 634 444 634 444 628 436.5 c 128,-1,135
 622 429 622 429 614 419 c 256,136,137
 607 408 607 408 604 397.5 c 128,-1,138
 601 387 601 387 601 366 c 2,139,-1
 601 118 l 1,24,25
EndSplineSet
Substitution2: "Single Substitution lookup 22 subtable" uni0E0D.alt1
Substitution2: "Single Substitution lookup 22 subtable" uni0E0D.alt1
EndChar
StartChar: uni0E0E
Encoding: 3598 3598 225
Width: 724
VWidth: 1494
Flags: W
HStem: -366 67<168.964 243.866> -199 69<168.304 232.502> -10 68<122.7 195.332> 151 69<122.7 175.491> 531 79<284.552 460.028>
VStem: 45 67<68.8494 140.357> 88 69<-287.141 -210.304> 181 105<217 313.075> 206 80<83.4972 137.077> 235 85<-135 -72> 256 68<-286.479 -235.342> 535 103<-178 381.911 381.911 399.718 399.718 418.656>
Fore
638 -187 m 2,0,1
 638 -202 638 -202 629 -215 c 2,2,3
 629 -217 629 -217 612 -235.5 c 128,-1,4
 595 -254 595 -254 575 -277 c 128,-1,5
 555 -300 555 -300 536 -320.5 c 128,-1,6
 517 -341 517 -341 514 -345 c 0,7,8
 499 -362 499 -362 488 -365 c 128,-1,9
 477 -368 477 -368 456 -354 c 0,10,11
 444 -347 444 -347 430.5 -332.5 c 128,-1,12
 417 -318 417 -318 425 -303 c 1,13,14
 398 -274 398 -274 371 -258 c 128,-1,15
 344 -242 344 -242 323 -235 c 1,16,17
 324 -239 324 -239 324 -248 c 0,18,19
 324 -297 324 -297 290 -331.5 c 128,-1,20
 256 -366 256 -366 206 -366 c 0,21,22
 158 -366 158 -366 123 -331.5 c 128,-1,23
 88 -297 88 -297 88 -248 c 0,24,25
 88 -200 88 -200 123 -165 c 128,-1,26
 158 -130 158 -130 206 -130 c 0,27,28
 221 -130 221 -130 235 -135 c 1,29,-1
 235 -72 l 1,30,-1
 320 -72 l 1,31,-1
 320 -151 l 1,32,33
 350 -158 350 -158 391.5 -178.5 c 128,-1,34
 433 -199 433 -199 477 -242 c 1,35,36
 493 -226 493 -226 509.5 -208 c 128,-1,37
 526 -190 526 -190 535 -178 c 1,38,-1
 535 390 l 2,39,40
 534 402 534 402 540 420.5 c 128,-1,41
 546 439 546 439 553 448 c 1,42,43
 549 450 549 450 535.5 463.5 c 128,-1,44
 522 477 522 477 501 492 c 128,-1,45
 480 507 480 507 449.5 519 c 128,-1,46
 419 531 419 531 378 531 c 0,47,48
 329 531 329 531 296 519.5 c 128,-1,49
 263 508 263 508 243 491.5 c 128,-1,50
 223 475 223 475 211.5 458 c 128,-1,51
 200 441 200 441 194 429 c 1,52,-1
 236 398 l 1,53,54
 250 414 250 414 265.5 425 c 128,-1,55
 281 436 281 436 306 445 c 1,56,57
 313.5 435 l 2,58,59
 321 425 321 425 330 413 c 128,-1,60
 339 401 339 401 345 392 c 128,-1,61
 351 383 351 383 353 381 c 1,62,63
 314 366 314 366 300 337 c 128,-1,64
 286 308 286 308 286 269 c 2,65,-1
 286 117 l 2,66,67
 286 93 286 93 279 69.5 c 128,-1,68
 272 46 272 46 256.5 28 c 128,-1,69
 241 10 241 10 217 0 c 128,-1,70
 193 -10 193 -10 160 -10 c 0,71,72
 112 -10 112 -10 78.5 23.5 c 128,-1,73
 45 57 45 57 45 105 c 256,74,75
 45 152 45 152 78.5 186 c 128,-1,76
 112 220 112 220 160 220 c 0,77,78
 166 220 166 220 170.5 219 c 128,-1,79
 175 218 175 218 181 217 c 1,80,-1
 181 274 l 2,81,82
 181 300 181 300 184 313.5 c 128,-1,83
 187 327 187 327 193 335 c 1,84,-1
 82 402 l 1,85,86
 85 411 85 411 99.5 444.5 c 128,-1,87
 114 478 114 478 146.5 514 c 128,-1,88
 179 550 179 550 234.5 579 c 128,-1,89
 290 608 290 608 375 610 c 0,90,91
 468 610 468 610 521.5 581 c 128,-1,92
 575 552 575 552 605 517 c 1,93,94
 613 520 613 520 626.5 515.5 c 128,-1,95
 640 511 640 511 656 493 c 0,96,97
 668 480 668 480 672 470 c 128,-1,98
 676 460 676 460 673.5 452 c 128,-1,99
 671 444 671 444 665 436.5 c 128,-1,100
 659 429 659 429 652 419 c 256,101,102
 644 408 644 408 641 397.5 c 128,-1,103
 638 387 638 387 638 366 c 2,104,-1
 638 -187 l 2,0,1
206 105 m 256,105,106
 206 124 206 124 192.5 137.5 c 128,-1,107
 179 151 179 151 160 151 c 0,108,109
 139 151 139 151 125.5 137.5 c 128,-1,110
 112 124 112 124 112 105 c 256,111,112
 112 85 112 85 125.5 71.5 c 128,-1,113
 139 58 139 58 160 58 c 0,114,115
 179 58 179 58 192.5 71.5 c 128,-1,116
 206 85 206 85 206 105 c 256,105,106
256 -248 m 256,117,118
 256 -227 256 -227 241.5 -213 c 128,-1,119
 227 -199 227 -199 206 -199 c 256,120,121
 185 -199 185 -199 171 -213 c 128,-1,122
 157 -227 157 -227 157 -248 c 256,123,124
 157 -269 157 -269 171 -284 c 128,-1,125
 185 -299 185 -299 206 -299 c 256,126,127
 227 -299 227 -299 241.5 -284 c 128,-1,128
 256 -269 256 -269 256 -248 c 256,117,118
EndSplineSet
Substitution2: "Single Substitution lookup 22 subtable" uni0E0E.alt1
Substitution2: "Single Substitution lookup 22 subtable" uni0E0E.alt1
EndChar
StartChar: uni0E0F
Encoding: 3599 3599 226
Width: 724
VWidth: 1494
Flags: W
HStem: -366 67<91.0858 165.842> -293 71<406.69 420.5 420.5 461.608> -199 68<93.9547 155.479> -10 68<122.7 195.332> 151 69<122.7 175.491> 531 79<284.552 457.836>
VStem: 10 69<-286.479 -210.308> 45 67<68.8494 140.357> 157 84<-135 -55> 178 69<-275.522 -242.232> 181 105<217 313.075> 206 80<83.4972 137.077> 535 103<-172 381.911 381.911 399.718 399.718 418.656>
Fore
638 -199 m 2,0,1
 638 -200 638 -200 624 -220.5 c 128,-1,2
 610 -241 610 -241 592.5 -265.5 c 128,-1,3
 575 -290 575 -290 561 -309.5 c 128,-1,4
 547 -329 547 -329 546 -330 c 0,5,6
 535 -342 535 -342 524.5 -341.5 c 128,-1,7
 514 -341 514 -341 501 -336 c 0,8,9
 480 -329 480 -329 469.5 -316 c 128,-1,10
 459 -303 459 -303 462 -293 c 1,11,12
 428 -293 428 -293 406 -306.5 c 128,-1,13
 384 -320 384 -320 368 -354 c 0,14,15
 365 -362 365 -362 360.5 -364 c 128,-1,16
 356 -366 356 -366 350.5 -365.5 c 128,-1,17
 345 -365 345 -365 338.5 -362.5 c 128,-1,18
 332 -360 332 -360 326 -359 c 0,19,20
 309 -356 309 -356 298 -351.5 c 128,-1,21
 287 -347 287 -347 294 -335 c 1,22,23
 294 -332 294 -332 298 -326.5 c 128,-1,24
 302 -321 302 -321 305 -314 c 1,25,26
 293 -286 293 -286 278 -270 c 128,-1,27
 263 -254 263 -254 247 -242 c 1,28,29
 248 -260 248 -260 242 -281.5 c 128,-1,30
 236 -303 236 -303 221 -322 c 128,-1,31
 206 -341 206 -341 183 -353.5 c 128,-1,32
 160 -366 160 -366 129 -366 c 0,33,34
 79 -366 79 -366 44.5 -331.5 c 128,-1,35
 10 -297 10 -297 10 -248 c 0,36,37
 10 -211 10 -211 26.5 -185.5 c 128,-1,38
 43 -160 43 -160 66.5 -146.5 c 128,-1,39
 90 -133 90 -133 115.5 -131 c 128,-1,40
 141 -129 141 -129 157 -135 c 1,41,-1
 157 -55 l 1,42,-1
 241 -55 l 1,43,-1
 241 -149 l 1,44,45
 268 -161 268 -161 299 -184.5 c 128,-1,46
 330 -208 330 -208 356 -256 c 1,47,48
 390 -226 390 -226 420.5 -222 c 128,-1,49
 451 -218 451 -218 484 -233 c 1,50,-1
 535 -172 l 1,51,-1
 535 390 l 2,52,53
 534 402 534 402 539 420.5 c 128,-1,54
 544 439 544 439 553 447 c 1,55,56
 549 448 549 448 535.5 461.5 c 128,-1,57
 522 475 522 475 501 490 c 128,-1,58
 480 505 480 505 449.5 518 c 128,-1,59
 419 531 419 531 378 531 c 0,60,61
 329 531 329 531 296 519.5 c 128,-1,62
 263 508 263 508 243 491.5 c 128,-1,63
 223 475 223 475 211.5 458 c 128,-1,64
 200 441 200 441 194 429 c 1,65,-1
 236 398 l 1,66,67
 250 414 250 414 265.5 425 c 128,-1,68
 281 436 281 436 306 445 c 1,69,70
 313.5 435 l 2,71,72
 321 425 321 425 330 413 c 128,-1,73
 339 401 339 401 345 392 c 128,-1,74
 351 383 351 383 353 381 c 1,75,76
 314 366 314 366 300 337 c 128,-1,77
 286 308 286 308 286 269 c 2,78,-1
 286 117 l 2,79,80
 286 93 286 93 279 69.5 c 128,-1,81
 272 46 272 46 256.5 28 c 128,-1,82
 241 10 241 10 217 0 c 128,-1,83
 193 -10 193 -10 160 -10 c 0,84,85
 112 -10 112 -10 78.5 23.5 c 128,-1,86
 45 57 45 57 45 105 c 256,87,88
 45 152 45 152 78.5 186 c 128,-1,89
 112 220 112 220 160 220 c 0,90,91
 166 220 166 220 170.5 219 c 128,-1,92
 175 218 175 218 181 217 c 1,93,-1
 181 274 l 2,94,95
 181 300 181 300 184 313.5 c 128,-1,96
 187 327 187 327 193 335 c 1,97,-1
 82 402 l 1,98,99
 85 411 85 411 99.5 444.5 c 128,-1,100
 114 478 114 478 146.5 514 c 128,-1,101
 179 550 179 550 234.5 579 c 128,-1,102
 290 608 290 608 375 610 c 0,103,104
 468 610 468 610 521.5 581 c 128,-1,105
 575 552 575 552 605 517 c 1,106,107
 613 520 613 520 626.5 515.5 c 128,-1,108
 640 511 640 511 656 493 c 0,109,110
 668 480 668 480 672 470 c 128,-1,111
 676 460 676 460 673.5 452 c 128,-1,112
 671 444 671 444 665 436.5 c 128,-1,113
 659 429 659 429 652 419 c 256,114,115
 644 408 644 408 641 397.5 c 128,-1,116
 638 387 638 387 638 366 c 2,117,-1
 638 -199 l 2,0,1
206 105 m 256,118,119
 206 124 206 124 192.5 137.5 c 128,-1,120
 179 151 179 151 160 151 c 0,121,122
 139 151 139 151 125.5 137.5 c 128,-1,123
 112 124 112 124 112 105 c 256,124,125
 112 85 112 85 125.5 71.5 c 128,-1,126
 139 58 139 58 160 58 c 0,127,128
 179 58 179 58 192.5 71.5 c 128,-1,129
 206 85 206 85 206 105 c 256,118,119
178 -248 m 256,130,131
 178 -227 178 -227 165 -213 c 128,-1,132
 152 -199 152 -199 129 -199 c 0,133,134
 108 -199 108 -199 93.5 -213 c 128,-1,135
 79 -227 79 -227 79 -248 c 256,136,137
 79 -269 79 -269 93.5 -284 c 128,-1,138
 108 -299 108 -299 129 -299 c 256,139,140
 149 -299 149 -299 163.5 -284 c 128,-1,141
 178 -269 178 -269 178 -248 c 256,130,131
EndSplineSet
Substitution2: "Single Substitution lookup 22 subtable" uni0E0F.alt1
Substitution2: "Single Substitution lookup 22 subtable" uni0E0F.alt1
EndChar
